M48
; DRILL file {KiCad 9.0.7} date 2026-01-16T03:08:41+0200
; FORMAT={-:-/ absolute / metric / decimal}
; #@! TF.CreationDate,2026-01-16T03:08:41+02:00
; #@! TF.GenerationSoftware,Kicad,Pcbnew,9.0.7
; #@! TF.FileFunction,Plated,1,2,PTH
FMAT,2
METRIC
; #@! TA.AperFunction,Plated,PTH,ViaDrill
T1C0.300
; #@! TA.AperFunction,Plated,PTH,ComponentDrill
T2C0.889
; #@! TA.AperFunction,Plated,PTH,ComponentDrill
T3C1.000
; #@! TA.AperFunction,Plated,PTH,ComponentDrill
T4C1.500
%
G90
G05
T1
X79.578Y-82.05
X86.67Y-95.358
X97.13Y-91.341
X103.57Y-91.341
X105.76Y-88.48
X106.54Y-91.341
X113.26Y-94.71
X113.58Y-79.21
T2
X94.21Y-79.519
X94.21Y-82.058
X94.21Y-84.599
X94.21Y-87.138
X94.21Y-89.678
X94.21Y-92.218
X94.21Y-94.758
X109.45Y-79.519
X109.45Y-82.058
X109.45Y-84.599
X109.45Y-87.138
X109.45Y-89.678
X109.45Y-92.218
X109.45Y-94.758
T3
X78.53Y-82.11
X78.53Y-84.65
X78.53Y-87.19
X78.53Y-89.73
X94.435Y-113.625
X94.435Y-116.125
X94.435Y-118.625
X108.935Y-113.625
X108.935Y-118.625
T4
X38.62Y-102.58
X38.62Y-121.63
X44.97Y-100.04
X44.97Y-119.09
X57.67Y-102.58
X57.67Y-121.63
X64.02Y-100.04
X64.02Y-119.09
X76.72Y-102.58
X76.72Y-121.63
X83.07Y-100.04
X83.07Y-119.09
T4
G00X101.285Y-110.525
M15
G01X102.585Y-110.525
M16
G05
G00X101.285Y-121.725
M15
G01X102.585Y-121.725
M16
G05
M30
