%TF.GenerationSoftware,KiCad,Pcbnew,9.0.7*%
%TF.CreationDate,2026-01-16T03:08:10+02:00*%
%TF.ProjectId,HackPad,4861636b-5061-4642-9e6b-696361645f70,rev?*%
%TF.SameCoordinates,Original*%
%TF.FileFunction,Copper,L2,Bot*%
%TF.FilePolarity,Positive*%
%FSLAX46Y46*%
G04 Gerber Fmt 4.6, Leading zero omitted, Abs format (unit mm)*
G04 Created by KiCad (PCBNEW 9.0.7) date 2026-01-16 03:08:10*
%MOMM*%
%LPD*%
G01*
G04 APERTURE LIST*
G04 Aperture macros list*
%AMRoundRect*
0 Rectangle with rounded corners*
0 $1 Rounding radius*
0 $2 $3 $4 $5 $6 $7 $8 $9 X,Y pos of 4 corners*
0 Add a 4 corners polygon primitive as box body*
4,1,4,$2,$3,$4,$5,$6,$7,$8,$9,$2,$3,0*
0 Add four circle primitives for the rounded corners*
1,1,$1+$1,$2,$3*
1,1,$1+$1,$4,$5*
1,1,$1+$1,$6,$7*
1,1,$1+$1,$8,$9*
0 Add four rect primitives between the rounded corners*
20,1,$1+$1,$2,$3,$4,$5,0*
20,1,$1+$1,$4,$5,$6,$7,0*
20,1,$1+$1,$6,$7,$8,$9,0*
20,1,$1+$1,$8,$9,$2,$3,0*%
G04 Aperture macros list end*
%TA.AperFunction,ComponentPad*%
%ADD10R,1.700000X1.700000*%
%TD*%
%TA.AperFunction,ComponentPad*%
%ADD11O,1.700000X1.700000*%
%TD*%
%TA.AperFunction,ComponentPad*%
%ADD12C,2.200000*%
%TD*%
%TA.AperFunction,ComponentPad*%
%ADD13C,1.500000*%
%TD*%
%TA.AperFunction,ComponentPad*%
%ADD14R,2.000000X2.000000*%
%TD*%
%TA.AperFunction,ComponentPad*%
%ADD15C,2.000000*%
%TD*%
%TA.AperFunction,ComponentPad*%
%ADD16R,3.200000X2.000000*%
%TD*%
%TA.AperFunction,SMDPad,CuDef*%
%ADD17RoundRect,0.152400X-1.063600X-0.609600X1.063600X-0.609600X1.063600X0.609600X-1.063600X0.609600X0*%
%TD*%
%TA.AperFunction,ComponentPad*%
%ADD18C,1.524000*%
%TD*%
%TA.AperFunction,SMDPad,CuDef*%
%ADD19RoundRect,0.152400X1.063600X0.609600X-1.063600X0.609600X-1.063600X-0.609600X1.063600X-0.609600X0*%
%TD*%
%TA.AperFunction,ViaPad*%
%ADD20C,0.600000*%
%TD*%
%TA.AperFunction,Conductor*%
%ADD21C,0.200000*%
%TD*%
G04 APERTURE END LIST*
D10*
%TO.P,OLED1,1,GND*%
%TO.N,GND*%
X78530000Y-82110000D03*
D11*
%TO.P,OLED1,2,VCC*%
%TO.N,/3V3*%
X78530000Y-84650000D03*
%TO.P,OLED1,3,SCL*%
%TO.N,Net-(OLED1-SCL)*%
X78530000Y-87190000D03*
%TO.P,OLED1,4,SDA*%
%TO.N,Net-(OLED1-SDA)*%
X78530000Y-89730000D03*
%TD*%
D12*
%TO.P,SW4,2,2*%
%TO.N,Net-(U1-GPIO27{slash}ADC1{slash}A1)*%
X57670000Y-121630000D03*
%TO.P,SW4,1,1*%
%TO.N,GND*%
X64020000Y-119090000D03*
%TD*%
%TO.P,SW3,1,1*%
%TO.N,GND*%
X64020000Y-100040000D03*
%TO.P,SW3,2,2*%
%TO.N,Net-(U1-GPIO1{slash}RX)*%
X57670000Y-102580000D03*
%TD*%
%TO.P,SW2,1,1*%
%TO.N,GND*%
X44970000Y-119090000D03*
%TO.P,SW2,2,2*%
%TO.N,Net-(U1-GPIO2{slash}SCK)*%
X38620000Y-121630000D03*
%TD*%
%TO.P,SW1,1,1*%
%TO.N,GND*%
X44970000Y-100040000D03*
%TO.P,SW1,2,2*%
%TO.N,Net-(U1-GPIO26{slash}ADC0{slash}A0)*%
X38620000Y-102580000D03*
%TD*%
%TO.P,SW6,1,1*%
%TO.N,Net-(U1-GPIO4{slash}MISO)*%
X83070000Y-119090000D03*
%TO.P,SW6,2,2*%
%TO.N,GND*%
X76720000Y-121630000D03*
%TD*%
%TO.P,SW5,1,1*%
%TO.N,Net-(U1-GPIO3{slash}MOSI)*%
X83070000Y-100040000D03*
%TO.P,SW5,2,2*%
%TO.N,GND*%
X76720000Y-102580000D03*
%TD*%
D13*
%TO.P,SW7,*%
%TO.N,*%
X108935000Y-113625000D03*
X108935000Y-118625000D03*
D14*
%TO.P,SW7,A,A*%
%TO.N,Net-(U1-GPIO28{slash}ADC2{slash}A2)*%
X94435000Y-113625000D03*
D15*
%TO.P,SW7,B,B*%
%TO.N,Net-(U1-GPIO29{slash}ADC3{slash}A3)*%
X94435000Y-118625000D03*
%TO.P,SW7,C,C*%
%TO.N,GND*%
X94435000Y-116125000D03*
D16*
%TO.P,SW7,MP*%
%TO.N,N/C*%
X101935000Y-110525000D03*
X101935000Y-121725000D03*
%TD*%
D17*
%TO.P,U1,1,GPIO26/ADC0/A0*%
%TO.N,Net-(U1-GPIO26{slash}ADC0{slash}A0)*%
X110285000Y-79518500D03*
D18*
X109450000Y-79518500D03*
D17*
%TO.P,U1,2,GPIO27/ADC1/A1*%
%TO.N,Net-(U1-GPIO27{slash}ADC1{slash}A1)*%
X110285000Y-82058500D03*
D18*
X109450000Y-82058500D03*
D17*
%TO.P,U1,3,GPIO28/ADC2/A2*%
%TO.N,Net-(U1-GPIO28{slash}ADC2{slash}A2)*%
X110285000Y-84598500D03*
D18*
X109450000Y-84598500D03*
D17*
%TO.P,U1,4,GPIO29/ADC3/A3*%
%TO.N,Net-(U1-GPIO29{slash}ADC3{slash}A3)*%
X110285000Y-87138500D03*
D18*
X109450000Y-87138500D03*
D17*
%TO.P,U1,5,GPIO6/SDA*%
%TO.N,Net-(OLED1-SDA)*%
X110285000Y-89678500D03*
D18*
X109450000Y-89678500D03*
D17*
%TO.P,U1,6,GPIO7/SCL*%
%TO.N,Net-(OLED1-SCL)*%
X110285000Y-92218500D03*
D18*
X109450000Y-92218500D03*
D17*
%TO.P,U1,7,GPIO0/TX*%
%TO.N,unconnected-(U1-GPIO0{slash}TX-Pad7)*%
X110285000Y-94758500D03*
D18*
%TO.N,unconnected-(U1-GPIO0{slash}TX-Pad7)_1*%
X109450000Y-94758500D03*
%TO.P,U1,8,GPIO1/RX*%
%TO.N,Net-(U1-GPIO1{slash}RX)*%
X94210000Y-94758500D03*
D19*
X93375000Y-94758500D03*
D18*
%TO.P,U1,9,GPIO2/SCK*%
%TO.N,Net-(U1-GPIO2{slash}SCK)*%
X94210000Y-92218500D03*
D19*
X93375000Y-92218500D03*
D18*
%TO.P,U1,10,GPIO4/MISO*%
%TO.N,Net-(U1-GPIO4{slash}MISO)*%
X94210000Y-89678500D03*
D19*
X93375000Y-89678500D03*
D18*
%TO.P,U1,11,GPIO3/MOSI*%
%TO.N,Net-(U1-GPIO3{slash}MOSI)*%
X94210000Y-87138500D03*
D19*
X93375000Y-87138500D03*
D18*
%TO.P,U1,12,3V3*%
%TO.N,/3V3*%
X94210000Y-84598500D03*
D19*
X93375000Y-84598500D03*
D18*
%TO.P,U1,13,GND*%
%TO.N,GND*%
X94210000Y-82058500D03*
D19*
X93375000Y-82058500D03*
D18*
%TO.P,U1,14,VBUS*%
%TO.N,+5V*%
X94210000Y-79518500D03*
D19*
X93375000Y-79518500D03*
%TD*%
D20*
%TO.N,Net-(U1-GPIO27{slash}ADC1{slash}A1)*%
X113260000Y-94710000D03*
%TO.N,Net-(U1-GPIO4{slash}MISO)*%
X97130000Y-91341500D03*
%TO.N,Net-(U1-GPIO3{slash}MOSI)*%
X86670000Y-95358500D03*
%TO.N,Net-(U1-GPIO26{slash}ADC0{slash}A0)*%
X113580000Y-79210000D03*
%TO.N,Net-(U1-GPIO28{slash}ADC2{slash}A2)*%
X106540000Y-91341500D03*
%TO.N,Net-(U1-GPIO29{slash}ADC3{slash}A3)*%
X105760000Y-88480000D03*
X103570000Y-91341500D03*
%TO.N,GND*%
X79578271Y-82049755D03*
%TD*%
D21*
%TO.N,Net-(U1-GPIO27{slash}ADC1{slash}A1)*%
X110063626Y-82058500D02*
X109450000Y-82058500D01*
X113260000Y-85254874D02*
X110063626Y-82058500D01*
X113260000Y-94710000D02*
X113260000Y-85254874D01*
%TO.N,Net-(U1-GPIO4{slash}MISO)*%
X95467000Y-89678500D02*
X94210000Y-89678500D01*
X97130000Y-91341500D02*
X95467000Y-89678500D01*
%TO.N,Net-(U1-GPIO3{slash}MOSI)*%
X86670000Y-95358500D02*
X86670000Y-93843500D01*
X86670000Y-93843500D02*
X93375000Y-87138500D01*
%TO.N,Net-(U1-GPIO26{slash}ADC0{slash}A0)*%
X113271500Y-79518500D02*
X110285000Y-79518500D01*
X113580000Y-79210000D02*
X113271500Y-79518500D01*
%TO.N,Net-(U1-GPIO28{slash}ADC2{slash}A2)*%
X106540000Y-91341500D02*
X106540000Y-87508500D01*
X106540000Y-87508500D02*
X109450000Y-84598500D01*
%TO.N,Net-(U1-GPIO29{slash}ADC3{slash}A3)*%
X103570000Y-90670000D02*
X105760000Y-88480000D01*
X103570000Y-91341500D02*
X103570000Y-90670000D01*
%TD*%
%TA.AperFunction,Conductor*%
%TO.N,GND*%
G36*
X114992539Y-77050185D02*
G01*
X115038294Y-77102989D01*
X115049500Y-77154500D01*
X115049500Y-135685500D01*
X115029815Y-135752539D01*
X114977011Y-135798294D01*
X114925500Y-135809500D01*
X93347714Y-135809500D01*
X93347201Y-135809499D01*
X30753045Y-135550509D01*
X30686087Y-135530547D01*
X30640551Y-135477554D01*
X30629559Y-135426954D01*
X30627709Y-134910500D01*
X30620645Y-132938711D01*
X31379500Y-132938711D01*
X31379500Y-133181288D01*
X31411161Y-133421785D01*
X31473947Y-133656104D01*
X31566773Y-133880205D01*
X31566776Y-133880212D01*
X31688064Y-134090289D01*
X31688066Y-134090292D01*
X31688067Y-134090293D01*
X31835733Y-134282736D01*
X31835739Y-134282743D01*
X32007256Y-134454260D01*
X32007262Y-134454265D01*
X32199711Y-134601936D01*
X32409788Y-134723224D01*
X32633900Y-134816054D01*
X32868211Y-134878838D01*
X33048586Y-134902584D01*
X33108711Y-134910500D01*
X33108712Y-134910500D01*
X33351289Y-134910500D01*
X33399388Y-134904167D01*
X33591789Y-134878838D01*
X33826100Y-134816054D01*
X34050212Y-134723224D01*
X34260289Y-134601936D01*
X34452738Y-134454265D01*
X34624265Y-134282738D01*
X34771936Y-134090289D01*
X34893224Y-133880212D01*
X34986054Y-133656100D01*
X35048838Y-133421789D01*
X35080500Y-133181288D01*
X35080500Y-132938712D01*
X35048838Y-132698211D01*
X34986054Y-132463900D01*
X34893224Y-132239788D01*
X34771936Y-132029711D01*
X34624265Y-131837262D01*
X34624260Y-131837256D01*
X34452743Y-131665739D01*
X34452736Y-131665733D01*
X34260293Y-131518067D01*
X34260292Y-131518066D01*
X34260289Y-131518064D01*
X34050212Y-131396776D01*
X34050205Y-131396773D01*
X33826104Y-131303947D01*
X33591785Y-131241161D01*
X33351289Y-131209500D01*
X33351288Y-131209500D01*
X33108712Y-131209500D01*
X33108711Y-131209500D01*
X32868214Y-131241161D01*
X32633895Y-131303947D01*
X32409794Y-131396773D01*
X32409785Y-131396777D01*
X32199706Y-131518067D01*
X32007263Y-131665733D01*
X32007256Y-131665739D01*
X31835739Y-131837256D01*
X31835733Y-131837263D01*
X31688067Y-132029706D01*
X31566777Y-132239785D01*
X31566773Y-132239794D01*
X31473947Y-132463895D01*
X31411161Y-132698214D01*
X31379500Y-132938711D01*
X30620645Y-132938711D01*
X30606889Y-129098711D01*
X104269500Y-129098711D01*
X104269500Y-129341288D01*
X104301161Y-129581785D01*
X104363947Y-129816104D01*
X104456773Y-130040205D01*
X104456776Y-130040212D01*
X104578064Y-130250289D01*
X104578066Y-130250292D01*
X104578067Y-130250293D01*
X104725733Y-130442736D01*
X104725739Y-130442743D01*
X104897256Y-130614260D01*
X104897262Y-130614265D01*
X105089711Y-130761936D01*
X105299788Y-130883224D01*
X105523900Y-130976054D01*
X105758211Y-131038838D01*
X105938586Y-131062584D01*
X105998711Y-131070500D01*
X105998712Y-131070500D01*
X106241289Y-131070500D01*
X106289388Y-131064167D01*
X106481789Y-131038838D01*
X106716100Y-130976054D01*
X106940212Y-130883224D01*
X107150289Y-130761936D01*
X107342738Y-130614265D01*
X107514265Y-130442738D01*
X107661936Y-130250289D01*
X107783224Y-130040212D01*
X107876054Y-129816100D01*
X107938838Y-129581789D01*
X107970500Y-129341288D01*
X107970500Y-129098712D01*
X107938838Y-128858211D01*
X107876054Y-128623900D01*
X107783224Y-128399788D01*
X107661936Y-128189711D01*
X107514265Y-127997262D01*
X107514260Y-127997256D01*
X107342743Y-127825739D01*
X107342736Y-127825733D01*
X107150293Y-127678067D01*
X107150292Y-127678066D01*
X107150289Y-127678064D01*
X106940212Y-127556776D01*
X106940205Y-127556773D01*
X106716104Y-127463947D01*
X106481785Y-127401161D01*
X106241289Y-127369500D01*
X106241288Y-127369500D01*
X105998712Y-127369500D01*
X105998711Y-127369500D01*
X105758214Y-127401161D01*
X105523895Y-127463947D01*
X105299794Y-127556773D01*
X105299785Y-127556777D01*
X105089706Y-127678067D01*
X104897263Y-127825733D01*
X104897256Y-127825739D01*
X104725739Y-127997256D01*
X104725733Y-127997263D01*
X104578067Y-128189706D01*
X104456777Y-128399785D01*
X104456773Y-128399794D01*
X104363947Y-128623895D01*
X104301161Y-128858214D01*
X104269500Y-129098711D01*
X30606889Y-129098711D01*
X30588922Y-124083389D01*
X36249500Y-124083389D01*
X36249500Y-124256611D01*
X36276598Y-124427701D01*
X36330127Y-124592445D01*
X36408768Y-124746788D01*
X36510586Y-124886928D01*
X36633072Y-125009414D01*
X36773212Y-125111232D01*
X36927555Y-125189873D01*
X37092299Y-125243402D01*
X37263389Y-125270500D01*
X37263390Y-125270500D01*
X37436610Y-125270500D01*
X37436611Y-125270500D01*
X37607701Y-125243402D01*
X37772445Y-125189873D01*
X37926788Y-125111232D01*
X38066928Y-125009414D01*
X38189414Y-124886928D01*
X38291232Y-124746788D01*
X38369873Y-124592445D01*
X38423402Y-124427701D01*
X38450500Y-124256611D01*
X38450500Y-124083389D01*
X38440854Y-124022486D01*
X40179500Y-124022486D01*
X40179500Y-124317513D01*
X40211571Y-124561113D01*
X40218007Y-124609993D01*
X40292212Y-124886930D01*
X40294361Y-124894951D01*
X40294364Y-124894961D01*
X40407254Y-125167500D01*
X40407258Y-125167510D01*
X40554761Y-125422993D01*
X40734352Y-125657040D01*
X40734358Y-125657047D01*
X40942952Y-125865641D01*
X40942959Y-125865647D01*
X41177006Y-126045238D01*
X41432489Y-126192741D01*
X41432490Y-126192741D01*
X41432493Y-126192743D01*
X41705048Y-126305639D01*
X41990007Y-126381993D01*
X42282494Y-126420500D01*
X42282501Y-126420500D01*
X42577499Y-126420500D01*
X42577506Y-126420500D01*
X42869993Y-126381993D01*
X43154952Y-126305639D01*
X43427507Y-126192743D01*
X43682994Y-126045238D01*
X43917042Y-125865646D01*
X44125646Y-125657042D01*
X44305238Y-125422994D01*
X44452743Y-125167507D01*
X44565639Y-124894952D01*
X44641993Y-124609993D01*
X44680500Y-124317506D01*
X44680500Y-124083389D01*
X46409500Y-124083389D01*
X46409500Y-124256611D01*
X46436598Y-124427701D01*
X46490127Y-124592445D01*
X46568768Y-124746788D01*
X46670586Y-124886928D01*
X46793072Y-125009414D01*
X46933212Y-125111232D01*
X47087555Y-125189873D01*
X47252299Y-125243402D01*
X47423389Y-125270500D01*
X47423390Y-125270500D01*
X47596610Y-125270500D01*
X47596611Y-125270500D01*
X47767701Y-125243402D01*
X47932445Y-125189873D01*
X48086788Y-125111232D01*
X48226928Y-125009414D01*
X48349414Y-124886928D01*
X48451232Y-124746788D01*
X48529873Y-124592445D01*
X48583402Y-124427701D01*
X48610500Y-124256611D01*
X48610500Y-124083389D01*
X55299500Y-124083389D01*
X55299500Y-124256611D01*
X55326598Y-124427701D01*
X55380127Y-124592445D01*
X55458768Y-124746788D01*
X55560586Y-124886928D01*
X55683072Y-125009414D01*
X55823212Y-125111232D01*
X55977555Y-125189873D01*
X56142299Y-125243402D01*
X56313389Y-125270500D01*
X56313390Y-125270500D01*
X56486610Y-125270500D01*
X56486611Y-125270500D01*
X56657701Y-125243402D01*
X56822445Y-125189873D01*
X56976788Y-125111232D01*
X57116928Y-125009414D01*
X57239414Y-124886928D01*
X57341232Y-124746788D01*
X57419873Y-124592445D01*
X57473402Y-124427701D01*
X57500500Y-124256611D01*
X57500500Y-124083389D01*
X57490854Y-124022486D01*
X59229500Y-124022486D01*
X59229500Y-124317513D01*
X59261571Y-124561113D01*
X59268007Y-124609993D01*
X59342212Y-124886930D01*
X59344361Y-124894951D01*
X59344364Y-124894961D01*
X59457254Y-125167500D01*
X59457258Y-125167510D01*
X59604761Y-125422993D01*
X59784352Y-125657040D01*
X59784358Y-125657047D01*
X59992952Y-125865641D01*
X59992959Y-125865647D01*
X60227006Y-126045238D01*
X60482489Y-126192741D01*
X60482490Y-126192741D01*
X60482493Y-126192743D01*
X60755048Y-126305639D01*
X61040007Y-126381993D01*
X61332494Y-126420500D01*
X61332501Y-126420500D01*
X61627499Y-126420500D01*
X61627506Y-126420500D01*
X61919993Y-126381993D01*
X62204952Y-126305639D01*
X62477507Y-126192743D01*
X62732994Y-126045238D01*
X62967042Y-125865646D01*
X63175646Y-125657042D01*
X63355238Y-125422994D01*
X63502743Y-125167507D01*
X63615639Y-124894952D01*
X63691993Y-124609993D01*
X63730500Y-124317506D01*
X63730500Y-124083389D01*
X65459500Y-124083389D01*
X65459500Y-124256611D01*
X65486598Y-124427701D01*
X65540127Y-124592445D01*
X65618768Y-124746788D01*
X65720586Y-124886928D01*
X65843072Y-125009414D01*
X65983212Y-125111232D01*
X66137555Y-125189873D01*
X66302299Y-125243402D01*
X66473389Y-125270500D01*
X66473390Y-125270500D01*
X66646610Y-125270500D01*
X66646611Y-125270500D01*
X66817701Y-125243402D01*
X66982445Y-125189873D01*
X67136788Y-125111232D01*
X67276928Y-125009414D01*
X67399414Y-124886928D01*
X67501232Y-124746788D01*
X67579873Y-124592445D01*
X67633402Y-124427701D01*
X67660500Y-124256611D01*
X67660500Y-124083389D01*
X74349500Y-124083389D01*
X74349500Y-124256611D01*
X74376598Y-124427701D01*
X74430127Y-124592445D01*
X74508768Y-124746788D01*
X74610586Y-124886928D01*
X74733072Y-125009414D01*
X74873212Y-125111232D01*
X75027555Y-125189873D01*
X75192299Y-125243402D01*
X75363389Y-125270500D01*
X75363390Y-125270500D01*
X75536610Y-125270500D01*
X75536611Y-125270500D01*
X75707701Y-125243402D01*
X75872445Y-125189873D01*
X76026788Y-125111232D01*
X76166928Y-125009414D01*
X76289414Y-124886928D01*
X76391232Y-124746788D01*
X76469873Y-124592445D01*
X76523402Y-124427701D01*
X76550500Y-124256611D01*
X76550500Y-124083389D01*
X76540854Y-124022486D01*
X78279500Y-124022486D01*
X78279500Y-124317513D01*
X78311571Y-124561113D01*
X78318007Y-124609993D01*
X78392212Y-124886930D01*
X78394361Y-124894951D01*
X78394364Y-124894961D01*
X78507254Y-125167500D01*
X78507258Y-125167510D01*
X78654761Y-125422993D01*
X78834352Y-125657040D01*
X78834358Y-125657047D01*
X79042952Y-125865641D01*
X79042959Y-125865647D01*
X79277006Y-126045238D01*
X79532489Y-126192741D01*
X79532490Y-126192741D01*
X79532493Y-126192743D01*
X79805048Y-126305639D01*
X80090007Y-126381993D01*
X80382494Y-126420500D01*
X80382501Y-126420500D01*
X80677499Y-126420500D01*
X80677506Y-126420500D01*
X80969993Y-126381993D01*
X81254952Y-126305639D01*
X81527507Y-126192743D01*
X81782994Y-126045238D01*
X82017042Y-125865646D01*
X82225646Y-125657042D01*
X82405238Y-125422994D01*
X82552743Y-125167507D01*
X82665639Y-124894952D01*
X82741993Y-124609993D01*
X82780500Y-124317506D01*
X82780500Y-124083389D01*
X84509500Y-124083389D01*
X84509500Y-124256611D01*
X84536598Y-124427701D01*
X84590127Y-124592445D01*
X84668768Y-124746788D01*
X84770586Y-124886928D01*
X84893072Y-125009414D01*
X85033212Y-125111232D01*
X85187555Y-125189873D01*
X85352299Y-125243402D01*
X85523389Y-125270500D01*
X85523390Y-125270500D01*
X85696610Y-125270500D01*
X85696611Y-125270500D01*
X85867701Y-125243402D01*
X86032445Y-125189873D01*
X86186788Y-125111232D01*
X86326928Y-125009414D01*
X86449414Y-124886928D01*
X86551232Y-124746788D01*
X86629873Y-124592445D01*
X86683402Y-124427701D01*
X86710500Y-124256611D01*
X86710500Y-124083389D01*
X86683402Y-123912299D01*
X86629873Y-123747555D01*
X86551232Y-123593212D01*
X86449414Y-123453072D01*
X86326928Y-123330586D01*
X86186788Y-123228768D01*
X86032445Y-123150127D01*
X85867701Y-123096598D01*
X85867699Y-123096597D01*
X85867698Y-123096597D01*
X85736271Y-123075781D01*
X85696611Y-123069500D01*
X85523389Y-123069500D01*
X85483728Y-123075781D01*
X85352302Y-123096597D01*
X85187552Y-123150128D01*
X85033211Y-123228768D01*
X84977115Y-123269525D01*
X84893072Y-123330586D01*
X84893070Y-123330588D01*
X84893069Y-123330588D01*
X84770588Y-123453069D01*
X84770588Y-123453070D01*
X84770586Y-123453072D01*
X84726859Y-123513256D01*
X84668768Y-123593211D01*
X84590128Y-123747552D01*
X84536597Y-123912302D01*
X84509500Y-124083389D01*
X82780500Y-124083389D01*
X82780500Y-124022494D01*
X82741993Y-123730007D01*
X82665639Y-123445048D01*
X82552743Y-123172493D01*
X82502604Y-123085650D01*
X82405238Y-122917006D01*
X82225647Y-122682959D01*
X82225641Y-122682952D01*
X82017047Y-122474358D01*
X82017040Y-122474352D01*
X81782993Y-122294761D01*
X81527510Y-122147258D01*
X81527500Y-122147254D01*
X81254961Y-122034364D01*
X81254954Y-122034362D01*
X81254952Y-122034361D01*
X80969993Y-121958007D01*
X80921113Y-121951571D01*
X80677513Y-121919500D01*
X80677506Y-121919500D01*
X80382494Y-121919500D01*
X80382486Y-121919500D01*
X80104085Y-121956153D01*
X80090007Y-121958007D01*
X79915861Y-122004669D01*
X79805048Y-122034361D01*
X79805038Y-122034364D01*
X79532499Y-122147254D01*
X79532489Y-122147258D01*
X79277006Y-122294761D01*
X79042959Y-122474352D01*
X79042952Y-122474358D01*
X78834358Y-122682952D01*
X78834352Y-122682959D01*
X78654761Y-122917006D01*
X78507258Y-123172489D01*
X78507254Y-123172499D01*
X78394364Y-123445038D01*
X78394361Y-123445048D01*
X78318008Y-123730004D01*
X78318006Y-123730015D01*
X78279500Y-124022486D01*
X76540854Y-124022486D01*
X76523402Y-123912299D01*
X76469873Y-123747555D01*
X76391232Y-123593212D01*
X76289414Y-123453072D01*
X76236882Y-123400540D01*
X76203397Y-123339217D01*
X76208381Y-123269525D01*
X76250253Y-123213592D01*
X76315717Y-123189175D01*
X76343961Y-123190386D01*
X76594072Y-123230000D01*
X76845928Y-123230000D01*
X77094669Y-123190602D01*
X77334184Y-123112780D01*
X77558575Y-122998446D01*
X77558581Y-122998442D01*
X77660697Y-122924250D01*
X77660698Y-122924250D01*
X77044025Y-122307578D01*
X77075258Y-122294641D01*
X77198097Y-122212563D01*
X77302563Y-122108097D01*
X77384641Y-121985258D01*
X77397578Y-121954025D01*
X78014250Y-122570698D01*
X78014250Y-122570697D01*
X78088442Y-122468581D01*
X78088446Y-122468575D01*
X78202780Y-122244184D01*
X78280602Y-122004669D01*
X78320000Y-121755928D01*
X78320000Y-121504071D01*
X78280602Y-121255330D01*
X78202780Y-121015815D01*
X78088442Y-120791416D01*
X78014250Y-120689301D01*
X78014250Y-120689300D01*
X77397577Y-121305973D01*
X77384641Y-121274742D01*
X77302563Y-121151903D01*
X77198097Y-121047437D01*
X77075258Y-120965359D01*
X77044024Y-120952421D01*
X77660698Y-120335748D01*
X77558583Y-120261557D01*
X77334184Y-120147219D01*
X77094669Y-120069397D01*
X76845928Y-120030000D01*
X76594072Y-120030000D01*
X76345330Y-120069397D01*
X76105815Y-120147219D01*
X75881413Y-120261559D01*
X75779301Y-120335747D01*
X75779300Y-120335748D01*
X76395974Y-120952421D01*
X76364742Y-120965359D01*
X76241903Y-121047437D01*
X76137437Y-121151903D01*
X76055359Y-121274742D01*
X76042421Y-121305974D01*
X75425748Y-120689300D01*
X75425747Y-120689301D01*
X75351559Y-120791413D01*
X75237219Y-121015815D01*
X75159397Y-121255330D01*
X75120000Y-121504071D01*
X75120000Y-121755928D01*
X75159397Y-122004669D01*
X75237219Y-122244184D01*
X75351557Y-122468583D01*
X75425748Y-122570697D01*
X75425748Y-122570698D01*
X76042421Y-121954024D01*
X76055359Y-121985258D01*
X76137437Y-122108097D01*
X76241903Y-122212563D01*
X76364742Y-122294641D01*
X76395974Y-122307577D01*
X75779300Y-122924250D01*
X75781598Y-122953449D01*
X75767233Y-123021827D01*
X75718181Y-123071583D01*
X75650016Y-123086921D01*
X75638583Y-123085650D01*
X75536611Y-123069500D01*
X75363389Y-123069500D01*
X75323728Y-123075781D01*
X75192302Y-123096597D01*
X75027552Y-123150128D01*
X74873211Y-123228768D01*
X74817115Y-123269525D01*
X74733072Y-123330586D01*
X74733070Y-123330588D01*
X74733069Y-123330588D01*
X74610588Y-123453069D01*
X74610588Y-123453070D01*
X74610586Y-123453072D01*
X74566859Y-123513256D01*
X74508768Y-123593211D01*
X74430128Y-123747552D01*
X74376597Y-123912302D01*
X74349500Y-124083389D01*
X67660500Y-124083389D01*
X67633402Y-123912299D01*
X67579873Y-123747555D01*
X67501232Y-123593212D01*
X67399414Y-123453072D01*
X67276928Y-123330586D01*
X67136788Y-123228768D01*
X66982445Y-123150127D01*
X66817701Y-123096598D01*
X66817699Y-123096597D01*
X66817698Y-123096597D01*
X66686271Y-123075781D01*
X66646611Y-123069500D01*
X66473389Y-123069500D01*
X66433728Y-123075781D01*
X66302302Y-123096597D01*
X66137552Y-123150128D01*
X65983211Y-123228768D01*
X65927115Y-123269525D01*
X65843072Y-123330586D01*
X65843070Y-123330588D01*
X65843069Y-123330588D01*
X65720588Y-123453069D01*
X65720588Y-123453070D01*
X65720586Y-123453072D01*
X65676859Y-123513256D01*
X65618768Y-123593211D01*
X65540128Y-123747552D01*
X65486597Y-123912302D01*
X65459500Y-124083389D01*
X63730500Y-124083389D01*
X63730500Y-124022494D01*
X63691993Y-123730007D01*
X63615639Y-123445048D01*
X63502743Y-123172493D01*
X63452604Y-123085650D01*
X63355238Y-122917006D01*
X63175647Y-122682959D01*
X63175641Y-122682952D01*
X62967047Y-122474358D01*
X62967040Y-122474352D01*
X62732993Y-122294761D01*
X62477510Y-122147258D01*
X62477500Y-122147254D01*
X62204961Y-122034364D01*
X62204954Y-122034362D01*
X62204952Y-122034361D01*
X61919993Y-121958007D01*
X61871113Y-121951571D01*
X61627513Y-121919500D01*
X61627506Y-121919500D01*
X61332494Y-121919500D01*
X61332486Y-121919500D01*
X61054085Y-121956153D01*
X61040007Y-121958007D01*
X60865861Y-122004669D01*
X60755048Y-122034361D01*
X60755038Y-122034364D01*
X60482499Y-122147254D01*
X60482489Y-122147258D01*
X60227006Y-122294761D01*
X59992959Y-122474352D01*
X59992952Y-122474358D01*
X59784358Y-122682952D01*
X59784352Y-122682959D01*
X59604761Y-122917006D01*
X59457258Y-123172489D01*
X59457254Y-123172499D01*
X59344364Y-123445038D01*
X59344361Y-123445048D01*
X59268008Y-123730004D01*
X59268006Y-123730015D01*
X59229500Y-124022486D01*
X57490854Y-124022486D01*
X57473402Y-123912299D01*
X57419873Y-123747555D01*
X57341232Y-123593212D01*
X57239414Y-123453072D01*
X57187482Y-123401140D01*
X57153997Y-123339817D01*
X57158981Y-123270125D01*
X57200853Y-123214192D01*
X57266317Y-123189775D01*
X57294561Y-123190986D01*
X57295212Y-123191089D01*
X57295215Y-123191090D01*
X57544038Y-123230500D01*
X57544039Y-123230500D01*
X57795961Y-123230500D01*
X57795962Y-123230500D01*
X58044785Y-123191090D01*
X58284379Y-123113241D01*
X58508845Y-122998870D01*
X58712656Y-122850793D01*
X58890793Y-122672656D01*
X59038870Y-122468845D01*
X59153241Y-122244379D01*
X59231090Y-122004785D01*
X59270500Y-121755962D01*
X59270500Y-121504038D01*
X59231090Y-121255215D01*
X59153241Y-121015621D01*
X59153239Y-121015618D01*
X59153239Y-121015616D01*
X59098824Y-120908822D01*
X59038870Y-120791155D01*
X58956030Y-120677135D01*
X58890798Y-120587350D01*
X58890794Y-120587345D01*
X58712654Y-120409205D01*
X58712649Y-120409201D01*
X58508848Y-120261132D01*
X58508847Y-120261131D01*
X58508845Y-120261130D01*
X58436956Y-120224501D01*
X58284383Y-120146760D01*
X58044785Y-120068910D01*
X57795962Y-120029500D01*
X57544038Y-120029500D01*
X57419626Y-120049205D01*
X57295214Y-120068910D01*
X57055616Y-120146760D01*
X56831151Y-120261132D01*
X56627350Y-120409201D01*
X56627345Y-120409205D01*
X56449205Y-120587345D01*
X56449201Y-120587350D01*
X56301132Y-120791151D01*
X56186760Y-121015616D01*
X56108910Y-121255214D01*
X56069500Y-121504038D01*
X56069500Y-121755961D01*
X56108910Y-122004785D01*
X56186760Y-122244383D01*
X56255861Y-122380000D01*
X56300995Y-122468581D01*
X56301132Y-122468848D01*
X56449201Y-122672649D01*
X56449205Y-122672654D01*
X56449207Y-122672656D01*
X56627344Y-122850793D01*
X56627345Y-122850794D01*
X56627344Y-122850794D01*
X56633661Y-122855383D01*
X56676327Y-122910714D01*
X56682305Y-122980327D01*
X56649699Y-123042122D01*
X56588860Y-123076479D01*
X56541378Y-123078174D01*
X56486611Y-123069500D01*
X56313389Y-123069500D01*
X56273728Y-123075781D01*
X56142302Y-123096597D01*
X55977552Y-123150128D01*
X55823211Y-123228768D01*
X55767115Y-123269525D01*
X55683072Y-123330586D01*
X55683070Y-123330588D01*
X55683069Y-123330588D01*
X55560588Y-123453069D01*
X55560588Y-123453070D01*
X55560586Y-123453072D01*
X55516859Y-123513256D01*
X55458768Y-123593211D01*
X55380128Y-123747552D01*
X55326597Y-123912302D01*
X55299500Y-124083389D01*
X48610500Y-124083389D01*
X48583402Y-123912299D01*
X48529873Y-123747555D01*
X48451232Y-123593212D01*
X48349414Y-123453072D01*
X48226928Y-123330586D01*
X48086788Y-123228768D01*
X47932445Y-123150127D01*
X47767701Y-123096598D01*
X47767699Y-123096597D01*
X47767698Y-123096597D01*
X47636271Y-123075781D01*
X47596611Y-123069500D01*
X47423389Y-123069500D01*
X47383728Y-123075781D01*
X47252302Y-123096597D01*
X47087552Y-123150128D01*
X46933211Y-123228768D01*
X46877115Y-123269525D01*
X46793072Y-123330586D01*
X46793070Y-123330588D01*
X46793069Y-123330588D01*
X46670588Y-123453069D01*
X46670588Y-123453070D01*
X46670586Y-123453072D01*
X46626859Y-123513256D01*
X46568768Y-123593211D01*
X46490128Y-123747552D01*
X46436597Y-123912302D01*
X46409500Y-124083389D01*
X44680500Y-124083389D01*
X44680500Y-124022494D01*
X44641993Y-123730007D01*
X44565639Y-123445048D01*
X44452743Y-123172493D01*
X44402604Y-123085650D01*
X44305238Y-122917006D01*
X44125647Y-122682959D01*
X44125641Y-122682952D01*
X43917047Y-122474358D01*
X43917040Y-122474352D01*
X43682993Y-122294761D01*
X43427510Y-122147258D01*
X43427500Y-122147254D01*
X43154961Y-122034364D01*
X43154954Y-122034362D01*
X43154952Y-122034361D01*
X42869993Y-121958007D01*
X42821113Y-121951571D01*
X42577513Y-121919500D01*
X42577506Y-121919500D01*
X42282494Y-121919500D01*
X42282486Y-121919500D01*
X42004085Y-121956153D01*
X41990007Y-121958007D01*
X41815861Y-122004669D01*
X41705048Y-122034361D01*
X41705038Y-122034364D01*
X41432499Y-122147254D01*
X41432489Y-122147258D01*
X41177006Y-122294761D01*
X40942959Y-122474352D01*
X40942952Y-122474358D01*
X40734358Y-122682952D01*
X40734352Y-122682959D01*
X40554761Y-122917006D01*
X40407258Y-123172489D01*
X40407254Y-123172499D01*
X40294364Y-123445038D01*
X40294361Y-123445048D01*
X40218008Y-123730004D01*
X40218006Y-123730015D01*
X40179500Y-124022486D01*
X38440854Y-124022486D01*
X38423402Y-123912299D01*
X38369873Y-123747555D01*
X38291232Y-123593212D01*
X38189414Y-123453072D01*
X38137482Y-123401140D01*
X38103997Y-123339817D01*
X38108981Y-123270125D01*
X38150853Y-123214192D01*
X38216317Y-123189775D01*
X38244561Y-123190986D01*
X38245212Y-123191089D01*
X38245215Y-123191090D01*
X38494038Y-123230500D01*
X38494039Y-123230500D01*
X38745961Y-123230500D01*
X38745962Y-123230500D01*
X38994785Y-123191090D01*
X39234379Y-123113241D01*
X39458845Y-122998870D01*
X39662656Y-122850793D01*
X39840793Y-122672656D01*
X39988870Y-122468845D01*
X40103241Y-122244379D01*
X40181090Y-122004785D01*
X40220500Y-121755962D01*
X40220500Y-121504038D01*
X40181090Y-121255215D01*
X40103241Y-121015621D01*
X40103239Y-121015618D01*
X40103239Y-121015616D01*
X40048824Y-120908822D01*
X39988870Y-120791155D01*
X39906030Y-120677135D01*
X39840798Y-120587350D01*
X39840794Y-120587345D01*
X39662654Y-120409205D01*
X39662649Y-120409201D01*
X39458848Y-120261132D01*
X39458847Y-120261131D01*
X39458845Y-120261130D01*
X39386956Y-120224501D01*
X39234383Y-120146760D01*
X38994785Y-120068910D01*
X38745962Y-120029500D01*
X38494038Y-120029500D01*
X38369626Y-120049205D01*
X38245214Y-120068910D01*
X38005616Y-120146760D01*
X37781151Y-120261132D01*
X37577350Y-120409201D01*
X37577345Y-120409205D01*
X37399205Y-120587345D01*
X37399201Y-120587350D01*
X37251132Y-120791151D01*
X37136760Y-121015616D01*
X37058910Y-121255214D01*
X37019500Y-121504038D01*
X37019500Y-121755961D01*
X37058910Y-122004785D01*
X37136760Y-122244383D01*
X37205861Y-122380000D01*
X37250995Y-122468581D01*
X37251132Y-122468848D01*
X37399201Y-122672649D01*
X37399205Y-122672654D01*
X37399207Y-122672656D01*
X37577344Y-122850793D01*
X37577345Y-122850794D01*
X37577344Y-122850794D01*
X37583661Y-122855383D01*
X37626327Y-122910714D01*
X37632305Y-122980327D01*
X37599699Y-123042122D01*
X37538860Y-123076479D01*
X37491378Y-123078174D01*
X37436611Y-123069500D01*
X37263389Y-123069500D01*
X37223728Y-123075781D01*
X37092302Y-123096597D01*
X36927552Y-123150128D01*
X36773211Y-123228768D01*
X36717115Y-123269525D01*
X36633072Y-123330586D01*
X36633070Y-123330588D01*
X36633069Y-123330588D01*
X36510588Y-123453069D01*
X36510588Y-123453070D01*
X36510586Y-123453072D01*
X36466859Y-123513256D01*
X36408768Y-123593211D01*
X36330128Y-123747552D01*
X36276597Y-123912302D01*
X36249500Y-124083389D01*
X30588922Y-124083389D01*
X30579406Y-121427183D01*
X30570583Y-118964071D01*
X43370000Y-118964071D01*
X43370000Y-119215928D01*
X43409397Y-119464669D01*
X43487219Y-119704184D01*
X43601557Y-119928583D01*
X43675748Y-120030697D01*
X43675748Y-120030698D01*
X44292421Y-119414024D01*
X44305359Y-119445258D01*
X44387437Y-119568097D01*
X44491903Y-119672563D01*
X44614742Y-119754641D01*
X44645974Y-119767577D01*
X44029300Y-120384250D01*
X44131416Y-120458442D01*
X44355815Y-120572780D01*
X44595330Y-120650602D01*
X44844072Y-120690000D01*
X45095928Y-120690000D01*
X45344669Y-120650602D01*
X45584184Y-120572780D01*
X45808575Y-120458446D01*
X45808581Y-120458442D01*
X45910697Y-120384250D01*
X45910698Y-120384250D01*
X45294025Y-119767578D01*
X45325258Y-119754641D01*
X45448097Y-119672563D01*
X45552563Y-119568097D01*
X45634641Y-119445258D01*
X45647577Y-119414025D01*
X46264250Y-120030698D01*
X46264250Y-120030697D01*
X46338442Y-119928581D01*
X46338446Y-119928575D01*
X46452780Y-119704184D01*
X46530602Y-119464669D01*
X46570000Y-119215928D01*
X46570000Y-118964071D01*
X62420000Y-118964071D01*
X62420000Y-119215928D01*
X62459397Y-119464669D01*
X62537219Y-119704184D01*
X62651557Y-119928583D01*
X62725748Y-120030697D01*
X62725748Y-120030698D01*
X63342421Y-119414024D01*
X63355359Y-119445258D01*
X63437437Y-119568097D01*
X63541903Y-119672563D01*
X63664742Y-119754641D01*
X63695974Y-119767577D01*
X63079300Y-120384250D01*
X63181416Y-120458442D01*
X63405815Y-120572780D01*
X63645330Y-120650602D01*
X63894072Y-120690000D01*
X64145928Y-120690000D01*
X64394669Y-120650602D01*
X64634184Y-120572780D01*
X64858575Y-120458446D01*
X64858581Y-120458442D01*
X64960697Y-120384250D01*
X64960697Y-120384249D01*
X64344025Y-119767578D01*
X64375258Y-119754641D01*
X64498097Y-119672563D01*
X64602563Y-119568097D01*
X64684641Y-119445258D01*
X64697577Y-119414025D01*
X65314250Y-120030698D01*
X65314250Y-120030697D01*
X65388442Y-119928581D01*
X65388446Y-119928575D01*
X65502780Y-119704184D01*
X65580602Y-119464669D01*
X65620000Y-119215928D01*
X65620000Y-118964071D01*
X65619995Y-118964038D01*
X81469500Y-118964038D01*
X81469500Y-119215961D01*
X81508910Y-119464785D01*
X81586760Y-119704383D01*
X81655861Y-119840000D01*
X81700995Y-119928581D01*
X81701132Y-119928848D01*
X81849201Y-120132649D01*
X81849205Y-120132654D01*
X82027345Y-120310794D01*
X82027350Y-120310798D01*
X82205117Y-120439952D01*
X82231155Y-120458870D01*
X82374184Y-120531747D01*
X82455616Y-120573239D01*
X82455618Y-120573239D01*
X82455621Y-120573241D01*
X82695215Y-120651090D01*
X82944038Y-120690500D01*
X82944039Y-120690500D01*
X83195961Y-120690500D01*
X83195962Y-120690500D01*
X83280345Y-120677135D01*
X99834500Y-120677135D01*
X99834500Y-122772870D01*
X99834501Y-122772876D01*
X99840908Y-122832483D01*
X99891202Y-122967328D01*
X99891206Y-122967335D01*
X99977452Y-123082544D01*
X99977455Y-123082547D01*
X100092664Y-123168793D01*
X100092671Y-123168797D01*
X100227517Y-123219091D01*
X100227516Y-123219091D01*
X100234444Y-123219835D01*
X100287127Y-123225500D01*
X103582872Y-123225499D01*
X103642483Y-123219091D01*
X103777331Y-123168796D01*
X103892546Y-123082546D01*
X103978796Y-122967331D01*
X104029091Y-122832483D01*
X104035500Y-122772873D01*
X104035499Y-120677128D01*
X104029091Y-120617517D01*
X104017839Y-120587350D01*
X103978797Y-120482671D01*
X103978793Y-120482664D01*
X103892547Y-120367455D01*
X103892544Y-120367452D01*
X103777335Y-120281206D01*
X103777328Y-120281202D01*
X103642482Y-120230908D01*
X103642483Y-120230908D01*
X103582883Y-120224501D01*
X103582881Y-120224500D01*
X103582873Y-120224500D01*
X103582864Y-120224500D01*
X100287129Y-120224500D01*
X100287123Y-120224501D01*
X100227516Y-120230908D01*
X100092671Y-120281202D01*
X100092664Y-120281206D01*
X99977455Y-120367452D01*
X99977452Y-120367455D01*
X99891206Y-120482664D01*
X99891202Y-120482671D01*
X99840908Y-120617517D01*
X99837299Y-120651089D01*
X99834501Y-120677123D01*
X99834500Y-120677135D01*
X83280345Y-120677135D01*
X83444785Y-120651090D01*
X83684379Y-120573241D01*
X83685284Y-120572780D01*
X83703847Y-120563322D01*
X83703848Y-120563321D01*
X83908845Y-120458870D01*
X84112656Y-120310793D01*
X84290793Y-120132656D01*
X84438870Y-119928845D01*
X84553241Y-119704379D01*
X84631090Y-119464785D01*
X84670500Y-119215962D01*
X84670500Y-118964038D01*
X84631090Y-118715215D01*
X84553241Y-118475621D01*
X84553239Y-118475618D01*
X84553239Y-118475616D01*
X84498824Y-118368822D01*
X84438870Y-118251155D01*
X84361726Y-118144975D01*
X84290798Y-118047350D01*
X84290794Y-118047345D01*
X84112654Y-117869205D01*
X84112649Y-117869201D01*
X83908848Y-117721132D01*
X83908847Y-117721131D01*
X83908845Y-117721130D01*
X83810797Y-117671172D01*
X83684383Y-117606760D01*
X83444785Y-117528910D01*
X83195962Y-117489500D01*
X82944038Y-117489500D01*
X82819626Y-117509205D01*
X82695214Y-117528910D01*
X82455616Y-117606760D01*
X82231151Y-117721132D01*
X82027350Y-117869201D01*
X82027345Y-117869205D01*
X81849205Y-118047345D01*
X81849201Y-118047350D01*
X81701132Y-118251151D01*
X81586760Y-118475616D01*
X81508910Y-118715214D01*
X81469500Y-118964038D01*
X65619995Y-118964038D01*
X65580602Y-118715330D01*
X65502780Y-118475815D01*
X65388442Y-118251416D01*
X65314250Y-118149301D01*
X65314250Y-118149300D01*
X64697577Y-118765973D01*
X64684641Y-118734742D01*
X64602563Y-118611903D01*
X64498097Y-118507437D01*
X64375258Y-118425359D01*
X64344024Y-118412421D01*
X64960698Y-117795748D01*
X64858583Y-117721557D01*
X64634184Y-117607219D01*
X64394669Y-117529397D01*
X64145928Y-117490000D01*
X63894072Y-117490000D01*
X63645330Y-117529397D01*
X63405815Y-117607219D01*
X63181413Y-117721559D01*
X63079301Y-117795747D01*
X63079300Y-117795748D01*
X63695974Y-118412421D01*
X63664742Y-118425359D01*
X63541903Y-118507437D01*
X63437437Y-118611903D01*
X63355359Y-118734742D01*
X63342421Y-118765974D01*
X62725748Y-118149300D01*
X62725747Y-118149301D01*
X62651559Y-118251413D01*
X62537219Y-118475815D01*
X62459397Y-118715330D01*
X62420000Y-118964071D01*
X46570000Y-118964071D01*
X46530602Y-118715330D01*
X46452780Y-118475815D01*
X46338442Y-118251416D01*
X46264250Y-118149301D01*
X46264250Y-118149300D01*
X45647577Y-118765973D01*
X45634641Y-118734742D01*
X45552563Y-118611903D01*
X45448097Y-118507437D01*
X45325258Y-118425359D01*
X45294024Y-118412421D01*
X45910698Y-117795748D01*
X45808583Y-117721557D01*
X45584184Y-117607219D01*
X45344669Y-117529397D01*
X45095928Y-117490000D01*
X44844072Y-117490000D01*
X44595330Y-117529397D01*
X44355815Y-117607219D01*
X44131413Y-117721559D01*
X44029301Y-117795747D01*
X44029300Y-117795748D01*
X44645974Y-118412421D01*
X44614742Y-118425359D01*
X44491903Y-118507437D01*
X44387437Y-118611903D01*
X44305359Y-118734742D01*
X44292421Y-118765974D01*
X43675748Y-118149300D01*
X43675747Y-118149301D01*
X43601559Y-118251413D01*
X43487219Y-118475815D01*
X43409397Y-118715330D01*
X43370000Y-118964071D01*
X30570583Y-118964071D01*
X30570567Y-118959649D01*
X30567648Y-118144970D01*
X30560501Y-116149850D01*
X30560500Y-116149406D01*
X30560500Y-112577135D01*
X92934500Y-112577135D01*
X92934500Y-114672870D01*
X92934501Y-114672876D01*
X92940908Y-114732483D01*
X92991202Y-114867328D01*
X92991206Y-114867335D01*
X93077452Y-114982544D01*
X93077453Y-114982544D01*
X93077454Y-114982546D01*
X93131284Y-115022843D01*
X93195599Y-115070990D01*
X93237469Y-115126924D01*
X93242453Y-115196615D01*
X93221605Y-115243141D01*
X93152087Y-115338824D01*
X93044897Y-115549197D01*
X92971934Y-115773752D01*
X92935000Y-116006947D01*
X92935000Y-116243052D01*
X92971934Y-116476247D01*
X93044897Y-116700802D01*
X93152087Y-116911174D01*
X93212338Y-116994104D01*
X93212340Y-116994105D01*
X93952037Y-116254408D01*
X93969075Y-116317993D01*
X94034901Y-116432007D01*
X94127993Y-116525099D01*
X94242007Y-116590925D01*
X94305590Y-116607962D01*
X93559280Y-117354271D01*
X93550105Y-117397947D01*
X93513739Y-117439615D01*
X93457490Y-117480482D01*
X93290485Y-117647487D01*
X93290485Y-117647488D01*
X93290483Y-117647490D01*
X93273277Y-117671172D01*
X93151657Y-117838566D01*
X93044433Y-118049003D01*
X92971446Y-118273631D01*
X92934500Y-118506902D01*
X92934500Y-118743097D01*
X92971446Y-118976368D01*
X93044433Y-119200996D01*
X93099346Y-119308767D01*
X93151657Y-119411433D01*
X93290483Y-119602510D01*
X93457490Y-119769517D01*
X93648567Y-119908343D01*
X93747991Y-119959002D01*
X93859003Y-120015566D01*
X93859005Y-120015566D01*
X93859008Y-120015568D01*
X93979412Y-120054689D01*
X94083631Y-120088553D01*
X94316903Y-120125500D01*
X94316908Y-120125500D01*
X94553097Y-120125500D01*
X94786368Y-120088553D01*
X95010992Y-120015568D01*
X95221433Y-119908343D01*
X95412510Y-119769517D01*
X95579517Y-119602510D01*
X95718343Y-119411433D01*
X95825568Y-119200992D01*
X95898553Y-118976368D01*
X95915205Y-118871233D01*
X95935500Y-118743097D01*
X95935500Y-118526577D01*
X107684500Y-118526577D01*
X107684500Y-118723422D01*
X107715290Y-118917826D01*
X107776117Y-119105029D01*
X107865476Y-119280405D01*
X107981172Y-119439646D01*
X108120354Y-119578828D01*
X108279595Y-119694524D01*
X108298937Y-119704379D01*
X108454970Y-119783882D01*
X108454972Y-119783882D01*
X108454975Y-119783884D01*
X108538977Y-119811178D01*
X108642173Y-119844709D01*
X108836578Y-119875500D01*
X108836583Y-119875500D01*
X109033422Y-119875500D01*
X109227826Y-119844709D01*
X109242319Y-119840000D01*
X109415025Y-119783884D01*
X109590405Y-119694524D01*
X109749646Y-119578828D01*
X109888828Y-119439646D01*
X110004524Y-119280405D01*
X110093884Y-119105025D01*
X110154709Y-118917826D01*
X110162089Y-118871233D01*
X110185500Y-118723422D01*
X110185500Y-118526577D01*
X110154709Y-118332173D01*
X110126487Y-118245317D01*
X110093884Y-118144975D01*
X110093882Y-118144972D01*
X110093882Y-118144970D01*
X110004523Y-117969594D01*
X109888828Y-117810354D01*
X109749646Y-117671172D01*
X109590405Y-117555476D01*
X109539222Y-117529397D01*
X109415029Y-117466117D01*
X109227826Y-117405290D01*
X109033422Y-117374500D01*
X109033417Y-117374500D01*
X108836583Y-117374500D01*
X108836578Y-117374500D01*
X108642173Y-117405290D01*
X108454970Y-117466117D01*
X108279594Y-117555476D01*
X108209010Y-117606759D01*
X108120354Y-117671172D01*
X108120352Y-117671174D01*
X108120351Y-117671174D01*
X107981174Y-117810351D01*
X107981174Y-117810352D01*
X107981172Y-117810354D01*
X107960675Y-117838566D01*
X107865476Y-117969594D01*
X107776117Y-118144970D01*
X107715290Y-118332173D01*
X107684500Y-118526577D01*
X95935500Y-118526577D01*
X95935500Y-118506902D01*
X95898553Y-118273631D01*
X95825566Y-118049003D01*
X95733955Y-117869207D01*
X95718343Y-117838567D01*
X95579517Y-117647490D01*
X95412510Y-117480483D01*
X95356259Y-117439614D01*
X95313595Y-117384284D01*
X95308902Y-117352455D01*
X94564408Y-116607962D01*
X94627993Y-116590925D01*
X94742007Y-116525099D01*
X94835099Y-116432007D01*
X94900925Y-116317993D01*
X94917962Y-116254409D01*
X95657658Y-116994105D01*
X95657658Y-116994104D01*
X95717914Y-116911169D01*
X95717918Y-116911163D01*
X95825102Y-116700802D01*
X95898065Y-116476247D01*
X95935000Y-116243052D01*
X95935000Y-116006947D01*
X95898065Y-115773752D01*
X95825102Y-115549197D01*
X95717914Y-115338828D01*
X95648394Y-115243142D01*
X95624914Y-115177335D01*
X95640739Y-115109281D01*
X95674401Y-115070989D01*
X95677329Y-115068796D01*
X95677331Y-115068796D01*
X95792546Y-114982546D01*
X95878796Y-114867331D01*
X95929091Y-114732483D01*
X95935500Y-114672873D01*
X95935499Y-113526577D01*
X107684500Y-113526577D01*
X107684500Y-113723422D01*
X107715290Y-113917826D01*
X107776117Y-114105029D01*
X107865476Y-114280405D01*
X107981172Y-114439646D01*
X108120354Y-114578828D01*
X108279595Y-114694524D01*
X108354092Y-114732482D01*
X108454970Y-114783882D01*
X108454972Y-114783882D01*
X108454975Y-114783884D01*
X108555317Y-114816487D01*
X108642173Y-114844709D01*
X108836578Y-114875500D01*
X108836583Y-114875500D01*
X109033422Y-114875500D01*
X109227826Y-114844709D01*
X109415025Y-114783884D01*
X109590405Y-114694524D01*
X109749646Y-114578828D01*
X109888828Y-114439646D01*
X110004524Y-114280405D01*
X110093884Y-114105025D01*
X110154709Y-113917826D01*
X110185500Y-113723422D01*
X110185500Y-113526577D01*
X110154709Y-113332173D01*
X110093882Y-113144970D01*
X110004523Y-112969594D01*
X109888828Y-112810354D01*
X109749646Y-112671172D01*
X109590405Y-112555476D01*
X109415029Y-112466117D01*
X109227826Y-112405290D01*
X109033422Y-112374500D01*
X109033417Y-112374500D01*
X108836583Y-112374500D01*
X108836578Y-112374500D01*
X108642173Y-112405290D01*
X108454970Y-112466117D01*
X108279594Y-112555476D01*
X108188741Y-112621485D01*
X108120354Y-112671172D01*
X108120352Y-112671174D01*
X108120351Y-112671174D01*
X107981174Y-112810351D01*
X107981174Y-112810352D01*
X107981172Y-112810354D01*
X107931485Y-112878741D01*
X107865476Y-112969594D01*
X107776117Y-113144970D01*
X107715290Y-113332173D01*
X107684500Y-113526577D01*
X95935499Y-113526577D01*
X95935499Y-112577128D01*
X95929091Y-112517517D01*
X95887233Y-112405291D01*
X95878797Y-112382671D01*
X95878793Y-112382664D01*
X95792547Y-112267455D01*
X95792544Y-112267452D01*
X95677335Y-112181206D01*
X95677328Y-112181202D01*
X95542482Y-112130908D01*
X95542483Y-112130908D01*
X95482883Y-112124501D01*
X95482881Y-112124500D01*
X95482873Y-112124500D01*
X95482864Y-112124500D01*
X93387129Y-112124500D01*
X93387123Y-112124501D01*
X93327516Y-112130908D01*
X93192671Y-112181202D01*
X93192664Y-112181206D01*
X93077455Y-112267452D01*
X93077452Y-112267455D01*
X92991206Y-112382664D01*
X92991202Y-112382671D01*
X92940908Y-112517517D01*
X92934501Y-112577116D01*
X92934501Y-112577123D01*
X92934500Y-112577135D01*
X30560500Y-112577135D01*
X30560500Y-109477135D01*
X99834500Y-109477135D01*
X99834500Y-111572870D01*
X99834501Y-111572876D01*
X99840908Y-111632483D01*
X99891202Y-111767328D01*
X99891206Y-111767335D01*
X99977452Y-111882544D01*
X99977455Y-111882547D01*
X100092664Y-111968793D01*
X100092671Y-111968797D01*
X100227517Y-112019091D01*
X100227516Y-112019091D01*
X100234444Y-112019835D01*
X100287127Y-112025500D01*
X103582872Y-112025499D01*
X103642483Y-112019091D01*
X103777331Y-111968796D01*
X103892546Y-111882546D01*
X103978796Y-111767331D01*
X104029091Y-111632483D01*
X104035500Y-111572873D01*
X104035499Y-109477128D01*
X104029091Y-109417517D01*
X103978796Y-109282669D01*
X103978795Y-109282668D01*
X103978793Y-109282664D01*
X103892547Y-109167455D01*
X103892544Y-109167452D01*
X103777335Y-109081206D01*
X103777328Y-109081202D01*
X103642482Y-109030908D01*
X103642483Y-109030908D01*
X103582883Y-109024501D01*
X103582881Y-109024500D01*
X103582873Y-109024500D01*
X103582864Y-109024500D01*
X100287129Y-109024500D01*
X100287123Y-109024501D01*
X100227516Y-109030908D01*
X100092671Y-109081202D01*
X100092664Y-109081206D01*
X99977455Y-109167452D01*
X99977452Y-109167455D01*
X99891206Y-109282664D01*
X99891202Y-109282671D01*
X99840908Y-109417517D01*
X99834501Y-109477116D01*
X99834501Y-109477123D01*
X99834500Y-109477135D01*
X30560500Y-109477135D01*
X30560500Y-105033389D01*
X36249500Y-105033389D01*
X36249500Y-105206610D01*
X36263102Y-105292494D01*
X36276598Y-105377701D01*
X36330127Y-105542445D01*
X36408768Y-105696788D01*
X36510586Y-105836928D01*
X36633072Y-105959414D01*
X36773212Y-106061232D01*
X36927555Y-106139873D01*
X37092299Y-106193402D01*
X37263389Y-106220500D01*
X37263390Y-106220500D01*
X37436610Y-106220500D01*
X37436611Y-106220500D01*
X37607701Y-106193402D01*
X37772445Y-106139873D01*
X37926788Y-106061232D01*
X38066928Y-105959414D01*
X38189414Y-105836928D01*
X38291232Y-105696788D01*
X38369873Y-105542445D01*
X38423402Y-105377701D01*
X38450500Y-105206611D01*
X38450500Y-105033389D01*
X38440854Y-104972486D01*
X40179500Y-104972486D01*
X40179500Y-105267513D01*
X40211571Y-105511113D01*
X40218007Y-105559993D01*
X40292212Y-105836930D01*
X40294361Y-105844951D01*
X40294364Y-105844961D01*
X40407254Y-106117500D01*
X40407258Y-106117510D01*
X40554761Y-106372993D01*
X40734352Y-106607040D01*
X40734358Y-106607047D01*
X40942952Y-106815641D01*
X40942959Y-106815647D01*
X41177006Y-106995238D01*
X41432489Y-107142741D01*
X41432490Y-107142741D01*
X41432493Y-107142743D01*
X41705048Y-107255639D01*
X41990007Y-107331993D01*
X42282494Y-107370500D01*
X42282501Y-107370500D01*
X42577499Y-107370500D01*
X42577506Y-107370500D01*
X42869993Y-107331993D01*
X43154952Y-107255639D01*
X43427507Y-107142743D01*
X43682994Y-106995238D01*
X43917042Y-106815646D01*
X44125646Y-106607042D01*
X44305238Y-106372994D01*
X44452743Y-106117507D01*
X44565639Y-105844952D01*
X44641993Y-105559993D01*
X44680500Y-105267506D01*
X44680500Y-105033389D01*
X46409500Y-105033389D01*
X46409500Y-105206610D01*
X46423102Y-105292494D01*
X46436598Y-105377701D01*
X46490127Y-105542445D01*
X46568768Y-105696788D01*
X46670586Y-105836928D01*
X46793072Y-105959414D01*
X46933212Y-106061232D01*
X47087555Y-106139873D01*
X47252299Y-106193402D01*
X47423389Y-106220500D01*
X47423390Y-106220500D01*
X47596610Y-106220500D01*
X47596611Y-106220500D01*
X47767701Y-106193402D01*
X47932445Y-106139873D01*
X48086788Y-106061232D01*
X48226928Y-105959414D01*
X48349414Y-105836928D01*
X48451232Y-105696788D01*
X48529873Y-105542445D01*
X48583402Y-105377701D01*
X48610500Y-105206611D01*
X48610500Y-105033389D01*
X55299500Y-105033389D01*
X55299500Y-105206610D01*
X55313102Y-105292494D01*
X55326598Y-105377701D01*
X55380127Y-105542445D01*
X55458768Y-105696788D01*
X55560586Y-105836928D01*
X55683072Y-105959414D01*
X55823212Y-106061232D01*
X55977555Y-106139873D01*
X56142299Y-106193402D01*
X56313389Y-106220500D01*
X56313390Y-106220500D01*
X56486610Y-106220500D01*
X56486611Y-106220500D01*
X56657701Y-106193402D01*
X56822445Y-106139873D01*
X56976788Y-106061232D01*
X57116928Y-105959414D01*
X57239414Y-105836928D01*
X57341232Y-105696788D01*
X57419873Y-105542445D01*
X57473402Y-105377701D01*
X57486897Y-105292500D01*
X57486899Y-105292486D01*
X59609500Y-105292486D01*
X59609500Y-105587513D01*
X59623887Y-105696788D01*
X59648007Y-105879993D01*
X59711649Y-106117510D01*
X59724361Y-106164951D01*
X59724364Y-106164961D01*
X59837254Y-106437500D01*
X59837258Y-106437510D01*
X59984761Y-106692993D01*
X60164352Y-106927040D01*
X60164358Y-106927047D01*
X60372952Y-107135641D01*
X60372959Y-107135647D01*
X60607006Y-107315238D01*
X60862489Y-107462741D01*
X60862490Y-107462741D01*
X60862493Y-107462743D01*
X61135048Y-107575639D01*
X61420007Y-107651993D01*
X61712494Y-107690500D01*
X61712501Y-107690500D01*
X62007499Y-107690500D01*
X62007506Y-107690500D01*
X62299993Y-107651993D01*
X62584952Y-107575639D01*
X62857507Y-107462743D01*
X63112994Y-107315238D01*
X63347042Y-107135646D01*
X63555646Y-106927042D01*
X63735238Y-106692994D01*
X63882743Y-106437507D01*
X63995639Y-106164952D01*
X64071993Y-105879993D01*
X64110500Y-105587506D01*
X64110500Y-105292494D01*
X64076388Y-105033389D01*
X65459500Y-105033389D01*
X65459500Y-105206610D01*
X65473102Y-105292494D01*
X65486598Y-105377701D01*
X65540127Y-105542445D01*
X65618768Y-105696788D01*
X65720586Y-105836928D01*
X65843072Y-105959414D01*
X65983212Y-106061232D01*
X66137555Y-106139873D01*
X66302299Y-106193402D01*
X66473389Y-106220500D01*
X66473390Y-106220500D01*
X66646610Y-106220500D01*
X66646611Y-106220500D01*
X66817701Y-106193402D01*
X66982445Y-106139873D01*
X67136788Y-106061232D01*
X67276928Y-105959414D01*
X67399414Y-105836928D01*
X67501232Y-105696788D01*
X67579873Y-105542445D01*
X67633402Y-105377701D01*
X67660500Y-105206611D01*
X67660500Y-105033389D01*
X74349500Y-105033389D01*
X74349500Y-105206610D01*
X74363102Y-105292494D01*
X74376598Y-105377701D01*
X74430127Y-105542445D01*
X74508768Y-105696788D01*
X74610586Y-105836928D01*
X74733072Y-105959414D01*
X74873212Y-106061232D01*
X75027555Y-106139873D01*
X75192299Y-106193402D01*
X75363389Y-106220500D01*
X75363390Y-106220500D01*
X75536610Y-106220500D01*
X75536611Y-106220500D01*
X75707701Y-106193402D01*
X75872445Y-106139873D01*
X76026788Y-106061232D01*
X76166928Y-105959414D01*
X76289414Y-105836928D01*
X76391232Y-105696788D01*
X76469873Y-105542445D01*
X76523402Y-105377701D01*
X76550500Y-105206611D01*
X76550500Y-105033389D01*
X76540854Y-104972486D01*
X78279500Y-104972486D01*
X78279500Y-105267513D01*
X78311571Y-105511113D01*
X78318007Y-105559993D01*
X78392212Y-105836930D01*
X78394361Y-105844951D01*
X78394364Y-105844961D01*
X78507254Y-106117500D01*
X78507258Y-106117510D01*
X78654761Y-106372993D01*
X78834352Y-106607040D01*
X78834358Y-106607047D01*
X79042952Y-106815641D01*
X79042959Y-106815647D01*
X79277006Y-106995238D01*
X79532489Y-107142741D01*
X79532490Y-107142741D01*
X79532493Y-107142743D01*
X79805048Y-107255639D01*
X80090007Y-107331993D01*
X80382494Y-107370500D01*
X80382501Y-107370500D01*
X80677499Y-107370500D01*
X80677506Y-107370500D01*
X80969993Y-107331993D01*
X81254952Y-107255639D01*
X81527507Y-107142743D01*
X81782994Y-106995238D01*
X82017042Y-106815646D01*
X82225646Y-106607042D01*
X82405238Y-106372994D01*
X82552743Y-106117507D01*
X82665639Y-105844952D01*
X82741993Y-105559993D01*
X82780500Y-105267506D01*
X82780500Y-105033389D01*
X84509500Y-105033389D01*
X84509500Y-105206610D01*
X84523102Y-105292494D01*
X84536598Y-105377701D01*
X84590127Y-105542445D01*
X84668768Y-105696788D01*
X84770586Y-105836928D01*
X84893072Y-105959414D01*
X85033212Y-106061232D01*
X85187555Y-106139873D01*
X85352299Y-106193402D01*
X85523389Y-106220500D01*
X85523390Y-106220500D01*
X85696610Y-106220500D01*
X85696611Y-106220500D01*
X85867701Y-106193402D01*
X86032445Y-106139873D01*
X86186788Y-106061232D01*
X86326928Y-105959414D01*
X86449414Y-105836928D01*
X86551232Y-105696788D01*
X86629873Y-105542445D01*
X86683402Y-105377701D01*
X86710500Y-105206611D01*
X86710500Y-105033389D01*
X86683402Y-104862299D01*
X86629873Y-104697555D01*
X86551232Y-104543212D01*
X86449414Y-104403072D01*
X86326928Y-104280586D01*
X86186788Y-104178768D01*
X86032445Y-104100127D01*
X85867701Y-104046598D01*
X85867699Y-104046597D01*
X85867698Y-104046597D01*
X85736271Y-104025781D01*
X85696611Y-104019500D01*
X85523389Y-104019500D01*
X85483728Y-104025781D01*
X85352302Y-104046597D01*
X85187552Y-104100128D01*
X85033211Y-104178768D01*
X85021873Y-104187006D01*
X84893072Y-104280586D01*
X84893070Y-104280588D01*
X84893069Y-104280588D01*
X84770588Y-104403069D01*
X84770588Y-104403070D01*
X84770586Y-104403072D01*
X84741948Y-104442489D01*
X84668768Y-104543211D01*
X84590128Y-104697552D01*
X84536597Y-104862302D01*
X84509500Y-105033389D01*
X82780500Y-105033389D01*
X82780500Y-104972494D01*
X82741993Y-104680007D01*
X82665639Y-104395048D01*
X82552743Y-104122493D01*
X82502604Y-104035650D01*
X82405238Y-103867006D01*
X82225647Y-103632959D01*
X82225641Y-103632952D01*
X82017047Y-103424358D01*
X82017040Y-103424352D01*
X81782993Y-103244761D01*
X81527510Y-103097258D01*
X81527500Y-103097254D01*
X81254961Y-102984364D01*
X81254954Y-102984362D01*
X81254952Y-102984361D01*
X80969993Y-102908007D01*
X80921113Y-102901571D01*
X80677513Y-102869500D01*
X80677506Y-102869500D01*
X80382494Y-102869500D01*
X80382486Y-102869500D01*
X80104085Y-102906153D01*
X80090007Y-102908007D01*
X79915861Y-102954669D01*
X79805048Y-102984361D01*
X79805038Y-102984364D01*
X79532499Y-103097254D01*
X79532489Y-103097258D01*
X79277006Y-103244761D01*
X79042959Y-103424352D01*
X79042952Y-103424358D01*
X78834358Y-103632952D01*
X78834352Y-103632959D01*
X78654761Y-103867006D01*
X78507258Y-104122489D01*
X78507254Y-104122499D01*
X78394364Y-104395038D01*
X78394361Y-104395048D01*
X78318008Y-104680004D01*
X78318006Y-104680015D01*
X78279500Y-104972486D01*
X76540854Y-104972486D01*
X76523402Y-104862299D01*
X76469873Y-104697555D01*
X76391232Y-104543212D01*
X76289414Y-104403072D01*
X76236882Y-104350540D01*
X76203397Y-104289217D01*
X76208381Y-104219525D01*
X76250253Y-104163592D01*
X76315717Y-104139175D01*
X76343961Y-104140386D01*
X76594072Y-104180000D01*
X76845928Y-104180000D01*
X77094669Y-104140602D01*
X77334184Y-104062780D01*
X77558575Y-103948446D01*
X77558581Y-103948442D01*
X77660697Y-103874250D01*
X77660698Y-103874250D01*
X77044025Y-103257578D01*
X77075258Y-103244641D01*
X77198097Y-103162563D01*
X77302563Y-103058097D01*
X77384641Y-102935258D01*
X77397578Y-102904025D01*
X78014250Y-103520698D01*
X78014250Y-103520697D01*
X78088442Y-103418581D01*
X78088446Y-103418575D01*
X78202780Y-103194184D01*
X78280602Y-102954669D01*
X78320000Y-102705928D01*
X78320000Y-102454071D01*
X78280602Y-102205330D01*
X78202780Y-101965815D01*
X78088442Y-101741416D01*
X78014250Y-101639301D01*
X78014250Y-101639300D01*
X77397577Y-102255973D01*
X77384641Y-102224742D01*
X77302563Y-102101903D01*
X77198097Y-101997437D01*
X77075258Y-101915359D01*
X77044024Y-101902421D01*
X77660698Y-101285748D01*
X77558583Y-101211557D01*
X77334184Y-101097219D01*
X77094669Y-101019397D01*
X76845928Y-100980000D01*
X76594072Y-100980000D01*
X76345330Y-101019397D01*
X76105815Y-101097219D01*
X75881413Y-101211559D01*
X75779301Y-101285747D01*
X75779300Y-101285748D01*
X76395974Y-101902421D01*
X76364742Y-101915359D01*
X76241903Y-101997437D01*
X76137437Y-102101903D01*
X76055359Y-102224742D01*
X76042421Y-102255974D01*
X75425748Y-101639300D01*
X75425747Y-101639301D01*
X75351559Y-101741413D01*
X75237219Y-101965815D01*
X75159397Y-102205330D01*
X75120000Y-102454071D01*
X75120000Y-102705928D01*
X75159397Y-102954669D01*
X75237219Y-103194184D01*
X75351557Y-103418583D01*
X75425748Y-103520697D01*
X75425748Y-103520698D01*
X76042421Y-102904024D01*
X76055359Y-102935258D01*
X76137437Y-103058097D01*
X76241903Y-103162563D01*
X76364742Y-103244641D01*
X76395974Y-103257577D01*
X75779300Y-103874250D01*
X75781598Y-103903449D01*
X75767233Y-103971827D01*
X75718181Y-104021583D01*
X75650016Y-104036921D01*
X75638583Y-104035650D01*
X75536611Y-104019500D01*
X75363389Y-104019500D01*
X75323728Y-104025781D01*
X75192302Y-104046597D01*
X75027552Y-104100128D01*
X74873211Y-104178768D01*
X74861873Y-104187006D01*
X74733072Y-104280586D01*
X74733070Y-104280588D01*
X74733069Y-104280588D01*
X74610588Y-104403069D01*
X74610588Y-104403070D01*
X74610586Y-104403072D01*
X74581948Y-104442489D01*
X74508768Y-104543211D01*
X74430128Y-104697552D01*
X74376597Y-104862302D01*
X74349500Y-105033389D01*
X67660500Y-105033389D01*
X67633402Y-104862299D01*
X67579873Y-104697555D01*
X67501232Y-104543212D01*
X67399414Y-104403072D01*
X67276928Y-104280586D01*
X67136788Y-104178768D01*
X66982445Y-104100127D01*
X66817701Y-104046598D01*
X66817699Y-104046597D01*
X66817698Y-104046597D01*
X66686271Y-104025781D01*
X66646611Y-104019500D01*
X66473389Y-104019500D01*
X66433728Y-104025781D01*
X66302302Y-104046597D01*
X66137552Y-104100128D01*
X65983211Y-104178768D01*
X65971873Y-104187006D01*
X65843072Y-104280586D01*
X65843070Y-104280588D01*
X65843069Y-104280588D01*
X65720588Y-104403069D01*
X65720588Y-104403070D01*
X65720586Y-104403072D01*
X65691948Y-104442489D01*
X65618768Y-104543211D01*
X65540128Y-104697552D01*
X65486597Y-104862302D01*
X65459500Y-105033389D01*
X64076388Y-105033389D01*
X64071993Y-105000007D01*
X63995639Y-104715048D01*
X63882743Y-104442493D01*
X63859983Y-104403072D01*
X63735238Y-104187006D01*
X63555647Y-103952959D01*
X63555641Y-103952952D01*
X63347047Y-103744358D01*
X63347040Y-103744352D01*
X63112993Y-103564761D01*
X62857510Y-103417258D01*
X62857500Y-103417254D01*
X62584961Y-103304364D01*
X62584954Y-103304362D01*
X62584952Y-103304361D01*
X62299993Y-103228007D01*
X62251113Y-103221571D01*
X62007513Y-103189500D01*
X62007506Y-103189500D01*
X61712494Y-103189500D01*
X61712486Y-103189500D01*
X61434085Y-103226153D01*
X61420007Y-103228007D01*
X61146927Y-103301178D01*
X61135048Y-103304361D01*
X61135038Y-103304364D01*
X60862499Y-103417254D01*
X60862489Y-103417258D01*
X60607006Y-103564761D01*
X60372959Y-103744352D01*
X60372952Y-103744358D01*
X60164358Y-103952952D01*
X60164352Y-103952959D01*
X59984761Y-104187006D01*
X59837258Y-104442489D01*
X59837254Y-104442499D01*
X59724364Y-104715038D01*
X59724361Y-104715048D01*
X59655378Y-104972500D01*
X59648008Y-105000004D01*
X59648006Y-105000015D01*
X59609500Y-105292486D01*
X57486899Y-105292486D01*
X57490613Y-105269037D01*
X57490613Y-105269036D01*
X57500500Y-105206611D01*
X57500500Y-105033389D01*
X57473402Y-104862302D01*
X57473402Y-104862299D01*
X57419873Y-104697555D01*
X57341232Y-104543212D01*
X57239414Y-104403072D01*
X57187482Y-104351140D01*
X57153997Y-104289817D01*
X57158981Y-104220125D01*
X57200853Y-104164192D01*
X57266317Y-104139775D01*
X57294561Y-104140986D01*
X57295212Y-104141089D01*
X57295215Y-104141090D01*
X57544038Y-104180500D01*
X57544039Y-104180500D01*
X57795961Y-104180500D01*
X57795962Y-104180500D01*
X58044785Y-104141090D01*
X58284379Y-104063241D01*
X58508845Y-103948870D01*
X58712656Y-103800793D01*
X58890793Y-103622656D01*
X59038870Y-103418845D01*
X59153241Y-103194379D01*
X59231090Y-102954785D01*
X59270500Y-102705962D01*
X59270500Y-102454038D01*
X59231090Y-102205215D01*
X59153241Y-101965621D01*
X59153239Y-101965618D01*
X59153239Y-101965616D01*
X59098824Y-101858822D01*
X59038870Y-101741155D01*
X58937107Y-101601090D01*
X58890798Y-101537350D01*
X58890794Y-101537345D01*
X58712654Y-101359205D01*
X58712649Y-101359201D01*
X58508848Y-101211132D01*
X58508847Y-101211131D01*
X58508845Y-101211130D01*
X58438747Y-101175413D01*
X58284383Y-101096760D01*
X58044785Y-101018910D01*
X57795962Y-100979500D01*
X57544038Y-100979500D01*
X57419626Y-100999205D01*
X57295214Y-101018910D01*
X57055616Y-101096760D01*
X56831151Y-101211132D01*
X56627350Y-101359201D01*
X56627345Y-101359205D01*
X56449205Y-101537345D01*
X56449201Y-101537350D01*
X56301132Y-101741151D01*
X56186760Y-101965616D01*
X56108910Y-102205214D01*
X56069500Y-102454038D01*
X56069500Y-102705961D01*
X56108910Y-102954785D01*
X56186760Y-103194383D01*
X56242799Y-103304364D01*
X56300995Y-103418581D01*
X56301132Y-103418848D01*
X56449201Y-103622649D01*
X56449205Y-103622654D01*
X56449207Y-103622656D01*
X56627344Y-103800793D01*
X56627345Y-103800794D01*
X56627344Y-103800794D01*
X56633661Y-103805383D01*
X56676327Y-103860714D01*
X56682305Y-103930327D01*
X56649699Y-103992122D01*
X56588860Y-104026479D01*
X56541378Y-104028174D01*
X56486611Y-104019500D01*
X56313389Y-104019500D01*
X56273728Y-104025781D01*
X56142302Y-104046597D01*
X55977552Y-104100128D01*
X55823211Y-104178768D01*
X55811873Y-104187006D01*
X55683072Y-104280586D01*
X55683070Y-104280588D01*
X55683069Y-104280588D01*
X55560588Y-104403069D01*
X55560588Y-104403070D01*
X55560586Y-104403072D01*
X55531948Y-104442489D01*
X55458768Y-104543211D01*
X55380128Y-104697552D01*
X55326597Y-104862302D01*
X55299500Y-105033389D01*
X48610500Y-105033389D01*
X48583402Y-104862299D01*
X48529873Y-104697555D01*
X48451232Y-104543212D01*
X48349414Y-104403072D01*
X48226928Y-104280586D01*
X48086788Y-104178768D01*
X47932445Y-104100127D01*
X47767701Y-104046598D01*
X47767699Y-104046597D01*
X47767698Y-104046597D01*
X47636271Y-104025781D01*
X47596611Y-104019500D01*
X47423389Y-104019500D01*
X47383728Y-104025781D01*
X47252302Y-104046597D01*
X47087552Y-104100128D01*
X46933211Y-104178768D01*
X46921873Y-104187006D01*
X46793072Y-104280586D01*
X46793070Y-104280588D01*
X46793069Y-104280588D01*
X46670588Y-104403069D01*
X46670588Y-104403070D01*
X46670586Y-104403072D01*
X46641948Y-104442489D01*
X46568768Y-104543211D01*
X46490128Y-104697552D01*
X46436597Y-104862302D01*
X46409500Y-105033389D01*
X44680500Y-105033389D01*
X44680500Y-104972494D01*
X44641993Y-104680007D01*
X44565639Y-104395048D01*
X44452743Y-104122493D01*
X44402604Y-104035650D01*
X44305238Y-103867006D01*
X44125647Y-103632959D01*
X44125641Y-103632952D01*
X43917047Y-103424358D01*
X43917040Y-103424352D01*
X43682993Y-103244761D01*
X43427510Y-103097258D01*
X43427500Y-103097254D01*
X43154961Y-102984364D01*
X43154954Y-102984362D01*
X43154952Y-102984361D01*
X42869993Y-102908007D01*
X42821113Y-102901571D01*
X42577513Y-102869500D01*
X42577506Y-102869500D01*
X42282494Y-102869500D01*
X42282486Y-102869500D01*
X42004085Y-102906153D01*
X41990007Y-102908007D01*
X41815861Y-102954669D01*
X41705048Y-102984361D01*
X41705038Y-102984364D01*
X41432499Y-103097254D01*
X41432489Y-103097258D01*
X41177006Y-103244761D01*
X40942959Y-103424352D01*
X40942952Y-103424358D01*
X40734358Y-103632952D01*
X40734352Y-103632959D01*
X40554761Y-103867006D01*
X40407258Y-104122489D01*
X40407254Y-104122499D01*
X40294364Y-104395038D01*
X40294361Y-104395048D01*
X40218008Y-104680004D01*
X40218006Y-104680015D01*
X40179500Y-104972486D01*
X38440854Y-104972486D01*
X38423402Y-104862299D01*
X38369873Y-104697555D01*
X38291232Y-104543212D01*
X38189414Y-104403072D01*
X38137482Y-104351140D01*
X38103997Y-104289817D01*
X38108981Y-104220125D01*
X38150853Y-104164192D01*
X38216317Y-104139775D01*
X38244561Y-104140986D01*
X38245212Y-104141089D01*
X38245215Y-104141090D01*
X38494038Y-104180500D01*
X38494039Y-104180500D01*
X38745961Y-104180500D01*
X38745962Y-104180500D01*
X38994785Y-104141090D01*
X39234379Y-104063241D01*
X39458845Y-103948870D01*
X39662656Y-103800793D01*
X39840793Y-103622656D01*
X39988870Y-103418845D01*
X40103241Y-103194379D01*
X40181090Y-102954785D01*
X40220500Y-102705962D01*
X40220500Y-102454038D01*
X40181090Y-102205215D01*
X40103241Y-101965621D01*
X40103239Y-101965618D01*
X40103239Y-101965616D01*
X40048824Y-101858822D01*
X39988870Y-101741155D01*
X39887107Y-101601090D01*
X39840798Y-101537350D01*
X39840794Y-101537345D01*
X39662654Y-101359205D01*
X39662649Y-101359201D01*
X39458848Y-101211132D01*
X39458847Y-101211131D01*
X39458845Y-101211130D01*
X39388747Y-101175413D01*
X39234383Y-101096760D01*
X38994785Y-101018910D01*
X38745962Y-100979500D01*
X38494038Y-100979500D01*
X38369626Y-100999205D01*
X38245214Y-101018910D01*
X38005616Y-101096760D01*
X37781151Y-101211132D01*
X37577350Y-101359201D01*
X37577345Y-101359205D01*
X37399205Y-101537345D01*
X37399201Y-101537350D01*
X37251132Y-101741151D01*
X37136760Y-101965616D01*
X37058910Y-102205214D01*
X37019500Y-102454038D01*
X37019500Y-102705961D01*
X37058910Y-102954785D01*
X37136760Y-103194383D01*
X37192799Y-103304364D01*
X37250995Y-103418581D01*
X37251132Y-103418848D01*
X37399201Y-103622649D01*
X37399205Y-103622654D01*
X37399207Y-103622656D01*
X37577344Y-103800793D01*
X37577345Y-103800794D01*
X37577344Y-103800794D01*
X37583661Y-103805383D01*
X37626327Y-103860714D01*
X37632305Y-103930327D01*
X37599699Y-103992122D01*
X37538860Y-104026479D01*
X37491378Y-104028174D01*
X37436611Y-104019500D01*
X37263389Y-104019500D01*
X37223728Y-104025781D01*
X37092302Y-104046597D01*
X36927552Y-104100128D01*
X36773211Y-104178768D01*
X36761873Y-104187006D01*
X36633072Y-104280586D01*
X36633070Y-104280588D01*
X36633069Y-104280588D01*
X36510588Y-104403069D01*
X36510588Y-104403070D01*
X36510586Y-104403072D01*
X36481948Y-104442489D01*
X36408768Y-104543211D01*
X36330128Y-104697552D01*
X36276597Y-104862302D01*
X36249500Y-105033389D01*
X30560500Y-105033389D01*
X30560500Y-99914071D01*
X43370000Y-99914071D01*
X43370000Y-100165928D01*
X43409397Y-100414669D01*
X43487219Y-100654184D01*
X43601557Y-100878583D01*
X43675748Y-100980697D01*
X43675748Y-100980698D01*
X44292421Y-100364024D01*
X44305359Y-100395258D01*
X44387437Y-100518097D01*
X44491903Y-100622563D01*
X44614742Y-100704641D01*
X44645974Y-100717577D01*
X44029300Y-101334250D01*
X44131416Y-101408442D01*
X44355815Y-101522780D01*
X44595330Y-101600602D01*
X44844072Y-101640000D01*
X45095928Y-101640000D01*
X45344669Y-101600602D01*
X45584184Y-101522780D01*
X45808575Y-101408446D01*
X45808581Y-101408442D01*
X45910697Y-101334250D01*
X45910698Y-101334250D01*
X45294025Y-100717578D01*
X45325258Y-100704641D01*
X45448097Y-100622563D01*
X45552563Y-100518097D01*
X45634641Y-100395258D01*
X45647577Y-100364025D01*
X46264250Y-100980698D01*
X46264250Y-100980697D01*
X46338442Y-100878581D01*
X46338446Y-100878575D01*
X46452780Y-100654184D01*
X46530602Y-100414669D01*
X46570000Y-100165928D01*
X46570000Y-99914071D01*
X62420000Y-99914071D01*
X62420000Y-100165928D01*
X62459397Y-100414669D01*
X62537219Y-100654184D01*
X62651557Y-100878583D01*
X62725748Y-100980697D01*
X62725748Y-100980698D01*
X63342421Y-100364024D01*
X63355359Y-100395258D01*
X63437437Y-100518097D01*
X63541903Y-100622563D01*
X63664742Y-100704641D01*
X63695974Y-100717577D01*
X63079300Y-101334250D01*
X63181416Y-101408442D01*
X63405815Y-101522780D01*
X63645330Y-101600602D01*
X63894072Y-101640000D01*
X64145928Y-101640000D01*
X64394669Y-101600602D01*
X64634184Y-101522780D01*
X64858575Y-101408446D01*
X64858581Y-101408442D01*
X64960697Y-101334250D01*
X64960697Y-101334249D01*
X64344025Y-100717578D01*
X64375258Y-100704641D01*
X64498097Y-100622563D01*
X64602563Y-100518097D01*
X64684641Y-100395258D01*
X64697577Y-100364025D01*
X65314250Y-100980698D01*
X65314250Y-100980697D01*
X65388442Y-100878581D01*
X65388446Y-100878575D01*
X65502780Y-100654184D01*
X65580602Y-100414669D01*
X65620000Y-100165928D01*
X65620000Y-99914071D01*
X65619995Y-99914038D01*
X81469500Y-99914038D01*
X81469500Y-100165961D01*
X81508910Y-100414785D01*
X81586760Y-100654383D01*
X81655861Y-100790000D01*
X81700995Y-100878581D01*
X81701132Y-100878848D01*
X81849201Y-101082649D01*
X81849205Y-101082654D01*
X82027345Y-101260794D01*
X82027350Y-101260798D01*
X82205117Y-101389952D01*
X82231155Y-101408870D01*
X82374184Y-101481747D01*
X82455616Y-101523239D01*
X82455618Y-101523239D01*
X82455621Y-101523241D01*
X82695215Y-101601090D01*
X82944038Y-101640500D01*
X82944039Y-101640500D01*
X83195961Y-101640500D01*
X83195962Y-101640500D01*
X83444785Y-101601090D01*
X83684379Y-101523241D01*
X83908845Y-101408870D01*
X84112656Y-101260793D01*
X84290793Y-101082656D01*
X84438870Y-100878845D01*
X84553241Y-100654379D01*
X84631090Y-100414785D01*
X84670500Y-100165962D01*
X84670500Y-99914038D01*
X84631090Y-99665215D01*
X84553241Y-99425621D01*
X84553239Y-99425618D01*
X84553239Y-99425616D01*
X84498824Y-99318822D01*
X84438870Y-99201155D01*
X84364868Y-99099300D01*
X84290798Y-98997350D01*
X84290794Y-98997345D01*
X84112654Y-98819205D01*
X84112649Y-98819201D01*
X83908848Y-98671132D01*
X83908847Y-98671131D01*
X83908845Y-98671130D01*
X83838747Y-98635413D01*
X83684383Y-98556760D01*
X83444785Y-98478910D01*
X83195962Y-98439500D01*
X82944038Y-98439500D01*
X82819626Y-98459205D01*
X82695214Y-98478910D01*
X82455616Y-98556760D01*
X82231151Y-98671132D01*
X82027350Y-98819201D01*
X82027345Y-98819205D01*
X81849205Y-98997345D01*
X81849201Y-98997350D01*
X81701132Y-99201151D01*
X81586760Y-99425616D01*
X81508910Y-99665214D01*
X81469500Y-99914038D01*
X65619995Y-99914038D01*
X65580602Y-99665330D01*
X65502780Y-99425815D01*
X65388442Y-99201416D01*
X65314250Y-99099301D01*
X65314250Y-99099300D01*
X64697577Y-99715973D01*
X64684641Y-99684742D01*
X64602563Y-99561903D01*
X64498097Y-99457437D01*
X64375258Y-99375359D01*
X64344024Y-99362421D01*
X64960698Y-98745748D01*
X64858583Y-98671557D01*
X64634184Y-98557219D01*
X64394669Y-98479397D01*
X64145928Y-98440000D01*
X63894072Y-98440000D01*
X63645330Y-98479397D01*
X63405815Y-98557219D01*
X63181413Y-98671559D01*
X63079301Y-98745747D01*
X63079300Y-98745748D01*
X63695974Y-99362421D01*
X63664742Y-99375359D01*
X63541903Y-99457437D01*
X63437437Y-99561903D01*
X63355359Y-99684742D01*
X63342421Y-99715974D01*
X62725748Y-99099300D01*
X62725747Y-99099301D01*
X62651559Y-99201413D01*
X62537219Y-99425815D01*
X62459397Y-99665330D01*
X62420000Y-99914071D01*
X46570000Y-99914071D01*
X46530602Y-99665330D01*
X46452780Y-99425815D01*
X46338442Y-99201416D01*
X46264250Y-99099301D01*
X46264250Y-99099300D01*
X45647577Y-99715973D01*
X45634641Y-99684742D01*
X45552563Y-99561903D01*
X45448097Y-99457437D01*
X45325258Y-99375359D01*
X45294024Y-99362421D01*
X45910698Y-98745748D01*
X45808583Y-98671557D01*
X45584184Y-98557219D01*
X45344669Y-98479397D01*
X45095928Y-98440000D01*
X44844072Y-98440000D01*
X44595330Y-98479397D01*
X44355815Y-98557219D01*
X44131413Y-98671559D01*
X44029301Y-98745747D01*
X44029300Y-98745748D01*
X44645974Y-99362421D01*
X44614742Y-99375359D01*
X44491903Y-99457437D01*
X44387437Y-99561903D01*
X44305359Y-99684742D01*
X44292421Y-99715974D01*
X43675748Y-99099300D01*
X43675747Y-99099301D01*
X43601559Y-99201413D01*
X43487219Y-99425815D01*
X43409397Y-99665330D01*
X43370000Y-99914071D01*
X30560500Y-99914071D01*
X30560500Y-95279653D01*
X85869500Y-95279653D01*
X85869500Y-95437346D01*
X85900261Y-95591989D01*
X85900264Y-95592001D01*
X85960602Y-95737672D01*
X85960609Y-95737685D01*
X86048210Y-95868788D01*
X86048213Y-95868792D01*
X86159707Y-95980286D01*
X86159711Y-95980289D01*
X86290814Y-96067890D01*
X86290827Y-96067897D01*
X86436498Y-96128235D01*
X86436503Y-96128237D01*
X86591153Y-96158999D01*
X86591156Y-96159000D01*
X86591158Y-96159000D01*
X86748844Y-96159000D01*
X86748845Y-96158999D01*
X86903497Y-96128237D01*
X87049179Y-96067894D01*
X87180289Y-95980289D01*
X87291789Y-95868789D01*
X87379394Y-95737679D01*
X87439737Y-95591997D01*
X87470500Y-95437342D01*
X87470500Y-95279658D01*
X87470500Y-95279655D01*
X87470499Y-95279653D01*
X87439738Y-95125010D01*
X87439737Y-95125003D01*
X87424901Y-95089185D01*
X87379397Y-94979327D01*
X87379390Y-94979314D01*
X87291398Y-94847625D01*
X87270520Y-94780947D01*
X87270500Y-94778734D01*
X87270500Y-94143597D01*
X87290185Y-94076558D01*
X87306819Y-94055916D01*
X91446819Y-89915916D01*
X91508142Y-89882431D01*
X91577834Y-89887415D01*
X91633767Y-89929287D01*
X91658184Y-89994751D01*
X91658500Y-90003597D01*
X91658500Y-90354041D01*
X91661412Y-90391046D01*
X91661413Y-90391052D01*
X91707434Y-90549454D01*
X91707435Y-90549457D01*
X91707436Y-90549459D01*
X91720627Y-90571763D01*
X91791405Y-90691443D01*
X91791412Y-90691452D01*
X91908047Y-90808087D01*
X91908050Y-90808089D01*
X91908053Y-90808092D01*
X91964996Y-90841768D01*
X92012679Y-90892838D01*
X92025182Y-90961579D01*
X91998536Y-91026169D01*
X91964996Y-91055232D01*
X91908053Y-91088908D01*
X91908047Y-91088912D01*
X91791412Y-91205547D01*
X91791405Y-91205556D01*
X91707435Y-91347542D01*
X91707434Y-91347545D01*
X91661413Y-91505947D01*
X91661412Y-91505953D01*
X91658500Y-91542958D01*
X91658500Y-92894041D01*
X91661412Y-92931046D01*
X91661413Y-92931052D01*
X91707434Y-93089454D01*
X91707435Y-93089457D01*
X91791405Y-93231443D01*
X91791412Y-93231452D01*
X91908047Y-93348087D01*
X91908050Y-93348089D01*
X91908053Y-93348092D01*
X91964996Y-93381768D01*
X92012679Y-93432838D01*
X92025182Y-93501579D01*
X91998536Y-93566169D01*
X91964996Y-93595232D01*
X91908053Y-93628908D01*
X91908047Y-93628912D01*
X91791412Y-93745547D01*
X91791405Y-93745556D01*
X91707435Y-93887542D01*
X91707434Y-93887545D01*
X91661413Y-94045947D01*
X91661412Y-94045953D01*
X91658500Y-94082958D01*
X91658500Y-95434041D01*
X91661412Y-95471046D01*
X91661413Y-95471052D01*
X91707434Y-95629454D01*
X91707435Y-95629457D01*
X91791405Y-95771443D01*
X91791412Y-95771452D01*
X91908047Y-95888087D01*
X91908051Y-95888090D01*
X91908053Y-95888092D01*
X92050041Y-95972064D01*
X92091816Y-95984201D01*
X92208447Y-96018086D01*
X92208450Y-96018086D01*
X92208452Y-96018087D01*
X92245466Y-96021000D01*
X92245474Y-96021000D01*
X94504526Y-96021000D01*
X94504534Y-96021000D01*
X94541548Y-96018087D01*
X94541550Y-96018086D01*
X94541552Y-96018086D01*
X94583323Y-96005949D01*
X94699959Y-95972064D01*
X94841947Y-95888092D01*
X94938148Y-95791889D01*
X94952939Y-95779258D01*
X95032464Y-95721481D01*
X95172981Y-95580964D01*
X95289787Y-95420194D01*
X95380005Y-95243132D01*
X95441413Y-95054136D01*
X95472500Y-94857861D01*
X95472500Y-94659139D01*
X95441413Y-94462864D01*
X95380005Y-94273868D01*
X95380005Y-94273867D01*
X95289786Y-94096805D01*
X95286466Y-94092235D01*
X95172981Y-93936036D01*
X95032464Y-93795519D01*
X94952937Y-93737739D01*
X94946175Y-93732460D01*
X94942000Y-93728961D01*
X94841947Y-93628908D01*
X94776259Y-93590060D01*
X94768477Y-93583538D01*
X94754510Y-93562573D01*
X94737321Y-93544163D01*
X94735471Y-93533992D01*
X94729740Y-93525390D01*
X94729324Y-93500202D01*
X94724817Y-93475421D01*
X94728758Y-93465866D01*
X94728588Y-93455530D01*
X94741856Y-93434116D01*
X94751462Y-93410832D01*
X94761874Y-93401809D01*
X94765389Y-93396138D01*
X94772127Y-93392925D01*
X94785004Y-93381768D01*
X94841947Y-93348092D01*
X94938148Y-93251889D01*
X94952939Y-93239258D01*
X95032464Y-93181481D01*
X95172981Y-93040964D01*
X95289787Y-92880194D01*
X95380005Y-92703132D01*
X95441413Y-92514136D01*
X95472500Y-92317861D01*
X95472500Y-92119139D01*
X95441413Y-91922864D01*
X95380005Y-91733868D01*
X95380005Y-91733867D01*
X95334035Y-91643649D01*
X95289787Y-91556806D01*
X95172981Y-91396036D01*
X95032464Y-91255519D01*
X94952937Y-91197739D01*
X94946175Y-91192460D01*
X94942000Y-91188961D01*
X94841947Y-91088908D01*
X94776259Y-91050060D01*
X94768477Y-91043538D01*
X94754510Y-91022573D01*
X94737321Y-91004163D01*
X94735471Y-90993992D01*
X94729740Y-90985390D01*
X94729324Y-90960202D01*
X94724817Y-90935421D01*
X94728758Y-90925866D01*
X94728588Y-90915530D01*
X94741856Y-90894116D01*
X94751462Y-90870832D01*
X94761874Y-90861809D01*
X94765389Y-90856138D01*
X94772127Y-90852925D01*
X94785004Y-90841768D01*
X94802855Y-90831211D01*
X94841947Y-90808092D01*
X94938148Y-90711889D01*
X94952939Y-90699258D01*
X95032464Y-90641481D01*
X95172981Y-90500964D01*
X95200102Y-90463633D01*
X95255431Y-90420967D01*
X95325045Y-90414987D01*
X95386840Y-90447592D01*
X95388102Y-90448837D01*
X96295425Y-91356160D01*
X96328910Y-91417483D01*
X96329361Y-91419649D01*
X96360261Y-91574991D01*
X96360264Y-91575001D01*
X96420602Y-91720672D01*
X96420609Y-91720685D01*
X96508210Y-91851788D01*
X96508213Y-91851792D01*
X96619707Y-91963286D01*
X96619711Y-91963289D01*
X96750814Y-92050890D01*
X96750827Y-92050897D01*
X96896498Y-92111235D01*
X96896503Y-92111237D01*
X97051153Y-92141999D01*
X97051156Y-92142000D01*
X97051158Y-92142000D01*
X97208844Y-92142000D01*
X97208845Y-92141999D01*
X97363497Y-92111237D01*
X97509179Y-92050894D01*
X97640289Y-91963289D01*
X97751789Y-91851789D01*
X97839394Y-91720679D01*
X97899737Y-91574997D01*
X97930500Y-91420342D01*
X97930500Y-91262658D01*
X97930500Y-91262655D01*
X97930499Y-91262653D01*
X102769500Y-91262653D01*
X102769500Y-91420346D01*
X102800261Y-91574989D01*
X102800264Y-91575001D01*
X102860602Y-91720672D01*
X102860609Y-91720685D01*
X102948210Y-91851788D01*
X102948213Y-91851792D01*
X103059707Y-91963286D01*
X103059711Y-91963289D01*
X103190814Y-92050890D01*
X103190827Y-92050897D01*
X103336498Y-92111235D01*
X103336503Y-92111237D01*
X103491153Y-92141999D01*
X103491156Y-92142000D01*
X103491158Y-92142000D01*
X103648844Y-92142000D01*
X103648845Y-92141999D01*
X103803497Y-92111237D01*
X103949179Y-92050894D01*
X104080289Y-91963289D01*
X104191789Y-91851789D01*
X104279394Y-91720679D01*
X104339737Y-91574997D01*
X104370500Y-91420342D01*
X104370500Y-91262658D01*
X104370500Y-91262655D01*
X104370499Y-91262653D01*
X104369079Y-91255516D01*
X104339737Y-91108003D01*
X104314571Y-91047246D01*
X104279397Y-90962327D01*
X104279392Y-90962318D01*
X104274857Y-90955531D01*
X104253978Y-90888854D01*
X104272461Y-90821474D01*
X104290273Y-90798962D01*
X105727821Y-89361414D01*
X105789142Y-89327931D01*
X105858834Y-89332915D01*
X105914767Y-89374787D01*
X105939184Y-89440251D01*
X105939500Y-89449097D01*
X105939500Y-90761734D01*
X105919815Y-90828773D01*
X105918602Y-90830625D01*
X105830609Y-90962314D01*
X105830602Y-90962327D01*
X105770264Y-91107998D01*
X105770261Y-91108010D01*
X105739500Y-91262653D01*
X105739500Y-91420346D01*
X105770261Y-91574989D01*
X105770264Y-91575001D01*
X105830602Y-91720672D01*
X105830609Y-91720685D01*
X105918210Y-91851788D01*
X105918213Y-91851792D01*
X106029707Y-91963286D01*
X106029711Y-91963289D01*
X106160814Y-92050890D01*
X106160827Y-92050897D01*
X106306498Y-92111235D01*
X106306503Y-92111237D01*
X106461153Y-92141999D01*
X106461156Y-92142000D01*
X106461158Y-92142000D01*
X106618844Y-92142000D01*
X106618845Y-92141999D01*
X106773497Y-92111237D01*
X106919179Y-92050894D01*
X107050289Y-91963289D01*
X107161789Y-91851789D01*
X107249394Y-91720679D01*
X107309737Y-91574997D01*
X107340500Y-91420342D01*
X107340500Y-91262658D01*
X107340500Y-91262655D01*
X107340499Y-91262653D01*
X107339079Y-91255516D01*
X107309737Y-91108003D01*
X107284571Y-91047246D01*
X107249397Y-90962327D01*
X107249390Y-90962314D01*
X107161398Y-90830625D01*
X107140520Y-90763947D01*
X107140500Y-90761734D01*
X107140500Y-87808596D01*
X107160185Y-87741557D01*
X107176814Y-87720919D01*
X107979544Y-86918189D01*
X108040865Y-86884706D01*
X108110556Y-86889690D01*
X108166490Y-86931562D01*
X108190907Y-86997026D01*
X108189697Y-87025265D01*
X108187500Y-87039139D01*
X108187500Y-87237860D01*
X108218587Y-87434137D01*
X108279993Y-87623129D01*
X108279994Y-87623132D01*
X108370213Y-87800194D01*
X108487019Y-87960964D01*
X108487021Y-87960966D01*
X108627539Y-88101484D01*
X108707060Y-88159258D01*
X108713824Y-88164539D01*
X108717998Y-88168037D01*
X108818053Y-88268092D01*
X108883737Y-88306937D01*
X108891522Y-88313462D01*
X108905488Y-88334426D01*
X108922679Y-88352838D01*
X108924528Y-88363006D01*
X108930260Y-88371610D01*
X108930674Y-88396797D01*
X108935182Y-88421579D01*
X108931239Y-88431134D01*
X108931410Y-88441470D01*
X108918143Y-88462881D01*
X108908536Y-88486169D01*
X108898122Y-88495192D01*
X108894609Y-88500863D01*
X108887871Y-88504075D01*
X108874996Y-88515232D01*
X108818053Y-88548908D01*
X108818046Y-88548913D01*
X108721854Y-88645104D01*
X108707061Y-88657739D01*
X108627536Y-88715518D01*
X108487021Y-88856033D01*
X108370213Y-89016805D01*
X108279994Y-89193867D01*
X108279993Y-89193870D01*
X108218587Y-89382862D01*
X108187500Y-89579139D01*
X108187500Y-89777860D01*
X108218587Y-89974137D01*
X108279993Y-90163129D01*
X108279994Y-90163132D01*
X108350387Y-90301284D01*
X108370213Y-90340194D01*
X108487019Y-90500964D01*
X108487020Y-90500965D01*
X108487021Y-90500966D01*
X108627539Y-90641484D01*
X108707060Y-90699258D01*
X108713824Y-90704539D01*
X108717998Y-90708037D01*
X108818053Y-90808092D01*
X108883737Y-90846937D01*
X108891522Y-90853462D01*
X108905488Y-90874426D01*
X108922679Y-90892838D01*
X108924528Y-90903006D01*
X108930260Y-90911610D01*
X108930674Y-90936797D01*
X108935182Y-90961579D01*
X108931239Y-90971134D01*
X108931410Y-90981470D01*
X108918143Y-91002881D01*
X108908536Y-91026169D01*
X108898122Y-91035192D01*
X108894609Y-91040863D01*
X108887871Y-91044075D01*
X108874996Y-91055232D01*
X108818053Y-91088908D01*
X108818046Y-91088913D01*
X108721854Y-91185104D01*
X108707061Y-91197739D01*
X108627536Y-91255518D01*
X108487021Y-91396033D01*
X108370213Y-91556805D01*
X108279994Y-91733867D01*
X108279993Y-91733870D01*
X108218587Y-91922862D01*
X108187500Y-92119139D01*
X108187500Y-92317860D01*
X108218587Y-92514137D01*
X108279993Y-92703129D01*
X108279994Y-92703132D01*
X108370213Y-92880194D01*
X108487019Y-93040964D01*
X108487021Y-93040966D01*
X108627539Y-93181484D01*
X108707060Y-93239258D01*
X108713824Y-93244539D01*
X108717998Y-93248037D01*
X108818053Y-93348092D01*
X108883737Y-93386937D01*
X108891522Y-93393462D01*
X108905488Y-93414426D01*
X108922679Y-93432838D01*
X108924528Y-93443006D01*
X108930260Y-93451610D01*
X108930674Y-93476797D01*
X108935182Y-93501579D01*
X108931239Y-93511134D01*
X108931410Y-93521470D01*
X108918143Y-93542881D01*
X108908536Y-93566169D01*
X108898122Y-93575192D01*
X108894609Y-93580863D01*
X108887871Y-93584075D01*
X108874996Y-93595232D01*
X108818053Y-93628908D01*
X108818046Y-93628913D01*
X108721854Y-93725104D01*
X108707061Y-93737739D01*
X108627536Y-93795518D01*
X108487021Y-93936033D01*
X108370213Y-94096805D01*
X108279994Y-94273867D01*
X108279993Y-94273870D01*
X108218587Y-94462862D01*
X108187500Y-94659139D01*
X108187500Y-94857860D01*
X108218587Y-95054137D01*
X108279993Y-95243129D01*
X108279994Y-95243132D01*
X108325168Y-95331789D01*
X108370213Y-95420194D01*
X108487019Y-95580964D01*
X108487021Y-95580966D01*
X108627539Y-95721484D01*
X108707060Y-95779258D01*
X108721851Y-95791890D01*
X108818053Y-95888092D01*
X108960041Y-95972064D01*
X109001816Y-95984201D01*
X109118447Y-96018086D01*
X109118450Y-96018086D01*
X109118452Y-96018087D01*
X109155466Y-96021000D01*
X109155474Y-96021000D01*
X111414526Y-96021000D01*
X111414534Y-96021000D01*
X111451548Y-96018087D01*
X111451550Y-96018086D01*
X111451552Y-96018086D01*
X111493323Y-96005949D01*
X111609959Y-95972064D01*
X111751947Y-95888092D01*
X111868592Y-95771447D01*
X111952564Y-95629459D01*
X111998587Y-95471048D01*
X112001500Y-95434034D01*
X112001500Y-94082966D01*
X111998587Y-94045952D01*
X111952564Y-93887541D01*
X111868592Y-93745553D01*
X111868590Y-93745551D01*
X111868587Y-93745547D01*
X111751952Y-93628912D01*
X111751944Y-93628906D01*
X111695004Y-93595232D01*
X111647321Y-93544163D01*
X111634817Y-93475421D01*
X111661462Y-93410832D01*
X111695004Y-93381768D01*
X111751947Y-93348092D01*
X111868592Y-93231447D01*
X111952564Y-93089459D01*
X111998587Y-92931048D01*
X112001500Y-92894034D01*
X112001500Y-91542966D01*
X111998587Y-91505952D01*
X111973715Y-91420344D01*
X111952565Y-91347545D01*
X111952564Y-91347542D01*
X111952564Y-91347541D01*
X111868592Y-91205553D01*
X111868590Y-91205551D01*
X111868587Y-91205547D01*
X111751952Y-91088912D01*
X111751944Y-91088906D01*
X111695004Y-91055232D01*
X111647321Y-91004163D01*
X111634817Y-90935421D01*
X111661462Y-90870832D01*
X111695004Y-90841768D01*
X111751947Y-90808092D01*
X111868592Y-90691447D01*
X111952564Y-90549459D01*
X111998587Y-90391048D01*
X112001500Y-90354034D01*
X112001500Y-89002966D01*
X111998587Y-88965952D01*
X111952564Y-88807541D01*
X111868592Y-88665553D01*
X111868590Y-88665551D01*
X111868587Y-88665547D01*
X111751952Y-88548912D01*
X111751944Y-88548906D01*
X111695004Y-88515232D01*
X111647321Y-88464163D01*
X111634817Y-88395421D01*
X111661462Y-88330832D01*
X111695004Y-88301768D01*
X111751947Y-88268092D01*
X111868592Y-88151447D01*
X111952564Y-88009459D01*
X111998587Y-87851048D01*
X112001500Y-87814034D01*
X112001500Y-86462966D01*
X111998587Y-86425952D01*
X111952564Y-86267541D01*
X111868592Y-86125553D01*
X111868590Y-86125551D01*
X111868587Y-86125547D01*
X111751952Y-86008912D01*
X111751944Y-86008906D01*
X111695004Y-85975232D01*
X111647321Y-85924163D01*
X111634817Y-85855421D01*
X111661462Y-85790832D01*
X111695004Y-85761768D01*
X111751947Y-85728092D01*
X111868592Y-85611447D01*
X111952564Y-85469459D01*
X111998587Y-85311048D01*
X112001500Y-85274034D01*
X112001500Y-85144971D01*
X112021185Y-85077932D01*
X112073989Y-85032177D01*
X112143147Y-85022233D01*
X112206703Y-85051258D01*
X112213181Y-85057290D01*
X112623181Y-85467290D01*
X112656666Y-85528613D01*
X112659500Y-85554971D01*
X112659500Y-94130234D01*
X112639815Y-94197273D01*
X112638602Y-94199125D01*
X112550609Y-94330814D01*
X112550602Y-94330827D01*
X112490264Y-94476498D01*
X112490261Y-94476510D01*
X112459500Y-94631153D01*
X112459500Y-94788846D01*
X112490261Y-94943489D01*
X112490264Y-94943501D01*
X112550602Y-95089172D01*
X112550609Y-95089185D01*
X112638210Y-95220288D01*
X112638213Y-95220292D01*
X112749707Y-95331786D01*
X112749711Y-95331789D01*
X112880814Y-95419390D01*
X112880827Y-95419397D01*
X113005535Y-95471052D01*
X113026503Y-95479737D01*
X113181153Y-95510499D01*
X113181156Y-95510500D01*
X113181158Y-95510500D01*
X113338844Y-95510500D01*
X113338845Y-95510499D01*
X113493497Y-95479737D01*
X113639179Y-95419394D01*
X113770289Y-95331789D01*
X113881789Y-95220289D01*
X113969394Y-95089179D01*
X114029737Y-94943497D01*
X114060500Y-94788842D01*
X114060500Y-94631158D01*
X114060500Y-94631155D01*
X114060499Y-94631153D01*
X114029738Y-94476510D01*
X114029737Y-94476503D01*
X114024087Y-94462862D01*
X113969397Y-94330827D01*
X113969390Y-94330814D01*
X113881398Y-94199125D01*
X113860520Y-94132447D01*
X113860500Y-94130234D01*
X113860500Y-85175819D01*
X113860500Y-85175817D01*
X113819577Y-85023090D01*
X113786757Y-84966243D01*
X113740524Y-84886164D01*
X113740521Y-84886160D01*
X113740520Y-84886158D01*
X113628716Y-84774354D01*
X113628715Y-84774353D01*
X113624385Y-84770023D01*
X113624374Y-84770013D01*
X111957867Y-83103506D01*
X111924382Y-83042183D01*
X111929366Y-82972491D01*
X111938814Y-82952708D01*
X111952564Y-82929459D01*
X111998587Y-82771048D01*
X112001500Y-82734034D01*
X112001500Y-81382966D01*
X111998587Y-81345952D01*
X111952564Y-81187541D01*
X111868592Y-81045553D01*
X111868590Y-81045551D01*
X111868587Y-81045547D01*
X111751952Y-80928912D01*
X111751944Y-80928906D01*
X111707816Y-80902809D01*
X111695003Y-80895231D01*
X111647321Y-80844163D01*
X111634817Y-80775421D01*
X111661462Y-80710832D01*
X111695004Y-80681768D01*
X111751947Y-80648092D01*
X111868592Y-80531447D01*
X111952564Y-80389459D01*
X111998587Y-80231048D01*
X111998587Y-80231045D01*
X111999726Y-80224812D01*
X112001512Y-80225138D01*
X112023294Y-80167986D01*
X112079524Y-80126513D01*
X112122030Y-80119000D01*
X113184831Y-80119000D01*
X113184847Y-80119001D01*
X113192443Y-80119001D01*
X113350554Y-80119001D01*
X113350557Y-80119001D01*
X113503285Y-80078077D01*
X113553404Y-80049139D01*
X113591559Y-80027110D01*
X113653556Y-80010500D01*
X113658844Y-80010500D01*
X113658845Y-80010499D01*
X113813497Y-79979737D01*
X113959179Y-79919394D01*
X114090289Y-79831789D01*
X114201789Y-79720289D01*
X114289394Y-79589179D01*
X114349737Y-79443497D01*
X114380500Y-79288842D01*
X114380500Y-79131158D01*
X114380500Y-79131155D01*
X114380499Y-79131153D01*
X114361148Y-79033870D01*
X114349737Y-78976503D01*
X114349735Y-78976498D01*
X114289397Y-78830827D01*
X114289390Y-78830814D01*
X114201789Y-78699711D01*
X114201786Y-78699707D01*
X114090292Y-78588213D01*
X114090288Y-78588210D01*
X113959185Y-78500609D01*
X113959172Y-78500602D01*
X113813501Y-78440264D01*
X113813489Y-78440261D01*
X113658845Y-78409500D01*
X113658842Y-78409500D01*
X113501158Y-78409500D01*
X113501155Y-78409500D01*
X113346510Y-78440261D01*
X113346498Y-78440264D01*
X113200827Y-78500602D01*
X113200814Y-78500609D01*
X113069711Y-78588210D01*
X113069707Y-78588213D01*
X112958210Y-78699710D01*
X112870609Y-78830815D01*
X112870603Y-78830827D01*
X112866201Y-78841455D01*
X112822359Y-78895857D01*
X112756065Y-78917921D01*
X112751641Y-78918000D01*
X112122030Y-78918000D01*
X112054991Y-78898315D01*
X112009236Y-78845511D01*
X112000564Y-78812034D01*
X111999726Y-78812188D01*
X111998586Y-78805947D01*
X111952565Y-78647545D01*
X111952564Y-78647542D01*
X111952564Y-78647541D01*
X111868592Y-78505553D01*
X111868590Y-78505551D01*
X111868587Y-78505547D01*
X111751952Y-78388912D01*
X111751943Y-78388905D01*
X111609957Y-78304935D01*
X111609954Y-78304934D01*
X111451552Y-78258913D01*
X111451546Y-78258912D01*
X111414541Y-78256000D01*
X111414534Y-78256000D01*
X109155466Y-78256000D01*
X109155458Y-78256000D01*
X109118453Y-78258912D01*
X109118447Y-78258913D01*
X108960045Y-78304934D01*
X108960042Y-78304935D01*
X108818056Y-78388905D01*
X108818046Y-78388913D01*
X108721854Y-78485104D01*
X108707061Y-78497739D01*
X108627536Y-78555518D01*
X108487021Y-78696033D01*
X108370213Y-78856805D01*
X108279994Y-79033867D01*
X108279993Y-79033870D01*
X108218587Y-79222862D01*
X108187500Y-79419139D01*
X108187500Y-79617860D01*
X108218587Y-79814137D01*
X108279993Y-80003129D01*
X108279994Y-80003132D01*
X108339033Y-80119000D01*
X108370213Y-80180194D01*
X108487019Y-80340964D01*
X108487021Y-80340966D01*
X108627539Y-80481484D01*
X108707060Y-80539258D01*
X108713824Y-80544539D01*
X108717998Y-80548037D01*
X108818053Y-80648092D01*
X108883737Y-80686937D01*
X108891522Y-80693462D01*
X108905488Y-80714426D01*
X108922679Y-80732838D01*
X108924528Y-80743006D01*
X108930260Y-80751610D01*
X108930674Y-80776797D01*
X108935182Y-80801579D01*
X108931239Y-80811134D01*
X108931410Y-80821470D01*
X108918143Y-80842881D01*
X108908536Y-80866169D01*
X108898122Y-80875192D01*
X108894609Y-80880863D01*
X108887871Y-80884075D01*
X108874996Y-80895231D01*
X108862184Y-80902809D01*
X108818053Y-80928908D01*
X108818046Y-80928913D01*
X108721854Y-81025104D01*
X108707061Y-81037739D01*
X108627536Y-81095518D01*
X108487021Y-81236033D01*
X108370213Y-81396805D01*
X108279994Y-81573867D01*
X108279993Y-81573870D01*
X108218587Y-81762862D01*
X108213649Y-81794042D01*
X108187500Y-81959139D01*
X108187500Y-82157861D01*
X108192898Y-82191943D01*
X108218587Y-82354137D01*
X108279993Y-82543129D01*
X108279994Y-82543132D01*
X108337555Y-82656100D01*
X108370213Y-82720194D01*
X108487019Y-82880964D01*
X108487021Y-82880966D01*
X108627539Y-83021484D01*
X108707060Y-83079258D01*
X108713824Y-83084539D01*
X108717998Y-83088037D01*
X108818053Y-83188092D01*
X108883737Y-83226937D01*
X108891522Y-83233462D01*
X108905488Y-83254426D01*
X108922679Y-83272838D01*
X108924528Y-83283006D01*
X108930260Y-83291610D01*
X108930674Y-83316797D01*
X108935182Y-83341579D01*
X108931239Y-83351134D01*
X108931410Y-83361470D01*
X108918143Y-83382881D01*
X108908536Y-83406169D01*
X108898122Y-83415192D01*
X108894609Y-83420863D01*
X108887871Y-83424075D01*
X108874996Y-83435232D01*
X108818053Y-83468908D01*
X108818046Y-83468913D01*
X108721854Y-83565104D01*
X108707061Y-83577739D01*
X108627536Y-83635518D01*
X108487021Y-83776033D01*
X108370213Y-83936805D01*
X108279994Y-84113867D01*
X108279993Y-84113870D01*
X108218587Y-84302862D01*
X108187500Y-84499139D01*
X108187500Y-84697860D01*
X108218586Y-84894136D01*
X108219131Y-84896403D01*
X108219086Y-84897290D01*
X108219349Y-84898948D01*
X108219000Y-84899003D01*
X108215638Y-84966185D01*
X108186237Y-85013026D01*
X106171286Y-87027978D01*
X106059481Y-87139782D01*
X106059480Y-87139784D01*
X106014578Y-87217557D01*
X105980423Y-87276715D01*
X105939499Y-87429443D01*
X105939499Y-87429445D01*
X105939499Y-87555500D01*
X105919814Y-87622539D01*
X105867010Y-87668294D01*
X105815499Y-87679500D01*
X105681155Y-87679500D01*
X105526510Y-87710261D01*
X105526498Y-87710264D01*
X105380827Y-87770602D01*
X105380814Y-87770609D01*
X105249711Y-87858210D01*
X105249707Y-87858213D01*
X105138213Y-87969707D01*
X105138210Y-87969711D01*
X105050609Y-88100814D01*
X105050602Y-88100827D01*
X104990264Y-88246498D01*
X104990261Y-88246508D01*
X104959362Y-88401848D01*
X104926977Y-88463759D01*
X104925426Y-88465337D01*
X103204261Y-90186502D01*
X103204254Y-90186509D01*
X103201286Y-90189478D01*
X103201284Y-90189480D01*
X103089480Y-90301284D01*
X103067016Y-90340194D01*
X103060983Y-90350641D01*
X103060982Y-90350644D01*
X103023834Y-90414987D01*
X103010423Y-90438215D01*
X102969499Y-90590943D01*
X102969499Y-90590945D01*
X102969499Y-90759046D01*
X102969500Y-90759059D01*
X102969500Y-90761734D01*
X102949815Y-90828773D01*
X102948602Y-90830625D01*
X102860609Y-90962314D01*
X102860602Y-90962327D01*
X102800264Y-91107998D01*
X102800261Y-91108010D01*
X102769500Y-91262653D01*
X97930499Y-91262653D01*
X97929079Y-91255516D01*
X97899737Y-91108003D01*
X97874571Y-91047246D01*
X97839397Y-90962327D01*
X97839390Y-90962314D01*
X97751789Y-90831211D01*
X97751786Y-90831207D01*
X97640292Y-90719713D01*
X97640288Y-90719710D01*
X97509185Y-90632109D01*
X97509172Y-90632102D01*
X97363501Y-90571764D01*
X97363491Y-90571761D01*
X97208149Y-90540861D01*
X97146238Y-90508476D01*
X97144660Y-90506925D01*
X95954590Y-89316855D01*
X95954588Y-89316852D01*
X95835717Y-89197981D01*
X95835716Y-89197980D01*
X95748904Y-89147860D01*
X95748904Y-89147859D01*
X95748900Y-89147858D01*
X95698785Y-89118923D01*
X95546057Y-89077999D01*
X95396730Y-89077999D01*
X95329691Y-89058314D01*
X95292807Y-89020634D01*
X95292651Y-89020748D01*
X95291880Y-89019687D01*
X95291004Y-89018792D01*
X95289786Y-89016805D01*
X95172981Y-88856036D01*
X95032464Y-88715519D01*
X94952937Y-88657739D01*
X94946175Y-88652460D01*
X94942000Y-88648961D01*
X94841947Y-88548908D01*
X94776259Y-88510060D01*
X94768477Y-88503538D01*
X94754510Y-88482573D01*
X94737321Y-88464163D01*
X94735471Y-88453992D01*
X94729740Y-88445390D01*
X94729324Y-88420202D01*
X94724817Y-88395421D01*
X94728758Y-88385866D01*
X94728588Y-88375530D01*
X94741856Y-88354116D01*
X94751462Y-88330832D01*
X94761874Y-88321809D01*
X94765389Y-88316138D01*
X94772127Y-88312925D01*
X94785004Y-88301768D01*
X94841947Y-88268092D01*
X94938148Y-88171889D01*
X94952939Y-88159258D01*
X95032464Y-88101481D01*
X95172981Y-87960964D01*
X95289787Y-87800194D01*
X95380005Y-87623132D01*
X95441413Y-87434136D01*
X95472500Y-87237861D01*
X95472500Y-87039139D01*
X95441413Y-86842864D01*
X95380005Y-86653868D01*
X95380005Y-86653867D01*
X95292527Y-86482184D01*
X95289787Y-86476806D01*
X95172981Y-86316036D01*
X95032464Y-86175519D01*
X94952938Y-86117740D01*
X94946175Y-86112460D01*
X94942000Y-86108961D01*
X94841947Y-86008908D01*
X94776259Y-85970060D01*
X94768477Y-85963538D01*
X94754510Y-85942573D01*
X94737321Y-85924163D01*
X94735471Y-85913992D01*
X94729740Y-85905390D01*
X94729324Y-85880202D01*
X94724817Y-85855421D01*
X94728758Y-85845866D01*
X94728588Y-85835530D01*
X94741856Y-85814116D01*
X94751462Y-85790832D01*
X94761874Y-85781809D01*
X94765389Y-85776138D01*
X94772127Y-85772925D01*
X94785004Y-85761768D01*
X94841947Y-85728092D01*
X94938148Y-85631889D01*
X94952939Y-85619258D01*
X95032464Y-85561481D01*
X95172981Y-85420964D01*
X95289787Y-85260194D01*
X95380005Y-85083132D01*
X95441413Y-84894136D01*
X95472500Y-84697861D01*
X95472500Y-84499139D01*
X95441413Y-84302864D01*
X95380005Y-84113868D01*
X95380005Y-84113867D01*
X95292527Y-83942184D01*
X95289787Y-83936806D01*
X95172981Y-83776036D01*
X95032464Y-83635519D01*
X94952937Y-83577739D01*
X94946213Y-83572492D01*
X94942019Y-83568980D01*
X94841947Y-83468908D01*
X94775791Y-83429783D01*
X94768024Y-83423279D01*
X94754036Y-83402300D01*
X94736829Y-83383871D01*
X94734983Y-83373725D01*
X94729263Y-83365146D01*
X94728837Y-83339934D01*
X94724326Y-83315130D01*
X94728258Y-83305598D01*
X94728084Y-83295287D01*
X94741356Y-83273847D01*
X94750972Y-83250540D01*
X94761355Y-83241542D01*
X94764862Y-83235879D01*
X94771606Y-83232660D01*
X94784514Y-83221476D01*
X94841635Y-83187695D01*
X94913639Y-83115691D01*
X94294094Y-82496147D01*
X94381571Y-82472708D01*
X94482930Y-82414189D01*
X94565689Y-82331430D01*
X94624208Y-82230071D01*
X94647647Y-82142594D01*
X95262268Y-82757215D01*
X95289362Y-82719925D01*
X95379542Y-82542937D01*
X95440924Y-82354023D01*
X95440924Y-82354020D01*
X95472000Y-82157821D01*
X95472000Y-81959178D01*
X95440924Y-81762979D01*
X95440924Y-81762976D01*
X95379542Y-81574062D01*
X95289358Y-81397067D01*
X95262268Y-81359783D01*
X94647647Y-81974404D01*
X94624208Y-81886929D01*
X94565689Y-81785570D01*
X94482930Y-81702811D01*
X94381571Y-81644292D01*
X94294093Y-81620852D01*
X94913639Y-81001307D01*
X94841639Y-80929307D01*
X94841634Y-80929303D01*
X94784513Y-80895522D01*
X94736829Y-80844453D01*
X94724326Y-80775711D01*
X94750972Y-80711122D01*
X94768024Y-80693720D01*
X94775787Y-80687218D01*
X94841947Y-80648092D01*
X94942019Y-80548018D01*
X94946213Y-80544507D01*
X94947398Y-80543989D01*
X94952939Y-80539258D01*
X95032464Y-80481481D01*
X95172981Y-80340964D01*
X95289787Y-80180194D01*
X95380005Y-80003132D01*
X95441413Y-79814136D01*
X95472500Y-79617861D01*
X95472500Y-79419139D01*
X95441413Y-79222864D01*
X95380005Y-79033868D01*
X95380005Y-79033867D01*
X95310937Y-78898315D01*
X95289787Y-78856806D01*
X95172981Y-78696036D01*
X95032464Y-78555519D01*
X94952937Y-78497739D01*
X94938147Y-78485108D01*
X94841947Y-78388908D01*
X94841946Y-78388907D01*
X94841943Y-78388905D01*
X94699957Y-78304935D01*
X94699954Y-78304934D01*
X94541552Y-78258913D01*
X94541546Y-78258912D01*
X94504541Y-78256000D01*
X94504534Y-78256000D01*
X92245466Y-78256000D01*
X92245458Y-78256000D01*
X92208453Y-78258912D01*
X92208447Y-78258913D01*
X92050045Y-78304934D01*
X92050042Y-78304935D01*
X91908056Y-78388905D01*
X91908047Y-78388912D01*
X91791412Y-78505547D01*
X91791405Y-78505556D01*
X91707435Y-78647542D01*
X91707434Y-78647545D01*
X91661413Y-78805947D01*
X91661412Y-78805953D01*
X91658500Y-78842958D01*
X91658500Y-80194041D01*
X91661412Y-80231046D01*
X91661413Y-80231052D01*
X91707434Y-80389454D01*
X91707435Y-80389457D01*
X91791405Y-80531443D01*
X91791412Y-80531452D01*
X91908047Y-80648087D01*
X91908056Y-80648094D01*
X91965486Y-80682058D01*
X92013170Y-80733127D01*
X92025673Y-80801869D01*
X91999028Y-80866458D01*
X91965487Y-80895521D01*
X91908367Y-80929301D01*
X91908356Y-80929310D01*
X91791810Y-81045856D01*
X91791803Y-81045865D01*
X91707897Y-81187743D01*
X91707896Y-81187746D01*
X91661911Y-81346026D01*
X91661910Y-81346032D01*
X91659000Y-81383011D01*
X91659000Y-82733969D01*
X91659001Y-82733991D01*
X91661910Y-82770966D01*
X91707897Y-82929257D01*
X91791803Y-83071134D01*
X91791810Y-83071143D01*
X91908356Y-83187689D01*
X91908364Y-83187695D01*
X91965486Y-83221477D01*
X92013169Y-83272546D01*
X92025673Y-83341288D01*
X91999028Y-83405877D01*
X91965487Y-83434940D01*
X91908058Y-83468903D01*
X91908047Y-83468912D01*
X91791412Y-83585547D01*
X91791405Y-83585556D01*
X91707435Y-83727542D01*
X91707434Y-83727545D01*
X91661413Y-83885947D01*
X91661412Y-83885953D01*
X91658500Y-83922958D01*
X91658500Y-85274041D01*
X91661412Y-85311046D01*
X91661413Y-85311052D01*
X91707434Y-85469454D01*
X91707435Y-85469457D01*
X91791405Y-85611443D01*
X91791412Y-85611452D01*
X91908047Y-85728087D01*
X91908050Y-85728089D01*
X91908053Y-85728092D01*
X91964996Y-85761768D01*
X92012679Y-85812838D01*
X92025182Y-85881579D01*
X91998536Y-85946169D01*
X91964996Y-85975232D01*
X91908053Y-86008908D01*
X91908047Y-86008912D01*
X91791412Y-86125547D01*
X91791405Y-86125556D01*
X91707435Y-86267542D01*
X91707434Y-86267545D01*
X91661413Y-86425947D01*
X91661412Y-86425953D01*
X91658500Y-86462958D01*
X91658500Y-87814041D01*
X91661412Y-87851041D01*
X91661413Y-87851048D01*
X91663494Y-87858210D01*
X91675128Y-87898257D01*
X91674927Y-87968126D01*
X91643732Y-88020531D01*
X86301286Y-93362978D01*
X86189481Y-93474782D01*
X86189479Y-93474785D01*
X86187573Y-93478087D01*
X86148978Y-93544936D01*
X86110423Y-93611715D01*
X86069499Y-93764443D01*
X86069499Y-93764445D01*
X86069499Y-93932546D01*
X86069500Y-93932559D01*
X86069500Y-94778734D01*
X86049815Y-94845773D01*
X86048602Y-94847625D01*
X85960609Y-94979314D01*
X85960602Y-94979327D01*
X85900264Y-95124998D01*
X85900261Y-95125010D01*
X85869500Y-95279653D01*
X30560500Y-95279653D01*
X30560500Y-84543713D01*
X77179500Y-84543713D01*
X77179500Y-84756286D01*
X77212744Y-84966185D01*
X77212754Y-84966243D01*
X77234177Y-85032177D01*
X77278444Y-85168414D01*
X77374951Y-85357820D01*
X77499890Y-85529786D01*
X77650213Y-85680109D01*
X77822182Y-85805050D01*
X77830946Y-85809516D01*
X77881742Y-85857491D01*
X77898536Y-85925312D01*
X77875998Y-85991447D01*
X77830946Y-86030484D01*
X77822182Y-86034949D01*
X77650213Y-86159890D01*
X77499890Y-86310213D01*
X77374951Y-86482179D01*
X77278444Y-86671585D01*
X77212753Y-86873760D01*
X77188327Y-87027980D01*
X77179500Y-87083713D01*
X77179500Y-87296287D01*
X77212754Y-87506243D01*
X77275554Y-87699522D01*
X77278444Y-87708414D01*
X77374951Y-87897820D01*
X77499890Y-88069786D01*
X77650213Y-88220109D01*
X77822182Y-88345050D01*
X77830946Y-88349516D01*
X77881742Y-88397491D01*
X77898536Y-88465312D01*
X77875998Y-88531447D01*
X77830946Y-88570484D01*
X77822182Y-88574949D01*
X77650213Y-88699890D01*
X77499890Y-88850213D01*
X77374951Y-89022179D01*
X77278444Y-89211585D01*
X77212753Y-89413760D01*
X77179500Y-89623713D01*
X77179500Y-89836286D01*
X77212753Y-90046239D01*
X77278444Y-90248414D01*
X77374951Y-90437820D01*
X77499890Y-90609786D01*
X77650213Y-90760109D01*
X77822179Y-90885048D01*
X77822181Y-90885049D01*
X77822184Y-90885051D01*
X78011588Y-90981557D01*
X78213757Y-91047246D01*
X78423713Y-91080500D01*
X78423714Y-91080500D01*
X78636286Y-91080500D01*
X78636287Y-91080500D01*
X78846243Y-91047246D01*
X79048412Y-90981557D01*
X79237816Y-90885051D01*
X79282034Y-90852925D01*
X79409786Y-90760109D01*
X79409788Y-90760106D01*
X79409792Y-90760104D01*
X79560104Y-90609792D01*
X79560106Y-90609788D01*
X79560109Y-90609786D01*
X79684761Y-90438215D01*
X79685051Y-90437816D01*
X79781557Y-90248412D01*
X79847246Y-90046243D01*
X79880500Y-89836287D01*
X79880500Y-89623713D01*
X79847246Y-89413757D01*
X79781557Y-89211588D01*
X79685051Y-89022184D01*
X79685049Y-89022181D01*
X79685048Y-89022179D01*
X79560109Y-88850213D01*
X79409786Y-88699890D01*
X79237820Y-88574951D01*
X79237115Y-88574591D01*
X79229054Y-88570485D01*
X79178259Y-88522512D01*
X79161463Y-88454692D01*
X79183999Y-88388556D01*
X79229054Y-88349515D01*
X79237816Y-88345051D01*
X79282034Y-88312925D01*
X79409786Y-88220109D01*
X79409788Y-88220106D01*
X79409792Y-88220104D01*
X79560104Y-88069792D01*
X79560106Y-88069788D01*
X79560109Y-88069786D01*
X79685048Y-87897820D01*
X79685047Y-87897820D01*
X79685051Y-87897816D01*
X79781557Y-87708412D01*
X79847246Y-87506243D01*
X79880500Y-87296287D01*
X79880500Y-87083713D01*
X79847246Y-86873757D01*
X79781557Y-86671588D01*
X79685051Y-86482184D01*
X79685049Y-86482181D01*
X79685048Y-86482179D01*
X79560109Y-86310213D01*
X79409786Y-86159890D01*
X79237820Y-86034951D01*
X79237115Y-86034591D01*
X79229054Y-86030485D01*
X79178259Y-85982512D01*
X79161463Y-85914692D01*
X79183999Y-85848556D01*
X79229054Y-85809515D01*
X79237816Y-85805051D01*
X79282034Y-85772925D01*
X79409786Y-85680109D01*
X79409788Y-85680106D01*
X79409792Y-85680104D01*
X79560104Y-85529792D01*
X79560106Y-85529788D01*
X79560109Y-85529786D01*
X79685048Y-85357820D01*
X79685047Y-85357820D01*
X79685051Y-85357816D01*
X79781557Y-85168412D01*
X79847246Y-84966243D01*
X79880500Y-84756287D01*
X79880500Y-84543713D01*
X79847246Y-84333757D01*
X79781557Y-84131588D01*
X79685051Y-83942184D01*
X79685049Y-83942181D01*
X79685048Y-83942179D01*
X79560109Y-83770213D01*
X79446181Y-83656285D01*
X79412696Y-83594962D01*
X79417680Y-83525270D01*
X79459552Y-83469337D01*
X79490529Y-83452422D01*
X79622086Y-83403354D01*
X79622093Y-83403350D01*
X79737187Y-83317190D01*
X79737190Y-83317187D01*
X79823350Y-83202093D01*
X79823354Y-83202086D01*
X79873596Y-83067379D01*
X79873598Y-83067372D01*
X79879999Y-83007844D01*
X79880000Y-83007827D01*
X79880000Y-82360000D01*
X78963012Y-82360000D01*
X78995925Y-82302993D01*
X79030000Y-82175826D01*
X79030000Y-82044174D01*
X78995925Y-81917007D01*
X78963012Y-81860000D01*
X79880000Y-81860000D01*
X79880000Y-81212172D01*
X79879999Y-81212155D01*
X79873598Y-81152627D01*
X79873596Y-81152620D01*
X79823354Y-81017913D01*
X79823350Y-81017906D01*
X79737190Y-80902812D01*
X79737187Y-80902809D01*
X79622093Y-80816649D01*
X79622086Y-80816645D01*
X79487379Y-80766403D01*
X79487372Y-80766401D01*
X79427844Y-80760000D01*
X78780000Y-80760000D01*
X78780000Y-81676988D01*
X78722993Y-81644075D01*
X78595826Y-81610000D01*
X78464174Y-81610000D01*
X78337007Y-81644075D01*
X78280000Y-81676988D01*
X78280000Y-80760000D01*
X77632155Y-80760000D01*
X77572627Y-80766401D01*
X77572620Y-80766403D01*
X77437913Y-80816645D01*
X77437906Y-80816649D01*
X77322812Y-80902809D01*
X77322809Y-80902812D01*
X77236649Y-81017906D01*
X77236645Y-81017913D01*
X77186403Y-81152620D01*
X77186401Y-81152627D01*
X77180000Y-81212155D01*
X77180000Y-81860000D01*
X78096988Y-81860000D01*
X78064075Y-81917007D01*
X78030000Y-82044174D01*
X78030000Y-82175826D01*
X78064075Y-82302993D01*
X78096988Y-82360000D01*
X77180000Y-82360000D01*
X77180000Y-83007844D01*
X77186401Y-83067372D01*
X77186403Y-83067379D01*
X77236645Y-83202086D01*
X77236649Y-83202093D01*
X77322809Y-83317187D01*
X77322812Y-83317190D01*
X77437906Y-83403350D01*
X77437913Y-83403354D01*
X77569470Y-83452422D01*
X77625404Y-83494293D01*
X77649821Y-83559758D01*
X77634969Y-83628031D01*
X77613819Y-83656285D01*
X77499889Y-83770215D01*
X77374951Y-83942179D01*
X77278444Y-84131585D01*
X77212753Y-84333760D01*
X77179500Y-84543713D01*
X30560500Y-84543713D01*
X30560500Y-81938711D01*
X33619500Y-81938711D01*
X33619500Y-82181288D01*
X33651161Y-82421785D01*
X33713947Y-82656104D01*
X33806773Y-82880205D01*
X33806776Y-82880212D01*
X33928064Y-83090289D01*
X33928066Y-83090292D01*
X33928067Y-83090293D01*
X34075733Y-83282736D01*
X34075739Y-83282743D01*
X34247256Y-83454260D01*
X34247263Y-83454266D01*
X34339798Y-83525270D01*
X34439711Y-83601936D01*
X34649788Y-83723224D01*
X34873900Y-83816054D01*
X35108211Y-83878838D01*
X35288586Y-83902584D01*
X35348711Y-83910500D01*
X35348712Y-83910500D01*
X35591289Y-83910500D01*
X35639388Y-83904167D01*
X35831789Y-83878838D01*
X36066100Y-83816054D01*
X36290212Y-83723224D01*
X36500289Y-83601936D01*
X36692738Y-83454265D01*
X36864265Y-83282738D01*
X37011936Y-83090289D01*
X37133224Y-82880212D01*
X37226054Y-82656100D01*
X37288838Y-82421789D01*
X37320500Y-82181288D01*
X37320500Y-81938712D01*
X37288838Y-81698211D01*
X37226054Y-81463900D01*
X37133224Y-81239788D01*
X37011936Y-81029711D01*
X36934896Y-80929310D01*
X36864266Y-80837263D01*
X36864260Y-80837256D01*
X36692743Y-80665739D01*
X36692736Y-80665733D01*
X36500293Y-80518067D01*
X36500292Y-80518066D01*
X36500289Y-80518064D01*
X36290212Y-80396776D01*
X36290205Y-80396773D01*
X36066104Y-80303947D01*
X35831785Y-80241161D01*
X35591289Y-80209500D01*
X35591288Y-80209500D01*
X35348712Y-80209500D01*
X35348711Y-80209500D01*
X35108214Y-80241161D01*
X34873895Y-80303947D01*
X34649794Y-80396773D01*
X34649785Y-80396777D01*
X34439706Y-80518067D01*
X34247263Y-80665733D01*
X34247256Y-80665739D01*
X34075739Y-80837256D01*
X34075733Y-80837263D01*
X33928067Y-81029706D01*
X33928064Y-81029710D01*
X33928064Y-81029711D01*
X33911817Y-81057851D01*
X33806777Y-81239785D01*
X33806773Y-81239794D01*
X33713947Y-81463895D01*
X33651161Y-81698214D01*
X33619500Y-81938711D01*
X30560500Y-81938711D01*
X30560500Y-77154500D01*
X30580185Y-77087461D01*
X30632989Y-77041706D01*
X30684500Y-77030500D01*
X114925500Y-77030500D01*
X114992539Y-77050185D01*
G37*
%TD.AperFunction*%
%TD*%
M02*
