%TF.GenerationSoftware,KiCad,Pcbnew,9.0.7*%
%TF.CreationDate,2026-01-16T03:08:10+02:00*%
%TF.ProjectId,HackPad,4861636b-5061-4642-9e6b-696361645f70,rev?*%
%TF.SameCoordinates,Original*%
%TF.FileFunction,Legend,Top*%
%TF.FilePolarity,Positive*%
%FSLAX46Y46*%
G04 Gerber Fmt 4.6, Leading zero omitted, Abs format (unit mm)*
G04 Created by KiCad (PCBNEW 9.0.7) date 2026-01-16 03:08:10*
%MOMM*%
%LPD*%
G01*
G04 APERTURE LIST*
%ADD10C,0.150000*%
%ADD11C,0.040000*%
%ADD12C,0.120000*%
G04 APERTURE END LIST*
D10*
X33126779Y-94019819D02*
X33126779Y-93019819D01*
X33126779Y-93496009D02*
X33698207Y-93496009D01*
X33698207Y-94019819D02*
X33698207Y-93019819D01*
X34555350Y-93972200D02*
X34460112Y-94019819D01*
X34460112Y-94019819D02*
X34269636Y-94019819D01*
X34269636Y-94019819D02*
X34174398Y-93972200D01*
X34174398Y-93972200D02*
X34126779Y-93876961D01*
X34126779Y-93876961D02*
X34126779Y-93496009D01*
X34126779Y-93496009D02*
X34174398Y-93400771D01*
X34174398Y-93400771D02*
X34269636Y-93353152D01*
X34269636Y-93353152D02*
X34460112Y-93353152D01*
X34460112Y-93353152D02*
X34555350Y-93400771D01*
X34555350Y-93400771D02*
X34602969Y-93496009D01*
X34602969Y-93496009D02*
X34602969Y-93591247D01*
X34602969Y-93591247D02*
X34126779Y-93686485D01*
X35031541Y-94019819D02*
X35031541Y-93353152D01*
X35031541Y-93543628D02*
X35079160Y-93448390D01*
X35079160Y-93448390D02*
X35126779Y-93400771D01*
X35126779Y-93400771D02*
X35222017Y-93353152D01*
X35222017Y-93353152D02*
X35317255Y-93353152D01*
X36031541Y-93972200D02*
X35936303Y-94019819D01*
X35936303Y-94019819D02*
X35745827Y-94019819D01*
X35745827Y-94019819D02*
X35650589Y-93972200D01*
X35650589Y-93972200D02*
X35602970Y-93876961D01*
X35602970Y-93876961D02*
X35602970Y-93496009D01*
X35602970Y-93496009D02*
X35650589Y-93400771D01*
X35650589Y-93400771D02*
X35745827Y-93353152D01*
X35745827Y-93353152D02*
X35936303Y-93353152D01*
X35936303Y-93353152D02*
X36031541Y-93400771D01*
X36031541Y-93400771D02*
X36079160Y-93496009D01*
X36079160Y-93496009D02*
X36079160Y-93591247D01*
X36079160Y-93591247D02*
X35602970Y-93686485D01*
X37269637Y-94019819D02*
X37269637Y-93353152D01*
X37269637Y-93448390D02*
X37317256Y-93400771D01*
X37317256Y-93400771D02*
X37412494Y-93353152D01*
X37412494Y-93353152D02*
X37555351Y-93353152D01*
X37555351Y-93353152D02*
X37650589Y-93400771D01*
X37650589Y-93400771D02*
X37698208Y-93496009D01*
X37698208Y-93496009D02*
X37698208Y-94019819D01*
X37698208Y-93496009D02*
X37745827Y-93400771D01*
X37745827Y-93400771D02*
X37841065Y-93353152D01*
X37841065Y-93353152D02*
X37983922Y-93353152D01*
X37983922Y-93353152D02*
X38079161Y-93400771D01*
X38079161Y-93400771D02*
X38126780Y-93496009D01*
X38126780Y-93496009D02*
X38126780Y-94019819D01*
X38745827Y-94019819D02*
X38650589Y-93972200D01*
X38650589Y-93972200D02*
X38602970Y-93924580D01*
X38602970Y-93924580D02*
X38555351Y-93829342D01*
X38555351Y-93829342D02*
X38555351Y-93543628D01*
X38555351Y-93543628D02*
X38602970Y-93448390D01*
X38602970Y-93448390D02*
X38650589Y-93400771D01*
X38650589Y-93400771D02*
X38745827Y-93353152D01*
X38745827Y-93353152D02*
X38888684Y-93353152D01*
X38888684Y-93353152D02*
X38983922Y-93400771D01*
X38983922Y-93400771D02*
X39031541Y-93448390D01*
X39031541Y-93448390D02*
X39079160Y-93543628D01*
X39079160Y-93543628D02*
X39079160Y-93829342D01*
X39079160Y-93829342D02*
X39031541Y-93924580D01*
X39031541Y-93924580D02*
X38983922Y-93972200D01*
X38983922Y-93972200D02*
X38888684Y-94019819D01*
X38888684Y-94019819D02*
X38745827Y-94019819D01*
X39507732Y-94019819D02*
X39507732Y-93353152D01*
X39507732Y-93448390D02*
X39555351Y-93400771D01*
X39555351Y-93400771D02*
X39650589Y-93353152D01*
X39650589Y-93353152D02*
X39793446Y-93353152D01*
X39793446Y-93353152D02*
X39888684Y-93400771D01*
X39888684Y-93400771D02*
X39936303Y-93496009D01*
X39936303Y-93496009D02*
X39936303Y-94019819D01*
X39936303Y-93496009D02*
X39983922Y-93400771D01*
X39983922Y-93400771D02*
X40079160Y-93353152D01*
X40079160Y-93353152D02*
X40222017Y-93353152D01*
X40222017Y-93353152D02*
X40317256Y-93400771D01*
X40317256Y-93400771D02*
X40364875Y-93496009D01*
X40364875Y-93496009D02*
X40364875Y-94019819D01*
X40841065Y-93924580D02*
X40888684Y-93972200D01*
X40888684Y-93972200D02*
X40841065Y-94019819D01*
X40841065Y-94019819D02*
X40793446Y-93972200D01*
X40793446Y-93972200D02*
X40841065Y-93924580D01*
X40841065Y-93924580D02*
X40841065Y-94019819D01*
X41317255Y-93924580D02*
X41364874Y-93972200D01*
X41364874Y-93972200D02*
X41317255Y-94019819D01*
X41317255Y-94019819D02*
X41269636Y-93972200D01*
X41269636Y-93972200D02*
X41317255Y-93924580D01*
X41317255Y-93924580D02*
X41317255Y-94019819D01*
X41793445Y-93924580D02*
X41841064Y-93972200D01*
X41841064Y-93972200D02*
X41793445Y-94019819D01*
X41793445Y-94019819D02*
X41745826Y-93972200D01*
X41745826Y-93972200D02*
X41793445Y-93924580D01*
X41793445Y-93924580D02*
X41793445Y-94019819D01*
X43031540Y-94019819D02*
X43031540Y-93019819D01*
X43031540Y-93019819D02*
X43364873Y-93734104D01*
X43364873Y-93734104D02*
X43698206Y-93019819D01*
X43698206Y-93019819D02*
X43698206Y-94019819D01*
X44317254Y-94019819D02*
X44222016Y-93972200D01*
X44222016Y-93972200D02*
X44174397Y-93924580D01*
X44174397Y-93924580D02*
X44126778Y-93829342D01*
X44126778Y-93829342D02*
X44126778Y-93543628D01*
X44126778Y-93543628D02*
X44174397Y-93448390D01*
X44174397Y-93448390D02*
X44222016Y-93400771D01*
X44222016Y-93400771D02*
X44317254Y-93353152D01*
X44317254Y-93353152D02*
X44460111Y-93353152D01*
X44460111Y-93353152D02*
X44555349Y-93400771D01*
X44555349Y-93400771D02*
X44602968Y-93448390D01*
X44602968Y-93448390D02*
X44650587Y-93543628D01*
X44650587Y-93543628D02*
X44650587Y-93829342D01*
X44650587Y-93829342D02*
X44602968Y-93924580D01*
X44602968Y-93924580D02*
X44555349Y-93972200D01*
X44555349Y-93972200D02*
X44460111Y-94019819D01*
X44460111Y-94019819D02*
X44317254Y-94019819D01*
X45079159Y-94019819D02*
X45079159Y-93353152D01*
X45079159Y-93448390D02*
X45126778Y-93400771D01*
X45126778Y-93400771D02*
X45222016Y-93353152D01*
X45222016Y-93353152D02*
X45364873Y-93353152D01*
X45364873Y-93353152D02*
X45460111Y-93400771D01*
X45460111Y-93400771D02*
X45507730Y-93496009D01*
X45507730Y-93496009D02*
X45507730Y-94019819D01*
X45507730Y-93496009D02*
X45555349Y-93400771D01*
X45555349Y-93400771D02*
X45650587Y-93353152D01*
X45650587Y-93353152D02*
X45793444Y-93353152D01*
X45793444Y-93353152D02*
X45888683Y-93400771D01*
X45888683Y-93400771D02*
X45936302Y-93496009D01*
X45936302Y-93496009D02*
X45936302Y-94019819D01*
X47936302Y-93353152D02*
X47174397Y-93638866D01*
X47174397Y-93638866D02*
X47936302Y-93924580D01*
X48317254Y-93019819D02*
X48936301Y-93019819D01*
X48936301Y-93019819D02*
X48602968Y-93400771D01*
X48602968Y-93400771D02*
X48745825Y-93400771D01*
X48745825Y-93400771D02*
X48841063Y-93448390D01*
X48841063Y-93448390D02*
X48888682Y-93496009D01*
X48888682Y-93496009D02*
X48936301Y-93591247D01*
X48936301Y-93591247D02*
X48936301Y-93829342D01*
X48936301Y-93829342D02*
X48888682Y-93924580D01*
X48888682Y-93924580D02*
X48841063Y-93972200D01*
X48841063Y-93972200D02*
X48745825Y-94019819D01*
X48745825Y-94019819D02*
X48460111Y-94019819D01*
X48460111Y-94019819D02*
X48364873Y-93972200D01*
X48364873Y-93972200D02*
X48317254Y-93924580D01*
X33306779Y-91389819D02*
X33306779Y-90389819D01*
X33306779Y-90389819D02*
X33640112Y-91104104D01*
X33640112Y-91104104D02*
X33973445Y-90389819D01*
X33973445Y-90389819D02*
X33973445Y-91389819D01*
X34449636Y-91389819D02*
X34449636Y-90723152D01*
X34449636Y-90913628D02*
X34497255Y-90818390D01*
X34497255Y-90818390D02*
X34544874Y-90770771D01*
X34544874Y-90770771D02*
X34640112Y-90723152D01*
X34640112Y-90723152D02*
X34735350Y-90723152D01*
X35068684Y-91294580D02*
X35116303Y-91342200D01*
X35116303Y-91342200D02*
X35068684Y-91389819D01*
X35068684Y-91389819D02*
X35021065Y-91342200D01*
X35021065Y-91342200D02*
X35068684Y-91294580D01*
X35068684Y-91294580D02*
X35068684Y-91389819D01*
X36497255Y-90389819D02*
X36687731Y-90389819D01*
X36687731Y-90389819D02*
X36782969Y-90437438D01*
X36782969Y-90437438D02*
X36878207Y-90532676D01*
X36878207Y-90532676D02*
X36925826Y-90723152D01*
X36925826Y-90723152D02*
X36925826Y-91056485D01*
X36925826Y-91056485D02*
X36878207Y-91246961D01*
X36878207Y-91246961D02*
X36782969Y-91342200D01*
X36782969Y-91342200D02*
X36687731Y-91389819D01*
X36687731Y-91389819D02*
X36497255Y-91389819D01*
X36497255Y-91389819D02*
X36402017Y-91342200D01*
X36402017Y-91342200D02*
X36306779Y-91246961D01*
X36306779Y-91246961D02*
X36259160Y-91056485D01*
X36259160Y-91056485D02*
X36259160Y-90723152D01*
X36259160Y-90723152D02*
X36306779Y-90532676D01*
X36306779Y-90532676D02*
X36402017Y-90437438D01*
X36402017Y-90437438D02*
X36497255Y-90389819D01*
X38878208Y-90723152D02*
X38116303Y-91008866D01*
X38116303Y-91008866D02*
X38878208Y-91294580D01*
X39259160Y-90389819D02*
X39878207Y-90389819D01*
X39878207Y-90389819D02*
X39544874Y-90770771D01*
X39544874Y-90770771D02*
X39687731Y-90770771D01*
X39687731Y-90770771D02*
X39782969Y-90818390D01*
X39782969Y-90818390D02*
X39830588Y-90866009D01*
X39830588Y-90866009D02*
X39878207Y-90961247D01*
X39878207Y-90961247D02*
X39878207Y-91199342D01*
X39878207Y-91199342D02*
X39830588Y-91294580D01*
X39830588Y-91294580D02*
X39782969Y-91342200D01*
X39782969Y-91342200D02*
X39687731Y-91389819D01*
X39687731Y-91389819D02*
X39402017Y-91389819D01*
X39402017Y-91389819D02*
X39306779Y-91342200D01*
X39306779Y-91342200D02*
X39259160Y-91294580D01*
X31896666Y-129364819D02*
X31563333Y-128888628D01*
X31325238Y-129364819D02*
X31325238Y-128364819D01*
X31325238Y-128364819D02*
X31706190Y-128364819D01*
X31706190Y-128364819D02*
X31801428Y-128412438D01*
X31801428Y-128412438D02*
X31849047Y-128460057D01*
X31849047Y-128460057D02*
X31896666Y-128555295D01*
X31896666Y-128555295D02*
X31896666Y-128698152D01*
X31896666Y-128698152D02*
X31849047Y-128793390D01*
X31849047Y-128793390D02*
X31801428Y-128841009D01*
X31801428Y-128841009D02*
X31706190Y-128888628D01*
X31706190Y-128888628D02*
X31325238Y-128888628D01*
X32325238Y-128841009D02*
X32658571Y-128841009D01*
X32801428Y-129364819D02*
X32325238Y-129364819D01*
X32325238Y-129364819D02*
X32325238Y-128364819D01*
X32325238Y-128364819D02*
X32801428Y-128364819D01*
X33563333Y-128841009D02*
X33230000Y-128841009D01*
X33230000Y-129364819D02*
X33230000Y-128364819D01*
X33230000Y-128364819D02*
X33706190Y-128364819D01*
X34230000Y-128364819D02*
X34230000Y-128602914D01*
X33991905Y-128507676D02*
X34230000Y-128602914D01*
X34230000Y-128602914D02*
X34468095Y-128507676D01*
X34087143Y-128793390D02*
X34230000Y-128602914D01*
X34230000Y-128602914D02*
X34372857Y-128793390D01*
X34991905Y-128364819D02*
X34991905Y-128602914D01*
X34753810Y-128507676D02*
X34991905Y-128602914D01*
X34991905Y-128602914D02*
X35230000Y-128507676D01*
X34849048Y-128793390D02*
X34991905Y-128602914D01*
X34991905Y-128602914D02*
X35134762Y-128793390D01*
X34136666Y-78364819D02*
X33803333Y-77888628D01*
X33565238Y-78364819D02*
X33565238Y-77364819D01*
X33565238Y-77364819D02*
X33946190Y-77364819D01*
X33946190Y-77364819D02*
X34041428Y-77412438D01*
X34041428Y-77412438D02*
X34089047Y-77460057D01*
X34089047Y-77460057D02*
X34136666Y-77555295D01*
X34136666Y-77555295D02*
X34136666Y-77698152D01*
X34136666Y-77698152D02*
X34089047Y-77793390D01*
X34089047Y-77793390D02*
X34041428Y-77841009D01*
X34041428Y-77841009D02*
X33946190Y-77888628D01*
X33946190Y-77888628D02*
X33565238Y-77888628D01*
X34565238Y-77841009D02*
X34898571Y-77841009D01*
X35041428Y-78364819D02*
X34565238Y-78364819D01*
X34565238Y-78364819D02*
X34565238Y-77364819D01*
X34565238Y-77364819D02*
X35041428Y-77364819D01*
X35803333Y-77841009D02*
X35470000Y-77841009D01*
X35470000Y-78364819D02*
X35470000Y-77364819D01*
X35470000Y-77364819D02*
X35946190Y-77364819D01*
X36470000Y-77364819D02*
X36470000Y-77602914D01*
X36231905Y-77507676D02*
X36470000Y-77602914D01*
X36470000Y-77602914D02*
X36708095Y-77507676D01*
X36327143Y-77793390D02*
X36470000Y-77602914D01*
X36470000Y-77602914D02*
X36612857Y-77793390D01*
X37231905Y-77364819D02*
X37231905Y-77602914D01*
X36993810Y-77507676D02*
X37231905Y-77602914D01*
X37231905Y-77602914D02*
X37470000Y-77507676D01*
X37089048Y-77793390D02*
X37231905Y-77602914D01*
X37231905Y-77602914D02*
X37374762Y-77793390D01*
X104786666Y-125524819D02*
X104453333Y-125048628D01*
X104215238Y-125524819D02*
X104215238Y-124524819D01*
X104215238Y-124524819D02*
X104596190Y-124524819D01*
X104596190Y-124524819D02*
X104691428Y-124572438D01*
X104691428Y-124572438D02*
X104739047Y-124620057D01*
X104739047Y-124620057D02*
X104786666Y-124715295D01*
X104786666Y-124715295D02*
X104786666Y-124858152D01*
X104786666Y-124858152D02*
X104739047Y-124953390D01*
X104739047Y-124953390D02*
X104691428Y-125001009D01*
X104691428Y-125001009D02*
X104596190Y-125048628D01*
X104596190Y-125048628D02*
X104215238Y-125048628D01*
X105215238Y-125001009D02*
X105548571Y-125001009D01*
X105691428Y-125524819D02*
X105215238Y-125524819D01*
X105215238Y-125524819D02*
X105215238Y-124524819D01*
X105215238Y-124524819D02*
X105691428Y-124524819D01*
X106453333Y-125001009D02*
X106120000Y-125001009D01*
X106120000Y-125524819D02*
X106120000Y-124524819D01*
X106120000Y-124524819D02*
X106596190Y-124524819D01*
X107120000Y-124524819D02*
X107120000Y-124762914D01*
X106881905Y-124667676D02*
X107120000Y-124762914D01*
X107120000Y-124762914D02*
X107358095Y-124667676D01*
X106977143Y-124953390D02*
X107120000Y-124762914D01*
X107120000Y-124762914D02*
X107262857Y-124953390D01*
X107881905Y-124524819D02*
X107881905Y-124762914D01*
X107643810Y-124667676D02*
X107881905Y-124762914D01*
X107881905Y-124762914D02*
X108120000Y-124667676D01*
X107739048Y-124953390D02*
X107881905Y-124762914D01*
X107881905Y-124762914D02*
X108024762Y-124953390D01*
X43384819Y-87758571D02*
X43384819Y-87568095D01*
X43384819Y-87568095D02*
X43432438Y-87472857D01*
X43432438Y-87472857D02*
X43527676Y-87377619D01*
X43527676Y-87377619D02*
X43718152Y-87330000D01*
X43718152Y-87330000D02*
X44051485Y-87330000D01*
X44051485Y-87330000D02*
X44241961Y-87377619D01*
X44241961Y-87377619D02*
X44337200Y-87472857D01*
X44337200Y-87472857D02*
X44384819Y-87568095D01*
X44384819Y-87568095D02*
X44384819Y-87758571D01*
X44384819Y-87758571D02*
X44337200Y-87853809D01*
X44337200Y-87853809D02*
X44241961Y-87949047D01*
X44241961Y-87949047D02*
X44051485Y-87996666D01*
X44051485Y-87996666D02*
X43718152Y-87996666D01*
X43718152Y-87996666D02*
X43527676Y-87949047D01*
X43527676Y-87949047D02*
X43432438Y-87853809D01*
X43432438Y-87853809D02*
X43384819Y-87758571D01*
X44384819Y-86425238D02*
X44384819Y-86901428D01*
X44384819Y-86901428D02*
X43384819Y-86901428D01*
X43861009Y-86091904D02*
X43861009Y-85758571D01*
X44384819Y-85615714D02*
X44384819Y-86091904D01*
X44384819Y-86091904D02*
X43384819Y-86091904D01*
X43384819Y-86091904D02*
X43384819Y-85615714D01*
X44384819Y-85187142D02*
X43384819Y-85187142D01*
X43384819Y-85187142D02*
X43384819Y-84949047D01*
X43384819Y-84949047D02*
X43432438Y-84806190D01*
X43432438Y-84806190D02*
X43527676Y-84710952D01*
X43527676Y-84710952D02*
X43622914Y-84663333D01*
X43622914Y-84663333D02*
X43813390Y-84615714D01*
X43813390Y-84615714D02*
X43956247Y-84615714D01*
X43956247Y-84615714D02*
X44146723Y-84663333D01*
X44146723Y-84663333D02*
X44241961Y-84710952D01*
X44241961Y-84710952D02*
X44337200Y-84806190D01*
X44337200Y-84806190D02*
X44384819Y-84949047D01*
X44384819Y-84949047D02*
X44384819Y-85187142D01*
X44384819Y-83663333D02*
X44384819Y-84234761D01*
X44384819Y-83949047D02*
X43384819Y-83949047D01*
X43384819Y-83949047D02*
X43527676Y-84044285D01*
X43527676Y-84044285D02*
X43622914Y-84139523D01*
X43622914Y-84139523D02*
X43670533Y-84234761D01*
X75324878Y-82681428D02*
X75289164Y-82752857D01*
X75289164Y-82752857D02*
X75289164Y-82859999D01*
X75289164Y-82859999D02*
X75324878Y-82967142D01*
X75324878Y-82967142D02*
X75396307Y-83038571D01*
X75396307Y-83038571D02*
X75467735Y-83074285D01*
X75467735Y-83074285D02*
X75610592Y-83109999D01*
X75610592Y-83109999D02*
X75717735Y-83109999D01*
X75717735Y-83109999D02*
X75860592Y-83074285D01*
X75860592Y-83074285D02*
X75932021Y-83038571D01*
X75932021Y-83038571D02*
X76003450Y-82967142D01*
X76003450Y-82967142D02*
X76039164Y-82859999D01*
X76039164Y-82859999D02*
X76039164Y-82788571D01*
X76039164Y-82788571D02*
X76003450Y-82681428D01*
X76003450Y-82681428D02*
X75967735Y-82645714D01*
X75967735Y-82645714D02*
X75717735Y-82645714D01*
X75717735Y-82645714D02*
X75717735Y-82788571D01*
X76039164Y-82324285D02*
X75289164Y-82324285D01*
X75289164Y-82324285D02*
X76039164Y-81895714D01*
X76039164Y-81895714D02*
X75289164Y-81895714D01*
X76039164Y-81538571D02*
X75289164Y-81538571D01*
X75289164Y-81538571D02*
X75289164Y-81360000D01*
X75289164Y-81360000D02*
X75324878Y-81252857D01*
X75324878Y-81252857D02*
X75396307Y-81181428D01*
X75396307Y-81181428D02*
X75467735Y-81145714D01*
X75467735Y-81145714D02*
X75610592Y-81110000D01*
X75610592Y-81110000D02*
X75717735Y-81110000D01*
X75717735Y-81110000D02*
X75860592Y-81145714D01*
X75860592Y-81145714D02*
X75932021Y-81181428D01*
X75932021Y-81181428D02*
X76003450Y-81252857D01*
X76003450Y-81252857D02*
X76039164Y-81360000D01*
X76039164Y-81360000D02*
X76039164Y-81538571D01*
X75289164Y-85579999D02*
X76039164Y-85329999D01*
X76039164Y-85329999D02*
X75289164Y-85079999D01*
X75967735Y-84401428D02*
X76003450Y-84437142D01*
X76003450Y-84437142D02*
X76039164Y-84544285D01*
X76039164Y-84544285D02*
X76039164Y-84615713D01*
X76039164Y-84615713D02*
X76003450Y-84722856D01*
X76003450Y-84722856D02*
X75932021Y-84794285D01*
X75932021Y-84794285D02*
X75860592Y-84829999D01*
X75860592Y-84829999D02*
X75717735Y-84865713D01*
X75717735Y-84865713D02*
X75610592Y-84865713D01*
X75610592Y-84865713D02*
X75467735Y-84829999D01*
X75467735Y-84829999D02*
X75396307Y-84794285D01*
X75396307Y-84794285D02*
X75324878Y-84722856D01*
X75324878Y-84722856D02*
X75289164Y-84615713D01*
X75289164Y-84615713D02*
X75289164Y-84544285D01*
X75289164Y-84544285D02*
X75324878Y-84437142D01*
X75324878Y-84437142D02*
X75360592Y-84401428D01*
X75967735Y-83651428D02*
X76003450Y-83687142D01*
X76003450Y-83687142D02*
X76039164Y-83794285D01*
X76039164Y-83794285D02*
X76039164Y-83865713D01*
X76039164Y-83865713D02*
X76003450Y-83972856D01*
X76003450Y-83972856D02*
X75932021Y-84044285D01*
X75932021Y-84044285D02*
X75860592Y-84079999D01*
X75860592Y-84079999D02*
X75717735Y-84115713D01*
X75717735Y-84115713D02*
X75610592Y-84115713D01*
X75610592Y-84115713D02*
X75467735Y-84079999D01*
X75467735Y-84079999D02*
X75396307Y-84044285D01*
X75396307Y-84044285D02*
X75324878Y-83972856D01*
X75324878Y-83972856D02*
X75289164Y-83865713D01*
X75289164Y-83865713D02*
X75289164Y-83794285D01*
X75289164Y-83794285D02*
X75324878Y-83687142D01*
X75324878Y-83687142D02*
X75360592Y-83651428D01*
X76003450Y-88022856D02*
X76039164Y-87915714D01*
X76039164Y-87915714D02*
X76039164Y-87737142D01*
X76039164Y-87737142D02*
X76003450Y-87665714D01*
X76003450Y-87665714D02*
X75967735Y-87629999D01*
X75967735Y-87629999D02*
X75896307Y-87594285D01*
X75896307Y-87594285D02*
X75824878Y-87594285D01*
X75824878Y-87594285D02*
X75753450Y-87629999D01*
X75753450Y-87629999D02*
X75717735Y-87665714D01*
X75717735Y-87665714D02*
X75682021Y-87737142D01*
X75682021Y-87737142D02*
X75646307Y-87879999D01*
X75646307Y-87879999D02*
X75610592Y-87951428D01*
X75610592Y-87951428D02*
X75574878Y-87987142D01*
X75574878Y-87987142D02*
X75503450Y-88022856D01*
X75503450Y-88022856D02*
X75432021Y-88022856D01*
X75432021Y-88022856D02*
X75360592Y-87987142D01*
X75360592Y-87987142D02*
X75324878Y-87951428D01*
X75324878Y-87951428D02*
X75289164Y-87879999D01*
X75289164Y-87879999D02*
X75289164Y-87701428D01*
X75289164Y-87701428D02*
X75324878Y-87594285D01*
X75967735Y-86844285D02*
X76003450Y-86879999D01*
X76003450Y-86879999D02*
X76039164Y-86987142D01*
X76039164Y-86987142D02*
X76039164Y-87058570D01*
X76039164Y-87058570D02*
X76003450Y-87165713D01*
X76003450Y-87165713D02*
X75932021Y-87237142D01*
X75932021Y-87237142D02*
X75860592Y-87272856D01*
X75860592Y-87272856D02*
X75717735Y-87308570D01*
X75717735Y-87308570D02*
X75610592Y-87308570D01*
X75610592Y-87308570D02*
X75467735Y-87272856D01*
X75467735Y-87272856D02*
X75396307Y-87237142D01*
X75396307Y-87237142D02*
X75324878Y-87165713D01*
X75324878Y-87165713D02*
X75289164Y-87058570D01*
X75289164Y-87058570D02*
X75289164Y-86987142D01*
X75289164Y-86987142D02*
X75324878Y-86879999D01*
X75324878Y-86879999D02*
X75360592Y-86844285D01*
X76039164Y-86165713D02*
X76039164Y-86522856D01*
X76039164Y-86522856D02*
X75289164Y-86522856D01*
X76003450Y-90830713D02*
X76039164Y-90723571D01*
X76039164Y-90723571D02*
X76039164Y-90544999D01*
X76039164Y-90544999D02*
X76003450Y-90473571D01*
X76003450Y-90473571D02*
X75967735Y-90437856D01*
X75967735Y-90437856D02*
X75896307Y-90402142D01*
X75896307Y-90402142D02*
X75824878Y-90402142D01*
X75824878Y-90402142D02*
X75753450Y-90437856D01*
X75753450Y-90437856D02*
X75717735Y-90473571D01*
X75717735Y-90473571D02*
X75682021Y-90544999D01*
X75682021Y-90544999D02*
X75646307Y-90687856D01*
X75646307Y-90687856D02*
X75610592Y-90759285D01*
X75610592Y-90759285D02*
X75574878Y-90794999D01*
X75574878Y-90794999D02*
X75503450Y-90830713D01*
X75503450Y-90830713D02*
X75432021Y-90830713D01*
X75432021Y-90830713D02*
X75360592Y-90794999D01*
X75360592Y-90794999D02*
X75324878Y-90759285D01*
X75324878Y-90759285D02*
X75289164Y-90687856D01*
X75289164Y-90687856D02*
X75289164Y-90509285D01*
X75289164Y-90509285D02*
X75324878Y-90402142D01*
X76039164Y-90080713D02*
X75289164Y-90080713D01*
X75289164Y-90080713D02*
X75289164Y-89902142D01*
X75289164Y-89902142D02*
X75324878Y-89794999D01*
X75324878Y-89794999D02*
X75396307Y-89723570D01*
X75396307Y-89723570D02*
X75467735Y-89687856D01*
X75467735Y-89687856D02*
X75610592Y-89652142D01*
X75610592Y-89652142D02*
X75717735Y-89652142D01*
X75717735Y-89652142D02*
X75860592Y-89687856D01*
X75860592Y-89687856D02*
X75932021Y-89723570D01*
X75932021Y-89723570D02*
X76003450Y-89794999D01*
X76003450Y-89794999D02*
X76039164Y-89902142D01*
X76039164Y-89902142D02*
X76039164Y-90080713D01*
X75824878Y-89366427D02*
X75824878Y-89009285D01*
X76039164Y-89437856D02*
X75289164Y-89187856D01*
X75289164Y-89187856D02*
X76039164Y-88937856D01*
X57101428Y-85374819D02*
X57291904Y-85374819D01*
X57291904Y-85374819D02*
X57387142Y-85422438D01*
X57387142Y-85422438D02*
X57482380Y-85517676D01*
X57482380Y-85517676D02*
X57529999Y-85708152D01*
X57529999Y-85708152D02*
X57529999Y-86041485D01*
X57529999Y-86041485D02*
X57482380Y-86231961D01*
X57482380Y-86231961D02*
X57387142Y-86327200D01*
X57387142Y-86327200D02*
X57291904Y-86374819D01*
X57291904Y-86374819D02*
X57101428Y-86374819D01*
X57101428Y-86374819D02*
X57006190Y-86327200D01*
X57006190Y-86327200D02*
X56910952Y-86231961D01*
X56910952Y-86231961D02*
X56863333Y-86041485D01*
X56863333Y-86041485D02*
X56863333Y-85708152D01*
X56863333Y-85708152D02*
X56910952Y-85517676D01*
X56910952Y-85517676D02*
X57006190Y-85422438D01*
X57006190Y-85422438D02*
X57101428Y-85374819D01*
X58434761Y-86374819D02*
X57958571Y-86374819D01*
X57958571Y-86374819D02*
X57958571Y-85374819D01*
X58768095Y-85851009D02*
X59101428Y-85851009D01*
X59244285Y-86374819D02*
X58768095Y-86374819D01*
X58768095Y-86374819D02*
X58768095Y-85374819D01*
X58768095Y-85374819D02*
X59244285Y-85374819D01*
X59672857Y-86374819D02*
X59672857Y-85374819D01*
X59672857Y-85374819D02*
X59910952Y-85374819D01*
X59910952Y-85374819D02*
X60053809Y-85422438D01*
X60053809Y-85422438D02*
X60149047Y-85517676D01*
X60149047Y-85517676D02*
X60196666Y-85612914D01*
X60196666Y-85612914D02*
X60244285Y-85803390D01*
X60244285Y-85803390D02*
X60244285Y-85946247D01*
X60244285Y-85946247D02*
X60196666Y-86136723D01*
X60196666Y-86136723D02*
X60149047Y-86231961D01*
X60149047Y-86231961D02*
X60053809Y-86327200D01*
X60053809Y-86327200D02*
X59910952Y-86374819D01*
X59910952Y-86374819D02*
X59672857Y-86374819D01*
X61434762Y-86374819D02*
X61434762Y-85374819D01*
X61434762Y-85374819D02*
X61815714Y-85374819D01*
X61815714Y-85374819D02*
X61910952Y-85422438D01*
X61910952Y-85422438D02*
X61958571Y-85470057D01*
X61958571Y-85470057D02*
X62006190Y-85565295D01*
X62006190Y-85565295D02*
X62006190Y-85708152D01*
X62006190Y-85708152D02*
X61958571Y-85803390D01*
X61958571Y-85803390D02*
X61910952Y-85851009D01*
X61910952Y-85851009D02*
X61815714Y-85898628D01*
X61815714Y-85898628D02*
X61434762Y-85898628D01*
X62863333Y-86374819D02*
X62863333Y-85851009D01*
X62863333Y-85851009D02*
X62815714Y-85755771D01*
X62815714Y-85755771D02*
X62720476Y-85708152D01*
X62720476Y-85708152D02*
X62530000Y-85708152D01*
X62530000Y-85708152D02*
X62434762Y-85755771D01*
X62863333Y-86327200D02*
X62768095Y-86374819D01*
X62768095Y-86374819D02*
X62530000Y-86374819D01*
X62530000Y-86374819D02*
X62434762Y-86327200D01*
X62434762Y-86327200D02*
X62387143Y-86231961D01*
X62387143Y-86231961D02*
X62387143Y-86136723D01*
X62387143Y-86136723D02*
X62434762Y-86041485D01*
X62434762Y-86041485D02*
X62530000Y-85993866D01*
X62530000Y-85993866D02*
X62768095Y-85993866D01*
X62768095Y-85993866D02*
X62863333Y-85946247D01*
X63339524Y-85708152D02*
X63339524Y-86374819D01*
X63339524Y-85803390D02*
X63387143Y-85755771D01*
X63387143Y-85755771D02*
X63482381Y-85708152D01*
X63482381Y-85708152D02*
X63625238Y-85708152D01*
X63625238Y-85708152D02*
X63720476Y-85755771D01*
X63720476Y-85755771D02*
X63768095Y-85851009D01*
X63768095Y-85851009D02*
X63768095Y-86374819D01*
X64625238Y-86327200D02*
X64530000Y-86374819D01*
X64530000Y-86374819D02*
X64339524Y-86374819D01*
X64339524Y-86374819D02*
X64244286Y-86327200D01*
X64244286Y-86327200D02*
X64196667Y-86231961D01*
X64196667Y-86231961D02*
X64196667Y-85851009D01*
X64196667Y-85851009D02*
X64244286Y-85755771D01*
X64244286Y-85755771D02*
X64339524Y-85708152D01*
X64339524Y-85708152D02*
X64530000Y-85708152D01*
X64530000Y-85708152D02*
X64625238Y-85755771D01*
X64625238Y-85755771D02*
X64672857Y-85851009D01*
X64672857Y-85851009D02*
X64672857Y-85946247D01*
X64672857Y-85946247D02*
X64196667Y-86041485D01*
X65244286Y-86374819D02*
X65149048Y-86327200D01*
X65149048Y-86327200D02*
X65101429Y-86231961D01*
X65101429Y-86231961D02*
X65101429Y-85374819D01*
X60146667Y-116703200D02*
X60289524Y-116750819D01*
X60289524Y-116750819D02*
X60527619Y-116750819D01*
X60527619Y-116750819D02*
X60622857Y-116703200D01*
X60622857Y-116703200D02*
X60670476Y-116655580D01*
X60670476Y-116655580D02*
X60718095Y-116560342D01*
X60718095Y-116560342D02*
X60718095Y-116465104D01*
X60718095Y-116465104D02*
X60670476Y-116369866D01*
X60670476Y-116369866D02*
X60622857Y-116322247D01*
X60622857Y-116322247D02*
X60527619Y-116274628D01*
X60527619Y-116274628D02*
X60337143Y-116227009D01*
X60337143Y-116227009D02*
X60241905Y-116179390D01*
X60241905Y-116179390D02*
X60194286Y-116131771D01*
X60194286Y-116131771D02*
X60146667Y-116036533D01*
X60146667Y-116036533D02*
X60146667Y-115941295D01*
X60146667Y-115941295D02*
X60194286Y-115846057D01*
X60194286Y-115846057D02*
X60241905Y-115798438D01*
X60241905Y-115798438D02*
X60337143Y-115750819D01*
X60337143Y-115750819D02*
X60575238Y-115750819D01*
X60575238Y-115750819D02*
X60718095Y-115798438D01*
X61051429Y-115750819D02*
X61289524Y-116750819D01*
X61289524Y-116750819D02*
X61480000Y-116036533D01*
X61480000Y-116036533D02*
X61670476Y-116750819D01*
X61670476Y-116750819D02*
X61908572Y-115750819D01*
X62718095Y-116084152D02*
X62718095Y-116750819D01*
X62480000Y-115703200D02*
X62241905Y-116417485D01*
X62241905Y-116417485D02*
X62860952Y-116417485D01*
X60146667Y-97653200D02*
X60289524Y-97700819D01*
X60289524Y-97700819D02*
X60527619Y-97700819D01*
X60527619Y-97700819D02*
X60622857Y-97653200D01*
X60622857Y-97653200D02*
X60670476Y-97605580D01*
X60670476Y-97605580D02*
X60718095Y-97510342D01*
X60718095Y-97510342D02*
X60718095Y-97415104D01*
X60718095Y-97415104D02*
X60670476Y-97319866D01*
X60670476Y-97319866D02*
X60622857Y-97272247D01*
X60622857Y-97272247D02*
X60527619Y-97224628D01*
X60527619Y-97224628D02*
X60337143Y-97177009D01*
X60337143Y-97177009D02*
X60241905Y-97129390D01*
X60241905Y-97129390D02*
X60194286Y-97081771D01*
X60194286Y-97081771D02*
X60146667Y-96986533D01*
X60146667Y-96986533D02*
X60146667Y-96891295D01*
X60146667Y-96891295D02*
X60194286Y-96796057D01*
X60194286Y-96796057D02*
X60241905Y-96748438D01*
X60241905Y-96748438D02*
X60337143Y-96700819D01*
X60337143Y-96700819D02*
X60575238Y-96700819D01*
X60575238Y-96700819D02*
X60718095Y-96748438D01*
X61051429Y-96700819D02*
X61289524Y-97700819D01*
X61289524Y-97700819D02*
X61480000Y-96986533D01*
X61480000Y-96986533D02*
X61670476Y-97700819D01*
X61670476Y-97700819D02*
X61908572Y-96700819D01*
X62194286Y-96700819D02*
X62813333Y-96700819D01*
X62813333Y-96700819D02*
X62480000Y-97081771D01*
X62480000Y-97081771D02*
X62622857Y-97081771D01*
X62622857Y-97081771D02*
X62718095Y-97129390D01*
X62718095Y-97129390D02*
X62765714Y-97177009D01*
X62765714Y-97177009D02*
X62813333Y-97272247D01*
X62813333Y-97272247D02*
X62813333Y-97510342D01*
X62813333Y-97510342D02*
X62765714Y-97605580D01*
X62765714Y-97605580D02*
X62718095Y-97653200D01*
X62718095Y-97653200D02*
X62622857Y-97700819D01*
X62622857Y-97700819D02*
X62337143Y-97700819D01*
X62337143Y-97700819D02*
X62241905Y-97653200D01*
X62241905Y-97653200D02*
X62194286Y-97605580D01*
X41096667Y-116703200D02*
X41239524Y-116750819D01*
X41239524Y-116750819D02*
X41477619Y-116750819D01*
X41477619Y-116750819D02*
X41572857Y-116703200D01*
X41572857Y-116703200D02*
X41620476Y-116655580D01*
X41620476Y-116655580D02*
X41668095Y-116560342D01*
X41668095Y-116560342D02*
X41668095Y-116465104D01*
X41668095Y-116465104D02*
X41620476Y-116369866D01*
X41620476Y-116369866D02*
X41572857Y-116322247D01*
X41572857Y-116322247D02*
X41477619Y-116274628D01*
X41477619Y-116274628D02*
X41287143Y-116227009D01*
X41287143Y-116227009D02*
X41191905Y-116179390D01*
X41191905Y-116179390D02*
X41144286Y-116131771D01*
X41144286Y-116131771D02*
X41096667Y-116036533D01*
X41096667Y-116036533D02*
X41096667Y-115941295D01*
X41096667Y-115941295D02*
X41144286Y-115846057D01*
X41144286Y-115846057D02*
X41191905Y-115798438D01*
X41191905Y-115798438D02*
X41287143Y-115750819D01*
X41287143Y-115750819D02*
X41525238Y-115750819D01*
X41525238Y-115750819D02*
X41668095Y-115798438D01*
X42001429Y-115750819D02*
X42239524Y-116750819D01*
X42239524Y-116750819D02*
X42430000Y-116036533D01*
X42430000Y-116036533D02*
X42620476Y-116750819D01*
X42620476Y-116750819D02*
X42858572Y-115750819D01*
X43191905Y-115846057D02*
X43239524Y-115798438D01*
X43239524Y-115798438D02*
X43334762Y-115750819D01*
X43334762Y-115750819D02*
X43572857Y-115750819D01*
X43572857Y-115750819D02*
X43668095Y-115798438D01*
X43668095Y-115798438D02*
X43715714Y-115846057D01*
X43715714Y-115846057D02*
X43763333Y-115941295D01*
X43763333Y-115941295D02*
X43763333Y-116036533D01*
X43763333Y-116036533D02*
X43715714Y-116179390D01*
X43715714Y-116179390D02*
X43144286Y-116750819D01*
X43144286Y-116750819D02*
X43763333Y-116750819D01*
X41096667Y-97653200D02*
X41239524Y-97700819D01*
X41239524Y-97700819D02*
X41477619Y-97700819D01*
X41477619Y-97700819D02*
X41572857Y-97653200D01*
X41572857Y-97653200D02*
X41620476Y-97605580D01*
X41620476Y-97605580D02*
X41668095Y-97510342D01*
X41668095Y-97510342D02*
X41668095Y-97415104D01*
X41668095Y-97415104D02*
X41620476Y-97319866D01*
X41620476Y-97319866D02*
X41572857Y-97272247D01*
X41572857Y-97272247D02*
X41477619Y-97224628D01*
X41477619Y-97224628D02*
X41287143Y-97177009D01*
X41287143Y-97177009D02*
X41191905Y-97129390D01*
X41191905Y-97129390D02*
X41144286Y-97081771D01*
X41144286Y-97081771D02*
X41096667Y-96986533D01*
X41096667Y-96986533D02*
X41096667Y-96891295D01*
X41096667Y-96891295D02*
X41144286Y-96796057D01*
X41144286Y-96796057D02*
X41191905Y-96748438D01*
X41191905Y-96748438D02*
X41287143Y-96700819D01*
X41287143Y-96700819D02*
X41525238Y-96700819D01*
X41525238Y-96700819D02*
X41668095Y-96748438D01*
X42001429Y-96700819D02*
X42239524Y-97700819D01*
X42239524Y-97700819D02*
X42430000Y-96986533D01*
X42430000Y-96986533D02*
X42620476Y-97700819D01*
X42620476Y-97700819D02*
X42858572Y-96700819D01*
X43763333Y-97700819D02*
X43191905Y-97700819D01*
X43477619Y-97700819D02*
X43477619Y-96700819D01*
X43477619Y-96700819D02*
X43382381Y-96843676D01*
X43382381Y-96843676D02*
X43287143Y-96938914D01*
X43287143Y-96938914D02*
X43191905Y-96986533D01*
X79196667Y-116703200D02*
X79339524Y-116750819D01*
X79339524Y-116750819D02*
X79577619Y-116750819D01*
X79577619Y-116750819D02*
X79672857Y-116703200D01*
X79672857Y-116703200D02*
X79720476Y-116655580D01*
X79720476Y-116655580D02*
X79768095Y-116560342D01*
X79768095Y-116560342D02*
X79768095Y-116465104D01*
X79768095Y-116465104D02*
X79720476Y-116369866D01*
X79720476Y-116369866D02*
X79672857Y-116322247D01*
X79672857Y-116322247D02*
X79577619Y-116274628D01*
X79577619Y-116274628D02*
X79387143Y-116227009D01*
X79387143Y-116227009D02*
X79291905Y-116179390D01*
X79291905Y-116179390D02*
X79244286Y-116131771D01*
X79244286Y-116131771D02*
X79196667Y-116036533D01*
X79196667Y-116036533D02*
X79196667Y-115941295D01*
X79196667Y-115941295D02*
X79244286Y-115846057D01*
X79244286Y-115846057D02*
X79291905Y-115798438D01*
X79291905Y-115798438D02*
X79387143Y-115750819D01*
X79387143Y-115750819D02*
X79625238Y-115750819D01*
X79625238Y-115750819D02*
X79768095Y-115798438D01*
X80101429Y-115750819D02*
X80339524Y-116750819D01*
X80339524Y-116750819D02*
X80530000Y-116036533D01*
X80530000Y-116036533D02*
X80720476Y-116750819D01*
X80720476Y-116750819D02*
X80958572Y-115750819D01*
X81768095Y-115750819D02*
X81577619Y-115750819D01*
X81577619Y-115750819D02*
X81482381Y-115798438D01*
X81482381Y-115798438D02*
X81434762Y-115846057D01*
X81434762Y-115846057D02*
X81339524Y-115988914D01*
X81339524Y-115988914D02*
X81291905Y-116179390D01*
X81291905Y-116179390D02*
X81291905Y-116560342D01*
X81291905Y-116560342D02*
X81339524Y-116655580D01*
X81339524Y-116655580D02*
X81387143Y-116703200D01*
X81387143Y-116703200D02*
X81482381Y-116750819D01*
X81482381Y-116750819D02*
X81672857Y-116750819D01*
X81672857Y-116750819D02*
X81768095Y-116703200D01*
X81768095Y-116703200D02*
X81815714Y-116655580D01*
X81815714Y-116655580D02*
X81863333Y-116560342D01*
X81863333Y-116560342D02*
X81863333Y-116322247D01*
X81863333Y-116322247D02*
X81815714Y-116227009D01*
X81815714Y-116227009D02*
X81768095Y-116179390D01*
X81768095Y-116179390D02*
X81672857Y-116131771D01*
X81672857Y-116131771D02*
X81482381Y-116131771D01*
X81482381Y-116131771D02*
X81387143Y-116179390D01*
X81387143Y-116179390D02*
X81339524Y-116227009D01*
X81339524Y-116227009D02*
X81291905Y-116322247D01*
X79196667Y-97653200D02*
X79339524Y-97700819D01*
X79339524Y-97700819D02*
X79577619Y-97700819D01*
X79577619Y-97700819D02*
X79672857Y-97653200D01*
X79672857Y-97653200D02*
X79720476Y-97605580D01*
X79720476Y-97605580D02*
X79768095Y-97510342D01*
X79768095Y-97510342D02*
X79768095Y-97415104D01*
X79768095Y-97415104D02*
X79720476Y-97319866D01*
X79720476Y-97319866D02*
X79672857Y-97272247D01*
X79672857Y-97272247D02*
X79577619Y-97224628D01*
X79577619Y-97224628D02*
X79387143Y-97177009D01*
X79387143Y-97177009D02*
X79291905Y-97129390D01*
X79291905Y-97129390D02*
X79244286Y-97081771D01*
X79244286Y-97081771D02*
X79196667Y-96986533D01*
X79196667Y-96986533D02*
X79196667Y-96891295D01*
X79196667Y-96891295D02*
X79244286Y-96796057D01*
X79244286Y-96796057D02*
X79291905Y-96748438D01*
X79291905Y-96748438D02*
X79387143Y-96700819D01*
X79387143Y-96700819D02*
X79625238Y-96700819D01*
X79625238Y-96700819D02*
X79768095Y-96748438D01*
X80101429Y-96700819D02*
X80339524Y-97700819D01*
X80339524Y-97700819D02*
X80530000Y-96986533D01*
X80530000Y-96986533D02*
X80720476Y-97700819D01*
X80720476Y-97700819D02*
X80958572Y-96700819D01*
X81815714Y-96700819D02*
X81339524Y-96700819D01*
X81339524Y-96700819D02*
X81291905Y-97177009D01*
X81291905Y-97177009D02*
X81339524Y-97129390D01*
X81339524Y-97129390D02*
X81434762Y-97081771D01*
X81434762Y-97081771D02*
X81672857Y-97081771D01*
X81672857Y-97081771D02*
X81768095Y-97129390D01*
X81768095Y-97129390D02*
X81815714Y-97177009D01*
X81815714Y-97177009D02*
X81863333Y-97272247D01*
X81863333Y-97272247D02*
X81863333Y-97510342D01*
X81863333Y-97510342D02*
X81815714Y-97605580D01*
X81815714Y-97605580D02*
X81768095Y-97653200D01*
X81768095Y-97653200D02*
X81672857Y-97700819D01*
X81672857Y-97700819D02*
X81434762Y-97700819D01*
X81434762Y-97700819D02*
X81339524Y-97653200D01*
X81339524Y-97653200D02*
X81291905Y-97605580D01*
X104346667Y-108517200D02*
X104489524Y-108564819D01*
X104489524Y-108564819D02*
X104727619Y-108564819D01*
X104727619Y-108564819D02*
X104822857Y-108517200D01*
X104822857Y-108517200D02*
X104870476Y-108469580D01*
X104870476Y-108469580D02*
X104918095Y-108374342D01*
X104918095Y-108374342D02*
X104918095Y-108279104D01*
X104918095Y-108279104D02*
X104870476Y-108183866D01*
X104870476Y-108183866D02*
X104822857Y-108136247D01*
X104822857Y-108136247D02*
X104727619Y-108088628D01*
X104727619Y-108088628D02*
X104537143Y-108041009D01*
X104537143Y-108041009D02*
X104441905Y-107993390D01*
X104441905Y-107993390D02*
X104394286Y-107945771D01*
X104394286Y-107945771D02*
X104346667Y-107850533D01*
X104346667Y-107850533D02*
X104346667Y-107755295D01*
X104346667Y-107755295D02*
X104394286Y-107660057D01*
X104394286Y-107660057D02*
X104441905Y-107612438D01*
X104441905Y-107612438D02*
X104537143Y-107564819D01*
X104537143Y-107564819D02*
X104775238Y-107564819D01*
X104775238Y-107564819D02*
X104918095Y-107612438D01*
X105251429Y-107564819D02*
X105489524Y-108564819D01*
X105489524Y-108564819D02*
X105680000Y-107850533D01*
X105680000Y-107850533D02*
X105870476Y-108564819D01*
X105870476Y-108564819D02*
X106108572Y-107564819D01*
X106394286Y-107564819D02*
X107060952Y-107564819D01*
X107060952Y-107564819D02*
X106632381Y-108564819D01*
D11*
%TO.C,OLED1*%
X45530000Y-79920000D02*
X45530000Y-91920000D01*
X75030000Y-79920000D02*
X75030000Y-91920000D01*
X80030000Y-79920000D02*
X42030000Y-79920000D01*
X42030000Y-79920000D02*
X42030000Y-91920000D01*
X42030000Y-91920000D02*
X80030000Y-91920000D01*
X80030000Y-91920000D02*
X80030000Y-79920000D01*
D12*
%TO.C,SW4*%
X68465000Y-131155000D02*
X54495000Y-131155000D01*
X68465000Y-117185000D02*
X68465000Y-131155000D01*
X54495000Y-131155000D02*
X54495000Y-117185000D01*
X54495000Y-117185000D02*
X68465000Y-117185000D01*
%TO.C,SW3*%
X54495000Y-98135000D02*
X68465000Y-98135000D01*
X54495000Y-112105000D02*
X54495000Y-98135000D01*
X68465000Y-98135000D02*
X68465000Y-112105000D01*
X68465000Y-112105000D02*
X54495000Y-112105000D01*
%TO.C,SW2*%
X35445000Y-117185000D02*
X49415000Y-117185000D01*
X35445000Y-131155000D02*
X35445000Y-117185000D01*
X49415000Y-117185000D02*
X49415000Y-131155000D01*
X49415000Y-131155000D02*
X35445000Y-131155000D01*
%TO.C,SW1*%
X35445000Y-98135000D02*
X49415000Y-98135000D01*
X35445000Y-112105000D02*
X35445000Y-98135000D01*
X49415000Y-98135000D02*
X49415000Y-112105000D01*
X49415000Y-112105000D02*
X35445000Y-112105000D01*
%TO.C,SW6*%
X73545000Y-117185000D02*
X87515000Y-117185000D01*
X73545000Y-131155000D02*
X73545000Y-117185000D01*
X87515000Y-117185000D02*
X87515000Y-131155000D01*
X87515000Y-131155000D02*
X73545000Y-131155000D01*
%TO.C,SW5*%
X73545000Y-98135000D02*
X87515000Y-98135000D01*
X73545000Y-112105000D02*
X73545000Y-98135000D01*
X87515000Y-98135000D02*
X87515000Y-112105000D01*
X87515000Y-112105000D02*
X73545000Y-112105000D01*
%TO.C,SW7*%
X94135000Y-112025000D02*
X94735000Y-112025000D01*
X94435000Y-112325000D02*
X94135000Y-112025000D01*
X94735000Y-112025000D02*
X94435000Y-112325000D01*
X95835000Y-110325000D02*
X95835000Y-122025000D01*
X99935000Y-110325000D02*
X95835000Y-110325000D01*
X99935000Y-122025000D02*
X95835000Y-122025000D01*
X101435000Y-116125000D02*
X102435000Y-116125000D01*
X101935000Y-115625000D02*
X101935000Y-116625000D01*
X103935000Y-110225000D02*
X108035000Y-110225000D01*
X108035000Y-110225000D02*
X108035000Y-112825000D01*
X108035000Y-114825000D02*
X108035000Y-117425000D01*
X108035000Y-119425000D02*
X108035000Y-122025000D01*
X108035000Y-122025000D02*
X103935000Y-122025000D01*
X104935000Y-116125000D02*
G75*
G02*
X98935000Y-116125000I-3000000J0D01*
G01*
X98935000Y-116125000D02*
G75*
G02*
X104935000Y-116125000I3000000J0D01*
G01*
%TD*%
M02*
