%TF.GenerationSoftware,KiCad,Pcbnew,9.0.7*%
%TF.CreationDate,2026-01-16T03:08:10+02:00*%
%TF.ProjectId,HackPad,4861636b-5061-4642-9e6b-696361645f70,rev?*%
%TF.SameCoordinates,Original*%
%TF.FileFunction,Copper,L1,Top*%
%TF.FilePolarity,Positive*%
%FSLAX46Y46*%
G04 Gerber Fmt 4.6, Leading zero omitted, Abs format (unit mm)*
G04 Created by KiCad (PCBNEW 9.0.7) date 2026-01-16 03:08:10*
%MOMM*%
%LPD*%
G01*
G04 APERTURE LIST*
%TA.AperFunction,ComponentPad*%
%ADD10R,1.700000X1.700000*%
%TD*%
%TA.AperFunction,ComponentPad*%
%ADD11O,1.700000X1.700000*%
%TD*%
%TA.AperFunction,ComponentPad*%
%ADD12C,2.200000*%
%TD*%
%TA.AperFunction,ComponentPad*%
%ADD13C,1.500000*%
%TD*%
%TA.AperFunction,ComponentPad*%
%ADD14R,2.000000X2.000000*%
%TD*%
%TA.AperFunction,ComponentPad*%
%ADD15C,2.000000*%
%TD*%
%TA.AperFunction,ComponentPad*%
%ADD16R,3.200000X2.000000*%
%TD*%
%TA.AperFunction,ComponentPad*%
%ADD17C,1.524000*%
%TD*%
%TA.AperFunction,ViaPad*%
%ADD18C,0.600000*%
%TD*%
%TA.AperFunction,Conductor*%
%ADD19C,0.200000*%
%TD*%
G04 APERTURE END LIST*
D10*
%TO.P,OLED1,1,GND*%
%TO.N,GND*%
X78530000Y-82110000D03*
D11*
%TO.P,OLED1,2,VCC*%
%TO.N,/3V3*%
X78530000Y-84650000D03*
%TO.P,OLED1,3,SCL*%
%TO.N,Net-(OLED1-SCL)*%
X78530000Y-87190000D03*
%TO.P,OLED1,4,SDA*%
%TO.N,Net-(OLED1-SDA)*%
X78530000Y-89730000D03*
%TD*%
D12*
%TO.P,SW4,2,2*%
%TO.N,Net-(U1-GPIO27{slash}ADC1{slash}A1)*%
X57670000Y-121630000D03*
%TO.P,SW4,1,1*%
%TO.N,GND*%
X64020000Y-119090000D03*
%TD*%
%TO.P,SW3,1,1*%
%TO.N,GND*%
X64020000Y-100040000D03*
%TO.P,SW3,2,2*%
%TO.N,Net-(U1-GPIO1{slash}RX)*%
X57670000Y-102580000D03*
%TD*%
%TO.P,SW2,1,1*%
%TO.N,GND*%
X44970000Y-119090000D03*
%TO.P,SW2,2,2*%
%TO.N,Net-(U1-GPIO2{slash}SCK)*%
X38620000Y-121630000D03*
%TD*%
%TO.P,SW1,1,1*%
%TO.N,GND*%
X44970000Y-100040000D03*
%TO.P,SW1,2,2*%
%TO.N,Net-(U1-GPIO26{slash}ADC0{slash}A0)*%
X38620000Y-102580000D03*
%TD*%
%TO.P,SW6,1,1*%
%TO.N,Net-(U1-GPIO4{slash}MISO)*%
X83070000Y-119090000D03*
%TO.P,SW6,2,2*%
%TO.N,GND*%
X76720000Y-121630000D03*
%TD*%
%TO.P,SW5,1,1*%
%TO.N,Net-(U1-GPIO3{slash}MOSI)*%
X83070000Y-100040000D03*
%TO.P,SW5,2,2*%
%TO.N,GND*%
X76720000Y-102580000D03*
%TD*%
D13*
%TO.P,SW7,*%
%TO.N,*%
X108935000Y-113625000D03*
X108935000Y-118625000D03*
D14*
%TO.P,SW7,A,A*%
%TO.N,Net-(U1-GPIO28{slash}ADC2{slash}A2)*%
X94435000Y-113625000D03*
D15*
%TO.P,SW7,B,B*%
%TO.N,Net-(U1-GPIO29{slash}ADC3{slash}A3)*%
X94435000Y-118625000D03*
%TO.P,SW7,C,C*%
%TO.N,GND*%
X94435000Y-116125000D03*
D16*
%TO.P,SW7,MP*%
%TO.N,N/C*%
X101935000Y-110525000D03*
X101935000Y-121725000D03*
%TD*%
D17*
%TO.P,U1,1,GPIO26/ADC0/A0*%
%TO.N,Net-(U1-GPIO26{slash}ADC0{slash}A0)*%
X109450000Y-79518500D03*
%TO.P,U1,2,GPIO27/ADC1/A1*%
%TO.N,Net-(U1-GPIO27{slash}ADC1{slash}A1)*%
X109450000Y-82058500D03*
%TO.P,U1,3,GPIO28/ADC2/A2*%
%TO.N,Net-(U1-GPIO28{slash}ADC2{slash}A2)*%
X109450000Y-84598500D03*
%TO.P,U1,4,GPIO29/ADC3/A3*%
%TO.N,Net-(U1-GPIO29{slash}ADC3{slash}A3)*%
X109450000Y-87138500D03*
%TO.P,U1,5,GPIO6/SDA*%
%TO.N,Net-(OLED1-SDA)*%
X109450000Y-89678500D03*
%TO.P,U1,6,GPIO7/SCL*%
%TO.N,Net-(OLED1-SCL)*%
X109450000Y-92218500D03*
%TO.P,U1,7,GPIO0/TX*%
%TO.N,unconnected-(U1-GPIO0{slash}TX-Pad7)_1*%
X109450000Y-94758500D03*
%TO.P,U1,8,GPIO1/RX*%
%TO.N,Net-(U1-GPIO1{slash}RX)*%
X94210000Y-94758500D03*
%TO.P,U1,9,GPIO2/SCK*%
%TO.N,Net-(U1-GPIO2{slash}SCK)*%
X94210000Y-92218500D03*
%TO.P,U1,10,GPIO4/MISO*%
%TO.N,Net-(U1-GPIO4{slash}MISO)*%
X94210000Y-89678500D03*
%TO.P,U1,11,GPIO3/MOSI*%
%TO.N,Net-(U1-GPIO3{slash}MOSI)*%
X94210000Y-87138500D03*
%TO.P,U1,12,3V3*%
%TO.N,/3V3*%
X94210000Y-84598500D03*
%TO.P,U1,13,GND*%
%TO.N,GND*%
X94210000Y-82058500D03*
%TO.P,U1,14,VBUS*%
%TO.N,+5V*%
X94210000Y-79518500D03*
%TD*%
D18*
%TO.N,Net-(U1-GPIO27{slash}ADC1{slash}A1)*%
X113260000Y-94710000D03*
%TO.N,Net-(U1-GPIO4{slash}MISO)*%
X97130000Y-91341500D03*
%TO.N,Net-(U1-GPIO3{slash}MOSI)*%
X86670000Y-95358500D03*
%TO.N,Net-(U1-GPIO26{slash}ADC0{slash}A0)*%
X113580000Y-79210000D03*
%TO.N,Net-(U1-GPIO28{slash}ADC2{slash}A2)*%
X106540000Y-91341500D03*
%TO.N,Net-(U1-GPIO29{slash}ADC3{slash}A3)*%
X105760000Y-88480000D03*
X103570000Y-91341500D03*
%TO.N,GND*%
X79578271Y-82049755D03*
%TD*%
D19*
%TO.N,Net-(U1-GPIO26{slash}ADC0{slash}A0)*%
X33010000Y-126370000D02*
X40910000Y-134270000D01*
X32830000Y-126370000D02*
X33010000Y-126370000D01*
%TO.N,Net-(OLED1-SCL)*%
X91930000Y-77710000D02*
X112620000Y-77710000D01*
X112980000Y-78070000D02*
X112980000Y-88688500D01*
X86379000Y-83261000D02*
X91930000Y-77710000D01*
X112620000Y-77710000D02*
X112980000Y-78070000D01*
X78291240Y-83261000D02*
X86379000Y-83261000D01*
X77379000Y-84173240D02*
X78291240Y-83261000D01*
X77379000Y-86039000D02*
X77379000Y-84173240D01*
X78530000Y-87190000D02*
X77379000Y-86039000D01*
X112980000Y-88688500D02*
X109450000Y-92218500D01*
%TO.N,Net-(U1-GPIO29{slash}ADC3{slash}A3)*%
X93280000Y-118625000D02*
X94435000Y-118625000D01*
X103610000Y-91142500D02*
X102907500Y-91142500D01*
X102907500Y-91142500D02*
X91840000Y-102210000D01*
X91100000Y-102210000D02*
X90630000Y-102680000D01*
X103610000Y-91301500D02*
X103610000Y-91142500D01*
X91840000Y-102210000D02*
X91100000Y-102210000D01*
X103570000Y-91341500D02*
X103610000Y-91301500D01*
X90630000Y-102680000D02*
X90630000Y-115975000D01*
X90630000Y-115975000D02*
X93280000Y-118625000D01*
%TO.N,Net-(U1-GPIO2{slash}SCK)*%
X52580000Y-111370000D02*
X52580000Y-97750000D01*
X49410000Y-114540000D02*
X52580000Y-111370000D01*
X48980000Y-114540000D02*
X49410000Y-114540000D01*
X48910000Y-114610000D02*
X48980000Y-114540000D01*
X39600000Y-114610000D02*
X48910000Y-114610000D01*
X38620000Y-115590000D02*
X39600000Y-114610000D01*
X38620000Y-121630000D02*
X38620000Y-115590000D01*
X52415000Y-97915000D02*
X52580000Y-97750000D01*
%TO.N,Net-(U1-GPIO26{slash}ADC0{slash}A0)*%
X32830000Y-117720000D02*
X32830000Y-126370000D01*
X38620000Y-102580000D02*
X38620000Y-111930000D01*
X38620000Y-111930000D02*
X32830000Y-117720000D01*
%TO.N,Net-(U1-GPIO27{slash}ADC1{slash}A1)*%
X113260000Y-94710000D02*
X113280000Y-94730000D01*
X111510000Y-96460000D02*
X113260000Y-94710000D01*
X111510000Y-104870000D02*
X111510000Y-96460000D01*
X111580000Y-104940000D02*
X111510000Y-104870000D01*
X58750000Y-133320000D02*
X111020000Y-133320000D01*
X111020000Y-133320000D02*
X111580000Y-132760000D01*
X57770000Y-132340000D02*
X58750000Y-133320000D01*
X111580000Y-132760000D02*
X111580000Y-104940000D01*
X57770000Y-121730000D02*
X57770000Y-132340000D01*
X57670000Y-121630000D02*
X57770000Y-121730000D01*
%TO.N,Net-(U1-GPIO4{slash}MISO)*%
X97130000Y-91142500D02*
X97130000Y-91341500D01*
X88760000Y-113400000D02*
X88950000Y-113400000D01*
X88950000Y-113400000D02*
X88950000Y-101521810D01*
X88950000Y-101521810D02*
X97130000Y-93341810D01*
X97130000Y-93341810D02*
X97130000Y-91142500D01*
X83070000Y-119090000D02*
X88760000Y-113400000D01*
%TO.N,Net-(U1-GPIO3{slash}MOSI)*%
X86670000Y-95420000D02*
X86670000Y-95358500D01*
X86670000Y-96440000D02*
X86670000Y-95420000D01*
X83070000Y-100040000D02*
X86670000Y-96440000D01*
%TO.N,Net-(U1-GPIO1{slash}RX)*%
X66741500Y-94758500D02*
X94210000Y-94758500D01*
X66720000Y-94780000D02*
X66741500Y-94758500D01*
X59780000Y-94780000D02*
X66720000Y-94780000D01*
X57670000Y-96890000D02*
X59780000Y-94780000D01*
X57670000Y-102580000D02*
X57670000Y-96890000D01*
%TO.N,Net-(U1-GPIO26{slash}ADC0{slash}A0)*%
X113750000Y-79210000D02*
X113580000Y-79210000D01*
X114030000Y-133710000D02*
X114030000Y-79490000D01*
X113470000Y-134270000D02*
X114030000Y-133710000D01*
X40910000Y-134270000D02*
X113470000Y-134270000D01*
X114030000Y-79490000D02*
X113750000Y-79210000D01*
%TO.N,Net-(U1-GPIO2{slash}SCK)*%
X58111500Y-92218500D02*
X94210000Y-92218500D01*
X52580000Y-97750000D02*
X58111500Y-92218500D01*
%TO.N,Net-(U1-GPIO28{slash}ADC2{slash}A2)*%
X106418500Y-91341500D02*
X106540000Y-91341500D01*
X94435000Y-103325000D02*
X105880000Y-91880000D01*
X105880000Y-91880000D02*
X106418500Y-91341500D01*
X94435000Y-113625000D02*
X94435000Y-103325000D01*
%TO.N,Net-(U1-GPIO29{slash}ADC3{slash}A3)*%
X107101500Y-87138500D02*
X109450000Y-87138500D01*
X105760000Y-88480000D02*
X107101500Y-87138500D01*
%TO.N,GND*%
X79538026Y-82090000D02*
X79578271Y-82049755D01*
X78540000Y-82090000D02*
X79538026Y-82090000D01*
X78540000Y-82100000D02*
X78540000Y-82090000D01*
X78530000Y-82110000D02*
X78540000Y-82100000D01*
%TO.N,Net-(OLED1-SDA)*%
X108387000Y-90741500D02*
X109450000Y-89678500D01*
X78530000Y-89730000D02*
X79541500Y-90741500D01*
X79541500Y-90741500D02*
X108387000Y-90741500D01*
%TO.N,/3V3*%
X94158500Y-84650000D02*
X94210000Y-84598500D01*
X78530000Y-84650000D02*
X94158500Y-84650000D01*
%TD*%
M02*
